<?xml version="1.0" encoding="utf-8"?>
<!-- Generator: Adobe Illustrator 17.1.0, SVG Export Plug-In . SVG Version: 6.00 Build 0)  -->
<!DOCTYPE svg PUBLIC "-//W3C//DTD SVG 1.1//EN" "http://www.w3.org/Graphics/SVG/1.1/DTD/svg11.dtd">
<svg version="1.1" xmlns="http://www.w3.org/2000/svg" xmlns:xlink="http://www.w3.org/1999/xlink" x="0px" y="0px"
	 viewBox="0 0 750 500" enable-background="new 0 0 750 500" xml:space="preserve">
<g id="BACKGROUND">
	<g>
		<rect fill="#FEFEFE" width="750" height="500"/>
	</g>
</g>
<g id="OBJECT">
	<g>
		<g>
			<g>
				<path fill="#EFEFEF" d="M628.7,273.2c0,24.7-19.3,44.9-43.6,46.3c-0.1,0-0.3,0-0.4,0c-0.8,0-1.6,0.1-2.4,0.1c-0.7,0-1.3,0-2,0
					c-0.1,0-0.3,0-0.4,0c-24.5-1.3-44-21.5-44-46.3c0-25.6,20.8-46.4,46.4-46.4S628.7,247.6,628.7,273.2z"/>
			</g>
			<polygon fill="#DBD7D7" points="582.5,258.9 586.2,418.2 578.4,418.2 582.1,258.9 			"/>
			<polygon fill="#DBD7D7" points="547.5,277.5 584,312.1 581.3,312 617,279.6 617.2,279.8 584,314.8 582.6,316.2 581.3,314.8 			
				"/>
			<polygon fill="#DBD7D7" points="567,268.5 583.5,282.9 581.5,282.9 597.5,268.8 597.7,268.9 583.5,284.9 582.5,286.1 
				581.5,284.9 			"/>
		</g>
		<g>
			<rect x="115.7" y="229.7" fill="#EFEFEF" width="96.7" height="186.7"/>
			<rect x="126.3" y="245.7" fill="#FEFEFE" width="78.7" height="28.7"/>
			<rect x="126.3" y="293" fill="#FEFEFE" width="78.7" height="28.7"/>
			<path fill="#EFEFEF" d="M118.8,233c-0.8,0-1.5-0.7-1.5-1.5V219c0-0.8,0.7-1.5,1.5-1.5h93.5c0.8,0,1.5,0.7,1.5,1.5
				s-0.7,1.5-1.5,1.5h-92v11C120.3,232.3,119.7,233,118.8,233z"/>
			<path fill="#EFEFEF" d="M126.5,234.3c-0.8,0-1.5-0.7-1.5-1.5V219c0-0.8,0.7-1.5,1.5-1.5s1.5,0.7,1.5,1.5v13.8
				C128,233.7,127.3,234.3,126.5,234.3z"/>
			<path fill="#EFEFEF" d="M135.7,234c-0.8,0-1.5-0.7-1.5-1.5v-12.8c0-0.8,0.7-1.5,1.5-1.5c0.8,0,1.5,0.7,1.5,1.5v12.8
				C137.2,233.3,136.5,234,135.7,234z"/>
			<path fill="#EFEFEF" d="M145.2,234.5c-0.8,0-1.5-0.7-1.5-1.5v-13.3c0-0.8,0.7-1.5,1.5-1.5s1.5,0.7,1.5,1.5V233
				C146.7,233.8,146,234.5,145.2,234.5z"/>
			<path fill="#EFEFEF" d="M156,234.3c-0.8,0-1.5-0.7-1.5-1.5v-13.3c0-0.8,0.7-1.5,1.5-1.5s1.5,0.7,1.5,1.5v13.3
				C157.5,233.7,156.8,234.3,156,234.3z"/>
			<path fill="#EFEFEF" d="M164.8,233.3c-0.8,0-1.5-0.7-1.5-1.5v-11.7c0-0.8,0.7-1.5,1.5-1.5s1.5,0.7,1.5,1.5v11.7
				C166.3,232.7,165.7,233.3,164.8,233.3z"/>
			<path fill="#EFEFEF" d="M173.5,234c-0.8,0-1.5-0.7-1.5-1.5v-12.7c0-0.8,0.7-1.5,1.5-1.5s1.5,0.7,1.5,1.5v12.7
				C175,233.3,174.3,234,173.5,234z"/>
			<path fill="#EFEFEF" d="M184.8,233.7c-0.8,0-1.5-0.7-1.5-1.5v-12.7c0-0.8,0.7-1.5,1.5-1.5s1.5,0.7,1.5,1.5v12.7
				C186.3,233,185.7,233.7,184.8,233.7z"/>
			<path fill="#EFEFEF" d="M193.3,233.3c-0.8,0-1.5-0.7-1.5-1.5v-11.3c0-0.8,0.7-1.5,1.5-1.5s1.5,0.7,1.5,1.5v11.3
				C194.8,232.7,194.2,233.3,193.3,233.3z"/>
			<path fill="#EFEFEF" d="M204,233c-0.8,0-1.5-0.7-1.5-1.5v-11.3c0-0.8,0.7-1.5,1.5-1.5s1.5,0.7,1.5,1.5v11.3
				C205.5,232.3,204.8,233,204,233z"/>
		</g>
		<g>
			<rect x="211.7" y="171.7" fill="#EFEFEF" width="96.7" height="244.7"/>
			<g>
				<g>
					<rect x="218.7" y="181.7" fill="#FEFEFE" width="23.7" height="23.7"/>
					<rect x="247.7" y="181.7" fill="#FEFEFE" width="23.7" height="23.7"/>
					<rect x="276" y="181.7" fill="#FEFEFE" width="23.7" height="23.7"/>
				</g>
				<g>
					<rect x="218.7" y="210.3" fill="#FEFEFE" width="23.7" height="23.7"/>
					<rect x="247.7" y="210.3" fill="#FEFEFE" width="23.7" height="23.7"/>
					<rect x="276" y="210.3" fill="#FEFEFE" width="23.7" height="23.7"/>
				</g>
				<g>
					<rect x="218.7" y="238.7" fill="#FEFEFE" width="23.7" height="23.7"/>
					<rect x="247.7" y="238.7" fill="#FEFEFE" width="23.7" height="23.7"/>
					<rect x="276" y="238.7" fill="#FEFEFE" width="23.7" height="23.7"/>
				</g>
				<g>
					<rect x="218.7" y="267.3" fill="#FEFEFE" width="23.7" height="23.7"/>
					<rect x="247.7" y="267.3" fill="#FEFEFE" width="23.7" height="23.7"/>
					<rect x="276" y="267.3" fill="#FEFEFE" width="23.7" height="23.7"/>
				</g>
				<g>
					<rect x="218.7" y="296" fill="#FEFEFE" width="23.7" height="23.7"/>
					<rect x="247.7" y="296" fill="#FEFEFE" width="23.7" height="23.7"/>
					<rect x="276" y="296" fill="#FEFEFE" width="23.7" height="23.7"/>
				</g>
				<g>
					<rect x="218.7" y="324.3" fill="#FEFEFE" width="23.7" height="23.7"/>
					<rect x="247.7" y="324.3" fill="#FEFEFE" width="23.7" height="23.7"/>
					<rect x="276" y="324.3" fill="#FEFEFE" width="23.7" height="23.7"/>
				</g>
			</g>
		</g>
		<g>
			<rect x="416.2" y="138" fill="#EFEFEF" width="110" height="278.3"/>
			<g>
				<g>
					<rect x="424.1" y="149.4" fill="#FEFEFE" width="26.9" height="26.9"/>
					<rect x="457.2" y="149.4" fill="#FEFEFE" width="26.9" height="26.9"/>
					<rect x="489.4" y="149.4" fill="#FEFEFE" width="26.9" height="26.9"/>
				</g>
				<g>
					<rect x="424.1" y="182" fill="#FEFEFE" width="26.9" height="26.9"/>
					<rect x="457.2" y="182" fill="#FEFEFE" width="26.9" height="26.9"/>
					<rect x="489.4" y="182" fill="#FEFEFE" width="26.9" height="26.9"/>
				</g>
				<g>
					<rect x="424.1" y="214.2" fill="#FEFEFE" width="26.9" height="26.9"/>
					<rect x="457.2" y="214.2" fill="#FEFEFE" width="26.9" height="26.9"/>
					<rect x="489.4" y="214.2" fill="#FEFEFE" width="26.9" height="26.9"/>
				</g>
				<g>
					<rect x="424.1" y="246.8" fill="#FEFEFE" width="26.9" height="26.9"/>
					<rect x="457.2" y="246.8" fill="#FEFEFE" width="26.9" height="26.9"/>
					<rect x="489.4" y="246.8" fill="#FEFEFE" width="26.9" height="26.9"/>
				</g>
				<g>
					<rect x="424.1" y="279.4" fill="#FEFEFE" width="26.9" height="26.9"/>
					<rect x="457.2" y="279.4" fill="#FEFEFE" width="26.9" height="26.9"/>
					<rect x="489.4" y="279.4" fill="#FEFEFE" width="26.9" height="26.9"/>
				</g>
				<g>
					<rect x="424.1" y="311.7" fill="#FEFEFE" width="26.9" height="26.9"/>
					<rect x="457.2" y="311.7" fill="#FEFEFE" width="26.9" height="26.9"/>
					<rect x="489.4" y="311.7" fill="#FEFEFE" width="26.9" height="26.9"/>
				</g>
			</g>
		</g>
	</g>
	<g>
		<g>
			<g>
				<path fill="#4150D9" d="M639.7,412.2v31.6h-478V401h474.9C638.1,404.5,639.1,408.3,639.7,412.2z"/>
				<path fill="#4150D9" d="M311.3,402.7c0,15.2-4.5,29.3-12.3,41H174c-7.8-11.8-12.3-25.9-12.3-41c0-0.6,0-1.2,0-1.7
					c0.9-40.5,34-73.1,74.8-73.1c40.7,0,73.8,32.6,74.8,73.1C311.3,401.6,311.3,402.2,311.3,402.7z"/>
				<path fill="#4150D9" d="M465.4,389.7c0,20-5.9,38.6-16.2,54.1H284.4c-10.2-15.5-16.2-34.1-16.2-54.1c0-0.8,0-1.5,0-2.3
					c1.2-53.4,44.9-96.3,98.6-96.3c53.7,0,97.4,42.9,98.6,96.3C465.4,388.1,465.4,388.9,465.4,389.7z"/>
				<path fill="#4150D9" d="M580.9,409.9c0,12.5-3.7,24.2-10.1,33.9H467.5c-6.4-9.7-10.1-21.4-10.1-33.9c0-0.5,0-1,0-1.4
					c0.8-33.4,28.1-60.3,61.7-60.3c33.6,0,61,26.9,61.8,60.3C580.9,408.9,580.9,409.4,580.9,409.9z"/>
				<path fill="#4150D9" d="M640.2,418.8c0,2.2-0.2,4.4-0.5,6.6c-1,6.7-3.4,13-7,18.5h-76.2c-4.7-7.2-7.5-15.8-7.5-25
					c0-0.4,0-0.7,0-1.1c0.1-5.9,1.4-11.6,3.6-16.7c6.9-16.4,23.1-27.8,42-27.8c18.9,0,35.1,11.5,42,27.8c1.5,3.5,2.6,7.3,3.1,11.2
					c0.3,1.8,0.4,3.7,0.5,5.5C640.2,418,640.2,418.4,640.2,418.8z"/>
			</g>
			<g>
				<path fill="#4150D9" d="M278.1,428v15.8H39.6v-21.3h236.9c0.4,0.8,0.7,1.7,0.9,2.6c0.2,0.6,0.4,1.3,0.5,2
					C278,427.4,278,427.7,278.1,428z"/>
				<path fill="#4150D9" d="M114.3,423.3c0,0.6,0,1.2-0.1,1.7c0,0.7-0.1,1.3-0.1,2c-0.2,1.8-0.5,3.6-0.9,5.4c-0.3,1.4-0.8,2.7-1.2,4
					c-1,2.6-2.2,5.1-3.8,7.4H45.8c-1.5-2.3-2.8-4.8-3.8-7.4c-0.5-1.3-0.9-2.6-1.2-4c-0.4-1.7-0.8-3.5-0.9-5.4
					c-0.1-0.7-0.1-1.3-0.1-2c0-0.6,0-1.1,0-1.7c0-0.3,0-0.6,0-0.9c0-1.8,0.2-3.6,0.5-5.3c0-0.3,0.1-0.7,0.2-1
					C43.7,399,58.8,386,76.9,386c8.2,0,15.7,2.6,21.9,7.1c7.5,5.4,12.9,13.6,14.7,23.1c0.1,0.3,0.1,0.7,0.2,1
					c0.3,1.7,0.5,3.5,0.5,5.3C114.3,422.7,114.3,423,114.3,423.3z"/>
				<path fill="#4150D9" d="M191.1,416.8c0,10-3,19.2-8.1,27h-82.2c-5.1-7.7-8.1-17-8.1-27c0-0.4,0-0.8,0-1.1
					c0.6-26.6,22.4-48,49.2-48c26.8,0,48.6,21.4,49.2,48C191.1,416,191.1,416.4,191.1,416.8z"/>
				<path fill="#4150D9" d="M248.7,426.9c0,6.2-1.9,12.1-5.1,16.9h-51.5c-3.2-4.9-5.1-10.7-5.1-16.9c0-0.2,0-0.5,0-0.7
					c0.4-16.7,14-30.1,30.8-30.1c16.8,0,30.4,13.4,30.8,30.1C248.7,426.4,248.7,426.6,248.7,426.9z"/>
				<path fill="#4150D9" d="M278.3,431.3c0,1.1-0.1,2.2-0.2,3.3c-0.5,3.4-1.7,6.5-3.5,9.2h-38c-2.4-3.6-3.7-7.9-3.7-12.5
					c0-0.2,0-0.4,0-0.5c0.1-3,0.7-5.8,1.8-8.3c3.5-8.2,11.5-13.9,20.9-13.9c9.4,0,17.5,5.7,21,13.9c0.7,1.8,1.3,3.6,1.6,5.6
					c0.1,0.9,0.2,1.8,0.2,2.8C278.3,430.9,278.3,431.1,278.3,431.3z"/>
			</g>
			<g>
				<path fill="#4150D9" d="M709.3,422.4v21.3H470.9V428c0-0.3,0.1-0.7,0.2-1c0.1-0.7,0.3-1.4,0.5-2c0.3-0.9,0.6-1.8,0.9-2.6H709.3z
					"/>
				<path fill="#4150D9" d="M709.3,423.3c0,0.6,0,1.2,0,1.7c0,0.7-0.1,1.3-0.1,2c-0.2,1.8-0.5,3.6-0.9,5.4c-0.3,1.4-0.8,2.7-1.2,4
					c-1,2.6-2.2,5.1-3.8,7.4h-62.4c-0.4-0.6-0.8-1.2-1.1-1.8c-1-1.8-1.9-3.6-2.7-5.6c-0.1-0.2-0.1-0.4-0.2-0.5
					c-0.4-1.1-0.8-2.3-1-3.5c-0.4-1.7-0.8-3.5-0.9-5.4c-0.1-0.7-0.1-1.3-0.1-2c0-0.6,0-1.1,0-1.7c0-0.3,0-0.6,0-0.9
					c0-1.8,0.2-3.6,0.5-5.3c0-0.3,0.1-0.7,0.2-1c0.6-3.3,1.7-6.5,3.2-9.4c2.7-5.4,6.7-10.1,11.6-13.7c6.1-4.5,13.7-7.1,21.9-7.1
					c18.2,0,33.3,13,36.6,30.2c0.1,0.3,0.1,0.7,0.2,1c0.3,1.7,0.5,3.5,0.5,5.3C709.3,422.7,709.3,423,709.3,423.3z"/>
				<path fill="#4150D9" d="M557.8,416.8c0,10,3,19.2,8.1,27h82.2c5.1-7.7,8.1-17,8.1-27c0-0.4,0-0.8,0-1.1
					c-0.6-26.6-22.4-48-49.2-48c-26.8,0-48.6,21.4-49.2,48C557.9,416,557.8,416.4,557.8,416.8z"/>
				<path fill="#4150D9" d="M500.2,426.9c0,6.2,1.9,12.1,5.1,16.9h51.5c3.2-4.9,5.1-10.7,5.1-16.9c0-0.2,0-0.5,0-0.7
					c-0.4-16.7-14-30.1-30.8-30.1c-16.8,0-30.4,13.4-30.8,30.1C500.2,426.4,500.2,426.6,500.2,426.9z"/>
				<path fill="#4150D9" d="M470.6,431.3c0,1.1,0.1,2.2,0.2,3.3c0.5,3.4,1.7,6.5,3.5,9.2h38c2.4-3.6,3.7-7.9,3.7-12.5
					c0-0.2,0-0.4,0-0.5c-0.1-3-0.7-5.8-1.8-8.3c-3.5-8.2-11.5-13.9-20.9-13.9c-9.4,0-17.5,5.7-21,13.9c-0.7,1.8-1.3,3.6-1.6,5.6
					c-0.1,0.9-0.2,1.8-0.2,2.8C470.6,430.9,470.6,431.1,470.6,431.3z"/>
			</g>
		</g>
		<g>
			<rect x="39.6" y="432.4" fill="#62C7D3" width="669.7" height="4"/>
		</g>
		<g>
			<rect x="39.6" y="425" opacity="0.5" fill="#62C7D3" width="669.7" height="2"/>
		</g>
	</g>
	<g>
		<g>
			<path fill="#2D3AAD" d="M310,236.8c0,30.7-24,55.8-54.2,57.6c-0.2,0-0.3,0-0.5,0c-1,0-2,0.1-3,0.1c-0.8,0-1.7,0-2.5-0.1
				c-0.2,0-0.4,0-0.5,0c-30.4-1.6-54.7-26.8-54.7-57.6c0-31.8,25.8-57.7,57.7-57.7C284.2,179.1,310,205,310,236.8z"/>
		</g>
		<path fill="#1B193B" d="M257.1,417.2c0-0.1,0-0.2,0-0.3l-4.5-198c0-0.2-0.1-0.3-0.3-0.3c-0.2,0-0.3,0.1-0.3,0.3l-4.5,198
			c0,0.1,0,0.2,0,0.2c0,0,0,0,0,0H257.1z"/>
		<path fill="#1B193B" d="M209.1,242.1l45.3,43l-3.4,0l44.4-40.3c0.1-0.1,0.2-0.1,0.3,0c0.1,0.1,0.1,0.2,0,0.3l-41.4,43.4
			c-0.9,0.9-2.3,1-3.2,0.1c0,0-0.1-0.1-0.1-0.1L209.1,242.1z"/>
		<path fill="#1B193B" d="M233.3,230.9l20.5,18h-2.5l19.9-17.6c0,0,0.1,0,0.2,0c0,0,0,0.1,0,0.1l-17.6,19.9
			c-0.6,0.7-1.6,0.8-2.3,0.1c-0.1,0-0.1-0.1-0.1-0.1L233.3,230.9z"/>
		<path fill="#62C7D3" d="M203.5,225.6c0.3-3,1.1-5.9,2.2-8.8c1-2.8,2.4-5.6,3.9-8.2c3.2-5.2,7.4-9.8,12.4-13.4
			c0.6-0.4,1.2-0.9,1.9-1.3l2-1.2c0.7-0.4,1.4-0.7,2-1.1c0.7-0.4,1.4-0.7,2.1-1c2.8-1.3,5.7-2.2,8.6-3c5.9-1.4,12-1.8,18-1.1l0,0.3
			c-5.9,0.5-11.7,1.5-17.3,3.3c-5.5,1.8-10.7,4.4-15.3,7.8c-2.3,1.7-4.4,3.6-6.4,5.7c-2,2.1-3.8,4.3-5.5,6.7
			C208.6,214.9,205.7,220.1,203.5,225.6z"/>
	</g>
	<g>
		<path fill="#FC542D" d="M252.3,144.6l-17-22.4c3.2-6.5,5-13.8,5-21.6c0-27.2-22-49.2-49.2-49.2s-49.2,22-49.2,49.2
			c0,27.2,22,49.2,49.2,49.2c12,0,23-4.3,31.5-11.4L252.3,144.6z"/>
		<path fill="#FEFEFE" d="M190.8,71l-22.6,27h-6.1l7.2-8.6l5.9-7.1l15.5-18.6l15.6,18.6l5.9,7.1l7.2,8.6h-6.1L190.8,71z M212.2,99.5
			l-21.5-25.6l-21.5,25.6v25.7h15v-19h12.8v19h15V99.5z"/>
	</g>
	<g>
		<path fill="#1B193B" d="M407,408.4l142.7-257c0.3-0.5,0.9-0.7,1.3-0.4c0.5,0.3,0.6,0.8,0.4,1.3L420.3,415.4
			c-1.8,3.7-6.4,5.2-10.1,3.4c-3.7-1.8-5.2-6.4-3.4-10.1C406.9,408.6,407,408.5,407,408.4z"/>
		<circle fill="#62C7D3" cx="551.3" cy="152" r="78"/>
		<path fill="#FEFEFE" d="M551.4,222.3c-1.3,0-2.7,0-4-0.1c-18.8-1-36-9.3-48.5-23.3c-12.5-14-18.8-32-17.8-50.8
			c1-18.8,9.3-36,23.3-48.5c14-12.5,32-18.8,50.8-17.8c18.8,1,36,9.3,48.5,23.3c12.5,14,18.8,32,17.8,50.8c-1,18.8-9.3,36-23.3,48.5
			C585.2,216,568.7,222.3,551.4,222.3z M551.2,87.7c-15.8,0-30.9,5.7-42.8,16.4c-12.8,11.5-20.4,27.2-21.3,44.4
			c-1,17.2,4.8,33.7,16.3,46.5c11.5,12.8,27.2,20.4,44.4,21.3c17.2,1,33.7-4.8,46.5-16.3c26.4-23.6,28.7-64.4,5.1-90.8
			c-11.5-12.8-27.2-20.4-44.4-21.3C553.6,87.7,552.4,87.7,551.2,87.7z"/>
		<g>
			<defs>
				<circle id="SVGID_1_" cx="551.3" cy="152" r="67.3"/>
			</defs>
			<clipPath id="SVGID_2_">
				<use xlink:href="#SVGID_1_"  overflow="visible"/>
			</clipPath>
			<g clip-path="url(#SVGID_2_)">
				<polygon fill="#EFEFEF" points="561.6,216.3 600,177.9 516,93.9 472.5,127.2 				"/>
				<polygon fill="#DBD7D7" points="466.4,131.8 448,146 448,235.8 475.4,235.8 522.9,188.3 				"/>
				<polygon fill="#DBD7D7" points="575.4,142.7 645.6,72.5 645.6,72.2 544.4,72.2 522,89.3 				"/>
				<polygon fill="#EFEFEF" points="645.6,212.9 645.6,83.2 580.8,148 				"/>
				<polygon fill="#DBD7D7" points="448,72.2 448,136.5 532,72.2 				"/>
				<polygon fill="#EFEFEF" points="486,235.8 570.4,235.8 528.2,193.6 				"/>
				<polygon fill="#DBD7D7" points="566.9,221.7 581.1,235.8 645.6,235.8 645.6,223.5 605.3,183.3 				"/>
				<polygon fill="#FFFFFF" points="544.4,72.2 522,89.3 517.4,84.6 512,90 516,93.9 472.5,127.2 469.5,124.3 464.2,129.6 
					466.4,131.8 448,146 448,136.5 531.9,72.2 				"/>
				<polygon fill="#FFFFFF" points="581.1,235.8 570.4,235.8 528.2,193.6 529.9,191.9 524.6,186.6 522.9,188.3 466.4,131.8 
					472.5,127.2 561.6,216.3 558,219.9 563.3,225.3 566.9,221.7 				"/>
				<polygon fill="#FFFFFF" points="464.2,129.6 466.4,131.8 472.5,127.2 469.5,124.3 				"/>
				<polygon fill="#FFFFFF" points="645.6,212.9 645.6,223.5 605.3,183.3 609.2,179.3 603.9,174 600,177.9 516,93.9 522,89.3 
					575.4,142.7 573.1,145 578.4,150.4 580.8,148 				"/>
				<polygon fill="#FFFFFF" points="512,90 516,93.9 522,89.3 517.4,84.6 				"/>
				<polygon fill="#FFFFFF" points="645.6,72.5 645.6,83.2 580.8,148 575.4,142.7 				"/>
				
					<rect x="573.1" y="144.9" transform="matrix(-0.7071 -0.7071 0.7071 -0.7071 881.2447 658.0836)" fill="#FFFFFF" width="7.6" height="3.3"/>
				
					<rect x="556.3" y="196" transform="matrix(-0.7071 0.7071 -0.7071 -0.7071 1137.2815 -71.4973)" fill="#FFFFFF" width="54.3" height="7.6"/>
				
					<rect x="558.7" y="218.2" transform="matrix(-0.7071 -0.7071 0.7071 -0.7071 804.0174 774.6308)" fill="#FFFFFF" width="7.6" height="5.1"/>
				
					<rect x="600.8" y="175.8" transform="matrix(0.7071 0.7071 -0.7071 0.7071 303.3988 -375.2117)" fill="#FFFFFF" width="7.6" height="5.6"/>
				<polygon fill="#FFFFFF" points="528.2,193.6 486,235.8 475.4,235.8 522.9,188.3 				"/>
				
					<rect x="522.6" y="188.9" transform="matrix(0.7071 0.7071 -0.7071 0.7071 288.611 -316.5478)" fill="#FFFFFF" width="7.6" height="2.4"/>
			</g>
		</g>
		<path fill="#1B193B" d="M550.7,233.4c-1.5,0-3.1,0-4.6-0.1c-21.7-1.2-41.7-10.8-56.2-27.1C475.3,190,468,169,469.2,147.3
			c1.2-21.7,10.8-41.7,27.1-56.2c16.2-14.5,37.1-21.9,58.9-20.6c21.7,1.2,41.7,10.8,56.2,27.1c14.5,16.2,21.9,37.1,20.6,58.9
			c-1.2,21.7-10.8,41.7-27.1,56.2C589.9,226.1,570.8,233.4,550.7,233.4z M550.5,77.3c-18.3,0-35.8,6.7-49.6,19
			c-14.8,13.3-23.6,31.5-24.7,51.4c-1.1,19.9,5.6,39,18.9,53.8c13.3,14.8,31.5,23.6,51.4,24.7c19.9,1.1,39-5.6,53.8-18.9
			c14.8-13.3,23.6-31.5,24.7-51.4c1.1-19.9-5.6-39-18.9-53.8l0,0c-13.3-14.8-31.5-23.6-51.4-24.7C553.3,77.3,551.9,77.3,550.5,77.3z
			"/>
		<path fill="#FFFFFF" d="M608.8,99.8c7.1,7.4,12.6,16.3,16.2,26c3.6,9.7,5.1,20.1,4.6,30.4c-0.5,10.3-3.2,20.5-7.8,29.8
			c-4.6,9.3-11.2,17.5-19.1,24c7.3-7.1,13.3-15.5,17.6-24.7c4.3-9.2,6.7-19.1,7.4-29.2c0.3-5,0.1-10.1-0.6-15.1
			c-0.7-5-1.8-9.9-3.4-14.7C620.4,116.7,615.3,107.7,608.8,99.8z"/>
	</g>
	<g>
		<path fill="#FC542D" d="M546.7,127c0-0.7-0.1-1.3-0.2-1.9c-1.8-9-9.8-14.8-19-13.6c-10.5,1.4-16.8,12.2-13.7,21.2
			c1.3,3.7,2.9,7.2,4.7,10.7c2.2,4.2,4.6,8.3,7.2,12.2c1.2,2,2.5,3.9,3.8,5.9c0.3,0.5,0.5,0.5,0.8,0c3.4-5.1,6.6-10.3,9.6-15.6
			c2.3-4.2,4.6-8.5,6-13.2C546.5,130.8,547,128.9,546.7,127z M541.2,119.2c0.2,0,0.2,0.2,0.2,0.4c0,0,0,0,0,0c0,0,0,0,0,0
			c-0.2,0-0.3-0.1-0.4-0.2C541,119.2,541.1,119.2,541.2,119.2z M517.2,135.8c0.2,0,0.1,0.1,0.1,0.1
			C517.3,135.9,517.3,135.8,517.2,135.8z M517.3,135.9c0,0,0.1,0.1,0.1,0.1C517.3,136.1,517.4,136,517.3,135.9z M522,127.4
			c0-4.4,3.6-7.9,8-7.9c4.3,0,7.9,3.6,7.9,8c0,4.4-3.6,7.9-8,7.9C525.6,135.3,522,131.7,522,127.4z"/>
		<g>
			<path fill="#004CAD" d="M541.2,119.2c-0.1,0-0.1,0-0.1,0.1c0,0.2,0.2,0.2,0.4,0.2c0,0,0,0,0,0c0,0,0,0,0,0
				C541.4,119.4,541.4,119.2,541.2,119.2z"/>
			<circle fill="#004CAD" cx="517.3" cy="135.9" r="0"/>
			<path fill="#004CAD" d="M517.2,135.8c0,0,0.1,0.1,0.1,0.1C517.3,135.9,517.4,135.7,517.2,135.8z"/>
			<path fill="#004CAD" d="M517.4,136.1c0,0-0.1-0.1-0.1-0.1C517.4,136,517.3,136.1,517.4,136.1z"/>
			<path fill="#004CAD" d="M541.6,119.7C541.6,119.7,541.6,119.7,541.6,119.7c-0.1-0.1-0.1-0.1-0.2-0.1
				C541.5,119.6,541.5,119.7,541.6,119.7C541.6,119.7,541.6,119.7,541.6,119.7z"/>
		</g>
	</g>
	<g>
		<path fill="#FFDA08" d="M595.8,58.4c0.1-1-0.1-2-0.3-2.9c-2.7-13.7-14.9-22.5-28.8-20.6c-16,2.1-25.5,18.6-20.7,32.2
			c1.9,5.6,4.4,10.9,7.1,16.2c3.3,6.3,6.9,12.6,10.9,18.6c1.8,3.1,3.8,6,5.7,8.9c0.5,0.8,0.7,0.8,1.3,0c5.1-7.7,10-15.6,14.5-23.7
			c3.6-6.4,6.9-13,9.2-20C595.5,64.2,596.2,61.3,595.8,58.4z M587.3,46.6c0.3,0.1,0.3,0.3,0.4,0.6c0,0,0,0,0.1,0.1c0,0,0,0-0.1-0.1
			c-0.3,0-0.5-0.1-0.5-0.4C587.1,46.6,587.2,46.5,587.3,46.6z M551,71.8c0.3-0.1,0.1,0.1,0.2,0.2C551.1,71.9,551,71.8,551,71.8z
			 M551.2,72c0.1,0.1,0.1,0.1,0.2,0.2C551.1,72.3,551.2,72.1,551.2,72z M558.2,59c0-6.6,5.4-12.1,12.1-12c6.6,0,12,5.5,12,12.1
			c0,6.6-5.4,12-12.1,12C563.6,71,558.2,65.6,558.2,59z"/>
		<g>
			<path fill="#FEFEFE" d="M587.3,46.6c-0.1,0-0.2,0.1-0.2,0.2c0.1,0.3,0.3,0.4,0.5,0.4c0,0,0,0,0.1,0.1c0,0,0,0-0.1-0.1
				C587.7,46.9,587.6,46.6,587.3,46.6z"/>
			<polygon fill="#FEFEFE" points="551.2,72 551.2,72 551.2,72 551.2,72 			"/>
			<path fill="#FEFEFE" d="M551,71.8c0.1,0.1,0.1,0.1,0.2,0.2C551.1,71.9,551.2,71.7,551,71.8z"/>
			<path fill="#FEFEFE" d="M551.3,72.2c-0.1-0.1-0.1-0.1-0.2-0.2C551.2,72.1,551.1,72.3,551.3,72.2z"/>
			<path fill="#FEFEFE" d="M588,47.4C588,47.4,587.9,47.4,588,47.4c-0.1-0.1-0.2-0.2-0.2-0.2C587.8,47.2,587.9,47.3,588,47.4
				C587.9,47.4,588,47.4,588,47.4z"/>
		</g>
	</g>
	<g>
		<g>
			<g>
				<polygon fill="#F58C62" points="290.3,194.9 273.5,162.6 266.4,163.1 281.9,208.3 				"/>
				<path fill="#EDB200" d="M311.7,165.1c-3.1,2.1-22.1,25.4-22.1,25.4L274.8,165c-0.7,0.4-10.3,8.3-10.3,8.3l17.5,35l0,0
					c1.4,3.9,8.6,7.8,14.2,3.4c2.2-1.1,26.4-29.8,26.4-29.8S316.2,162,311.7,165.1z"/>
				<g>
					<g>
						<g>
							<path fill="#1B193B" d="M271.6,159.5l-0.6-10.3c-0.1-1-1-1.7-1.9-1.5l-7,1.2c-0.5,0.1-0.9,0.5-0.8,1.1l1.1,12.5
								c0.1,1,1,1.7,2,1.5l5.9-1.2c0.8-0.2,1.3-0.8,1.3-1.6L271.6,159.5C271.6,159.6,271.6,159.6,271.6,159.5z"/>
							<polygon fill="#FEFEFE" points="270,161.5 269.8,148.9 262.3,149.8 263.6,162.6 							"/>
						</g>
						<path fill="#F58C62" d="M261,153.1c0.3,0,5.8,0.2,5.8,1.5c-0.1,1.3-5.4,0.4-6.2,0.2C259.7,154.6,259.5,153.1,261,153.1z"/>
						<path fill="#F58C62" d="M260.9,155.3c0.3,0,4.5,0.1,4.7,1c0.2,0.8-3.3,0.9-4.8,0.7C259.3,156.8,260,155.4,260.9,155.3z"/>
						<path fill="#F58C62" d="M261.4,157.3c0,0,3.4-0.4,3.5,0.2c0.1,0.7-3.1,1.4-4.1,1C259.9,158,260.4,157.2,261.4,157.3z"/>
						<path fill="#F58C62" d="M261.7,158.9c0,0,2.9-0.4,3,0.2c0.1,0.6-2.7,1.2-3.5,0.9C260.4,159.6,260.8,158.9,261.7,158.9z"/>
					</g>
					<path fill="#F58C62" d="M273.1,163.3c0,0,2.5-2.2,2.4-4c-0.1-1.8-2.8-3-3.7-4.8c-1-1.8-0.9-3-0.9-3s-1.9,1.6-1.1,3.2
						c0.8,1.6,2,3.2,2,3.2s-2.9,1.7-2.1,4.8C270.6,165.7,273.1,163.3,273.1,163.3z"/>
				</g>
			</g>
			<path fill="#FFDA08" d="M296.1,190.8l-5.8,40.5c4.9,2.1,8.2,1.9,11,1l-0.8-29.3L296.1,190.8z"/>
			<g>
				<path fill="#FFDA08" d="M323.2,157.6c-13.7,0.1-24.3,8.8-24.3,8.8l4.3,9.3c0.1,0.2-10.3,8.9-10.3,8.9s5.3,19,6.4,26
					c2.1-8.2,4.1-16.4,7.2-24.3c3.1-7.9,7.1-15.5,12.8-21.7c1.6-1.8,3.4-3.5,4.2-5.8"/>
			</g>
			<path fill="#FFDA08" d="M304.6,182.5c0,0-4.8,13.9-5.3,27.5s-1.3,22.9-1.3,22.9l3.3-0.6l6.3-45.1L304.6,182.5z"/>
			<polygon fill="#FEA574" points="304,216.5 287,409.6 297.8,411.4 351.7,223 			"/>
			<path fill="#DBD7D7" d="M347.2,239.8l-16.4,63c0,0,0,0,0,0l-0.4,1.6l-3.3,12.7l-0.4,1.4l-3.8,14.5l-0.3,1.3l-4,15.3l-0.4,1.4
				l-4.6,17.7l-0.4,1.4l-3.2,12.2l-0.4,1.4l-2.8,10.9c-0.7-0.1-1.4-0.2-2.1-0.3c-2.5-0.9-5.2-1.4-7.9-1.7c-0.1,0-0.3-0.1-0.4-0.1
				c-0.3-0.1-0.5-0.1-0.8,0c-3.3-0.3-6.6-0.4-9.7-0.7c0.1-0.7,0.1-1.4,0.2-2.1c0-0.4,0-0.7,0-1.1c-0.6-45.8,5.1-96.9,9.8-130.7
				c2-14.8,3.9-26.2,5-32.4c0.6-3.4,0.9-5.2,0.9-5.2l6.1,3.1l9.2,4.6l0.7,0.3c0,0-0.3,1.9-0.7,5.3c-0.3,2.2-0.7,4.9-1.1,8.2l1.1-0.1
				L347.2,239.8z"/>
			<polygon fill="#FEA574" points="301.1,226.9 349.8,414.6 360.6,412.7 348.2,217.2 			"/>
			<g>
				<polygon fill="#EFEFEF" points="353.6,221 347.1,222 353.8,222.7 				"/>
				<path fill="#EFEFEF" d="M363,389.5l-0.1-1.4l-0.7-15.3l-0.1-1.4l-0.8-16.6l-0.1-1.5l-0.9-19.5l-0.1-1.5l-0.7-14.7l-0.1-1.5
					l-0.8-18.1l-0.1-1.5l-0.7-15.2l-0.1-1.5l-0.7-16.2l-0.1-1.4l-0.8-17l-0.1-1.6l-0.7-5.9c-3.6,0.7-8.4,1.5-14.4,2.1l11.5,154
					l-1,0.1l-17.5-153.7h0c-5.9,0.2-11.9-0.2-17-0.7v24.6l-7.9-2.3c0,0.2,0,0.3,0,0.5l0.1,0.6c7.8,46.8,18.4,92.5,34.1,136l0.3,1.3
					l0.4,1.7l19.2-1.3L363,389.5z"/>
				<path fill="#FC542D" d="M336.8,240.3c-0.9,0.1-1.7,0.1-2.6,0.1L351.6,394l1-0.1l-11.5-154c0,0,0,0,0,0
					C339.8,240,338.3,240.1,336.8,240.3z"/>
				<path fill="#EFEFEF" d="M303.3,237.8l0.5-7.8l-3.4-1.4c-1.1,6.6-2.7,16.8-4.4,29.4c0.8,0.4,1.8,0.8,2.9,1l6.4,1.9l1.2,0.4
					l2.7,0.8c0.2-5.8,2.9-14.9,5.5-22.5C308,238.7,303.3,237.8,303.3,237.8z"/>
				<path fill="#EFEFEF" d="M317.1,239.7c-0.8-0.1-1.6-0.2-2.4-0.3c-2.6,7.6-5.2,16.8-5.5,22.5l7.9,2.3V239.7z"/>
				<path fill="#DBD7D7" d="M334.2,240.4L334.2,240.4l-1-9l7.3-0.7l0.7,9.3c6-0.6,10.8-1.4,14.4-2.1l-1.8-15.2l-6.7-0.7l-27.6,4.2
					c0,0-1,2.5-2.4,6.4v7.2C322.3,240.2,328.3,240.6,334.2,240.4z"/>
				<path fill="#ED4224" d="M333.1,231.3l1,9c0.9,0,1.7-0.1,2.6-0.1c1.5-0.1,3-0.2,4.4-0.3c0,0,0,0,0,0l-0.7-9.3L333.1,231.3z"/>
				<path fill="#DBD7D7" d="M303.3,237.8c0,0,4.7,0.9,11.5,1.7c0.8-2.5,1.7-4.9,2.4-6.9v-10.8l-8.3,1.5l-0.9,0.2l-0.4,0.1l-6.2,1.1
					c-0.1,0.3-0.3,0.7-0.5,1c-0.2,0.9-0.3,1.9-0.5,3.1l3.4,1.4L303.3,237.8z"/>
				<path fill="#DBD7D7" d="M317.1,239.7v-7.2c-0.7,2-1.6,4.4-2.4,6.9C315.5,239.5,316.3,239.6,317.1,239.7z"/>
			</g>
			<g>
				<path fill="#FC542D" d="M297.4,414.9l-12.1-3.9c-1.5,0-16.8-0.4-18,1.3c-1.3,1.8,28,11.4,28,11.4L297.4,414.9z"/>
				<polygon fill="#FEFEFE" points="299,408.4 286.2,406.7 285.4,411.1 297.4,414.9 				"/>
			</g>
			<g>
				<path fill="#FC542D" d="M361.4,416.2l-12.7,0.4c-1.5,0.5-16,5.3-16.5,7.3c-0.6,2.2,30.2,1.3,30.2,1.3L361.4,416.2z"/>
				<polygon fill="#FEFEFE" points="360.7,409.5 348,412.2 348.7,416.6 361.4,416.2 				"/>
			</g>
			<path fill="#FEFEFE" d="M344.2,166.7c-2.7-1.3-5.4-2.6-8.1-3.8c-0.2-0.1-0.3-0.2-0.4-0.3c-0.3-0.1-0.7-0.2-1-0.2
				c-0.4-0.1-0.6-0.3-0.6-0.6c-0.8-0.1-1.5-0.2-2.3-0.2c-0.1,0-0.2,0-0.3,0c-0.7,0.1-1.2,0.1-1.2,0.1l-1.6-0.2
				c-5.9,0-11.5,1.3-11.5,1.3s-12.6,14.8-13.3,17.3c-2,4.6,1.8,8,1.8,8s-5.8,24.2-6.4,30.7c-0.1,1.2-0.2,2.1-0.2,2.8
				c0.3,0.5,0.6,1,0.9,1.5c2.9,4,8.2,4.9,12.8,5.3c7.7,0.6,15.5,0.4,23.2,0.8c6.3,0.3,12.7,0.3,16.6-4.7
				C350.1,203.3,346.5,176.2,344.2,166.7z"/>
			<path fill="#EDB200" d="M358.4,231l-12.8-60.1c-1.3-1.6-2.4-3.3-3.8-4.8l-8.9,3.1c-8.2-0.3-15.1,15.2-22.2,30.2
				c-3.1,3.8-5,31.4-4.6,32.1C308.6,235.2,360,234.6,358.4,231z"/>
			
				<rect x="339.5" y="392" transform="matrix(0.9987 -5.046121e-002 5.046121e-002 0.9987 -19.5882 18.2953)" fill="#E8DAE4" width="26.2" height="10.2"/>
			
				<rect x="283" y="389.3" transform="matrix(0.9854 0.1703 -0.1703 0.9854 71.4733 -44.6432)" fill="#EFEFEF" width="26.2" height="10.2"/>
			<path fill="#FEA574" d="M330.1,163.9c0.6-1,1.3-1.9,2.2-2.6l-1.7-0.2c-4.7,0-9,0.6-13.4,1.7C321,164.6,325.5,164.7,330.1,163.9z"
				/>
			<g>
				<g>
					<g>
						<polygon fill="#FEA574" points="330,161.5 328.7,161.7 321.8,162.4 321.8,159.6 321.9,156.8 322,150.4 327.9,146.7 
							329.5,157.8 						"/>
						<path fill="#FEA574" d="M329.8,155.2c-1.1,0.7-2.4,1.2-3.8,1.3c-5.5,0.6-7.8,0.5-8.9-1.4c-0.4-0.6-0.6-1.5-0.8-2.5
							c-0.2-1.1-0.4-2.5-0.5-4.2c-0.3-2.6,0.5-5.1,2.1-6.9h0c0.3-0.4,0.7-0.7,1-1.1c0,0,0,0,0,0c1.4-1.2,3.1-1.9,5-2.1
							c1.7-0.2,3.4,0.1,4.8,0.8c2.9,1.3,5,4,5.4,7.4C334.5,150,332.7,153.4,329.8,155.2z"/>
						<polyline fill="#FEA574" points="316,147 313.1,151.3 317,151.8 316,147.2 						"/>
						<path fill="#FEA574" d="M327,146.8c0.1,0,2.2-2.8,3.6,0c1.4,2.7-0.9,5.4-3.4,4.6"/>
						<path fill="#1B193B" d="M322.2,146.1c-0.1,0-0.1,0-0.2-0.1c-2.7-1.6-4.2-0.4-4.3-0.4c-0.2,0.1-0.4,0.1-0.5-0.1
							c-0.1-0.2-0.1-0.4,0-0.5c0.1-0.1,2-1.6,5.1,0.3c0.2,0.1,0.2,0.3,0.1,0.5C322.4,146,322.3,146.1,322.2,146.1z"/>
					</g>
				</g>
				<g>
					<path fill="#1B193B" d="M329.8,155.2c-0.1,0-0.2,0.1-0.2,0.1c-0.3-0.6-0.4-1.3-0.4-2c0-0.3,0-0.5,0.1-0.7
						c0.2-0.2,0.4-0.3,0.6-0.5c1-0.5,2-1.3,2.2-2.4c0.2-1.1-0.5-2.3-1.6-2.6c-1.1-0.3-2.4,0.3-2.8,1.3c-0.2,0.6-0.2,1.3-0.5,1.9
						c-0.3,0.6-1.2,0.9-1.6,0.4c0.3-1.8,0.7-3.6,1-5.5c0.1-0.2,0.1-0.5,0-0.7c-0.1-0.2-0.3-0.4-0.6-0.4c-0.8-0.3-1.6-0.4-2.4-0.4
						c-0.5,0-0.9,0.1-1.4,0c-0.5-0.1-0.9-0.4-0.9-0.9c0-0.3,0.1-0.7-0.1-0.9c-0.1-0.2-0.3-0.2-0.5-0.2c-1-0.1-1.9-0.2-2.9-0.2
						l0.3-0.1c-0.1,0-0.2,0-0.3,0h0c-0.1,0-0.2,0-0.3,0c0.4-0.4,0.9-0.8,1.3-1c0,0,0,0,0,0c2.6-1.5,6.3-1.5,9.8-1.4
						c2.9,1.3,5,4,5.4,7.4C334.5,150,332.7,153.4,329.8,155.2z"/>
				</g>
				<path fill="#F05E4A" d="M317.6,154c-0.5,0-0.9-0.1-1.3-0.3c-0.2-0.1-0.3-0.3-0.2-0.5c0.1-0.2,0.3-0.3,0.5-0.2
					c0.7,0.3,1.4,0.3,2.4-0.1c0.2-0.1,0.4,0,0.5,0.2c0.1,0.2,0,0.4-0.2,0.5C318.7,153.8,318.2,154,317.6,154z"/>
				<path fill="#1B193B" d="M318.6,147.2C318.6,147.2,318.6,147.2,318.6,147.2c-1,0-1,1.5,0,1.5c0,0,0,0,0,0
					C319.6,148.7,319.6,147.2,318.6,147.2L318.6,147.2z"/>
				<path fill="#F05E4A" d="M329.9,150.8c-0.1,0-0.3-0.1-0.3-0.2c-0.1-0.2,0-0.4,0.2-0.5c0.1-0.1,0.9-0.5,0.5-1.3
					c-0.1-0.2-0.2-0.3-0.3-0.3c-0.3-0.1-0.7,0.3-0.9,0.5c-0.1,0.1-0.4,0.2-0.5,0c-0.1-0.1-0.2-0.4,0-0.5c0.1-0.1,0.8-0.8,1.6-0.7
					c0.3,0,0.6,0.2,0.9,0.8c0.5,1.3-0.4,2.1-0.9,2.3C330,150.8,329.9,150.8,329.9,150.8z"/>
				<path fill="#1B193B" d="M321.5,148.3C321.5,148.3,321.5,148.3,321.5,148.3l-4.1-0.6c-0.2,0-0.3-0.2-0.3-0.4
					c0-0.2,0.2-0.3,0.4-0.3l4,0.6c0.2,0,0.3,0.2,0.3,0.4C321.9,148.1,321.7,148.3,321.5,148.3z"/>
				<g>
					<path fill="#1B193B" d="M330.1,145.6c-2.2,1-4.8,1.1-7.1,0.3c0.2,0.3,0.3,0.7,0.4,1.2c-2.1-0.5-4-1.8-5.2-3.5
						c-0.1-0.2-0.4-0.4-0.6-0.3c-0.1,0.1-0.1,0.2,0,0.4c0.2,0.6,0.3,1.3,0.5,1.9c-1.8-1-3-3.1-3-5.2c0-0.7,0.1-1.3,0.5-1.9
						c0.5-0.8,1.5-1.2,2.5-1.4c1.5-0.4,3.1-0.4,4.7-0.4c2,0,4-0.1,6.1-0.1c1.7,0,6.6,1.3,7.9,6.3c0,0,1.1,6.7,0.8,8.6
						c-0.6,3.1-11.1,6.2-11.4,5.4l3.3-4.2l2.5-1.1l1.7-1.8l-0.8-3L330.1,145.6z"/>
				</g>
			</g>
			<g>
				<path fill="#FFDA08" d="M323.1,177.7l4,8.2l-19.4,25.5c0,0,5.9-33.5,17.7-42.7c6.5-7.4,4.7-7.1,4.7-7.1l-0.5-3.7
					c8.6,0.1,10.9,7.4,10.9,7.4L323.1,177.7z"/>
			</g>
			<g>
				<path fill="#FEA574" d="M359.6,213l-44.2-7.9l-1.9,5.8c0,0,39.6,22.4,52.3,18.1C369.1,225.3,359.6,213,359.6,213z"/>
				<path fill="#FFDA08" d="M337.2,164.5c-9,2.9-6.5,10.6-4.8,20.2c0.1,1,0.4,2.1,0.8,3.3c0.4,1.4,1,2.8,1.7,4.2
					c2.8,6,7.3,12.8,11,18c-10.6-1.9-23.5-3.7-23.5-3.7l-1.7,13.3c0,0,34.9,13.7,45.3,10.1c2.1-1.6,2.2-4.2,2.3-5.2
					C369.3,215.7,350.5,159.8,337.2,164.5z"/>
			</g>
			<g display="none">
				<path display="inline" fill="#FEA574" d="M316.4,205.9c-0.3-0.3-7.1-6.5-8.4-5.9s-0.1,2.1-0.1,2.1s-1.5,0-1.8,0.8
					c-0.3,0.8,1.6,2,1.6,2s-1.9-0.4-1.6,0.4c0.3,0.9,1.7,2.1,1.7,2.1s-1.6-1.2-1.6,0c0,1.2,5.8,5.5,6.8,5c1-0.4,3-2.9,3-2.9
					L316.4,205.9z"/>
				<g display="inline">
					<path fill="#FEA574" d="M316.6,206.5c-0.2-0.1-1.4-4.3-1.4-4.3s0-1.3-2.1-2.8c-2.1-1.5-5.2-1.5-6-2.1c-0.8-0.5-0.8,1.7,2,2.8
						c2.8,1,2.3,4.1,2.3,4.1L316.6,206.5z"/>
				</g>
			</g>
			<g>
				<path fill="#FEA574" d="M316.6,207c0,0-4.3-6.1-4.9-6.5c-0.6-0.4-1.3-0.6-2.5-0.2c-1.2,0.3-5.8,2.9-7,2.8
					c-1.2-0.1-0.2,1.2,2.7,0.7c2.8-0.4,4.5-2,5.2-1.2c0.1,0.2-4.4,2.3-4.1,3.1c0.3,0.7,1.4,2.9,3.2,2.6s1.9-1.2,1.9-1.2
					s-0.7,1.6-0.1,2.8c0.7,1.2,3.2,1.3,3.2,1.3L316.6,207z"/>
				<path fill="#FEA574" d="M310.4,205.4c0,0-3,2.7-2.6,3.5c0.4,0.8,1.6,2.2,2.5,2c0.9-0.2-0.1-1.2-0.1-1.2l-0.9-0.8l2.4-2.1
					L310.4,205.4z"/>
				<path fill="#F05E4A" d="M308.5,208.2c1-0.7,2-1.3,3-2c0.5-0.4,0-1.2-0.5-0.9c-1,0.7-2,1.3-3,2
					C307.4,207.7,307.9,208.6,308.5,208.2L308.5,208.2z"/>
				<path fill="#F05E4A" d="M307.3,206.4c1.1-0.7,2.2-1.3,3.2-2c0.5-0.3,0-1.2-0.5-0.9c-1.1,0.7-2.2,1.3-3.2,2
					C306.3,205.9,306.8,206.7,307.3,206.4L307.3,206.4z"/>
			</g>
			<path fill="#EDB200" d="M323,177.6l17-11.7c0.2-0.2,0.5-0.1,0.7,0.1c0.2,0.2,0.1,0.5-0.1,0.7c0,0,0,0,0,0l-17.4,11.1
				c-0.1,0.1-0.2,0-0.2-0.1C322.9,177.7,322.9,177.6,323,177.6z"/>
			<path fill="#EDB200" d="M328.3,226C328.3,226,328.3,226,328.3,226c-0.3,0-0.5-0.3-0.5-0.6l2.3-19.2c0-0.3,0.3-0.5,0.6-0.4
				c0.3,0,0.5,0.3,0.4,0.6l-2.3,19.2C328.8,225.8,328.6,226,328.3,226z"/>
			<path fill="#EDB200" d="M339.8,167.2c1.5,2.1,2.7,4.2,4,6.3c1.2,2.1,2.4,4.3,3.4,6.5c2.2,4.4,4,8.9,5.7,13.5
				c1.6,4.6,3.1,9.2,4.4,13.9c1.3,4.7,2.5,9.4,3.4,14.2l0,0c0,0.3-0.1,0.5-0.4,0.6c-0.1,0-0.1,0-0.2,0l-30.3-7.2
				c-0.3-0.1-0.4-0.3-0.4-0.6c0.1-0.3,0.3-0.4,0.6-0.4l30.3,7.2l-0.6,0.6l0,0c-1.1-4.7-2.5-9.3-4-13.9c-1.5-4.6-3.2-9.1-5-13.6
				c-1.8-4.4-3.9-8.8-6.2-13c-1.1-2.1-2.4-4.2-3.6-6.2c-1.3-2-2.6-4-4-5.8l0,0c-0.6-0.8-0.5-1.9,0.3-2.5S339.1,166.4,339.8,167.2
				C339.7,167.2,339.8,167.2,339.8,167.2z"/>
			<path fill="#F58C62" d="M325.2,156.7l-3.4,2.9l0.1-2.8C322.3,156.8,325.2,156.7,325.2,156.7z"/>
		</g>
		<g>
			<g>
				<path fill="#DBD7D7" d="M369.8,425c0-0.3,0-0.5,0-0.8l0.1-0.4c0-0.2,0.1-0.5,0.1-0.7l0.3-1.3l0.6-2.6l1.3-5.2l2.8-10.4l5.6-20.7
					l11.4-41.4l0,0l0.1-0.2c0.6-1.7,2.5-2.7,4.2-2.1c1.1,0.4,1.9,1.3,2.2,2.3l20.6,81.6c0.1,0.5-0.2,1.1-0.7,1.2
					c-0.5,0.1-1-0.2-1.2-0.7L392,343.3l6.4,0.1l0,0l-13.6,40.7l-6.7,20.4l-3.3,10.2l-1.6,5.1l-0.8,2.6l-0.4,1.3
					c-0.1,0.2-0.1,0.4-0.2,0.6l-0.1,0.3c0,0,0-0.1-0.1-0.1c0.2,0.5-0.1,1.1-0.6,1.3C370.5,425.8,369.9,425.5,369.8,425z"/>
				<path fill="#DBD7D7" d="M370.7,387c3.9-0.8,7.8-1.2,11.7-1.4c3.9-0.3,7.8-0.4,11.7-0.3c3.9,0,7.8,0.1,11.7,0.4
					c3.9,0.3,7.8,0.6,11.7,1.3c0,0,0,0,0,0c0,0,0,0,0,0c-3.9,0.7-7.8,1.1-11.7,1.3c-3.9,0.3-7.8,0.4-11.7,0.4
					c-3.9,0-7.8-0.1-11.7-0.3C378.5,388.2,374.6,387.8,370.7,387z"/>
			</g>
			<g>
				<polygon fill="#66393B" points="430.8,386.2 428.9,412.5 437.4,415.9 442.6,389.1 				"/>
				<path fill="#1B193B" d="M428.1,409l-0.8,15.3c0,0,29.9-1,29.2-3c-0.6-2-15-5.8-16.5-6.1l0.4-4.3L428.1,409z"/>
				<path fill="#ED4224" d="M427.2,400.1c1.7,0,16.6,1.7,16.6,1.7s10-59.8,10.8-65.2c0.8-5.4,3.3-22.8-17-23.7
					c-20.4-0.8-64-6.2-64-6.2s-5,25.8,22.8,30.7c27.8,5,32.8,4.2,32.8,4.2L427.2,400.1z"/>
				<path fill="#ED4224" d="M447.8,319.2c-2.8,0.5-25.2,13.3-56.2,17.1c1.5,0.5,3.1,0.9,4.9,1.2c27.8,5,32.8,4.2,32.8,4.2l-2.1,58.6
					c1.7,0,16.6,1.7,16.6,1.7s10-59.8,10.8-65.2c0.5-3.3,1.7-11.3-2.4-17.1C450.9,319,449.5,318.9,447.8,319.2z"/>
			</g>
			<path fill="#FFDA08" d="M419.8,343.5h-48.5c-2.8,0-5-2.2-5-5v-0.8c0-2.8,2.2-5,5-5h48.5c2.8,0,5,2.2,5,5v0.8
				C424.8,341.3,422.5,343.5,419.8,343.5z"/>
			<g>
				<path fill="#1B193B" d="M445,236.3c-1.2-0.8-35.5-16.2-41-16.2c-5.5,0,0.2,21.1,0.2,21.1s35.6,12.4,39,10.7
					C455.7,248.5,449.6,239.2,445,236.3z"/>
				<g>
					<path fill="#66393B" d="M436.3,236.7c1.5-1.2,3-2.5,4.5-3.7l-31.1-21.3l-3.3,5.5l24.9,23.3
						C432.9,239.1,434.6,237.9,436.3,236.7z"/>
					<path fill="#1B193B" d="M418.4,215c-2,1.6-6.2,4.3-8.3,5.7l23.1,21.6c6.9,1.5,16.5,0,14.8-3.2C446.4,236.1,418.4,215,418.4,215
						z"/>
					<g>
						<g>
							<path fill="#1B193B" d="M405.2,216.1l-8.6-3c-1-0.4-1.5-1.5-1.1-2.5l2.2-4.8c0.4-0.9,1.5-1.3,2.4-1l9.5,3.6
								c1,0.4,1.5,1.6,1,2.6l-2.2,4.5c-0.4,0.8-1.3,1.2-2.2,1l-1-0.3C405.3,216.1,405.3,216.1,405.2,216.1z"/>
							<polygon fill="#FEFEFE" points="407.6,215.1 396.4,211.8 399,205.3 410.2,209.6 							"/>
						</g>
						<path fill="#66393B" d="M401.8,205c-0.1,0.2-1.3,5.5-0.1,5.8c1.3,0.3,1.8-5,1.8-5.8C403.5,204.2,402.1,203.5,401.8,205z"/>
						<path fill="#66393B" d="M403.8,205.4c-0.1,0.2-1,4.2-0.3,4.6c0.7,0.4,1.7-2.9,1.9-4.3C405.6,204.3,404.2,204.6,403.8,205.4z"
							/>
						<path fill="#66393B" d="M405.5,206.4c0,0-1.3,3.1-0.7,3.4c0.6,0.3,2.2-2.6,2-3.6C406.7,205.2,405.8,205.5,405.5,206.4z"/>
						<path fill="#66393B" d="M407,207.1c0,0-1.1,2.6-0.6,2.8c0.5,0.2,1.8-2.2,1.7-3C408,206.1,407.2,206.3,407,207.1z"/>
					</g>
					<path fill="#66393B" d="M407.5,217.8c0,0-2.4,1.6-3.9,1c-1.4-0.5-1.9-2.9-3.1-4.1c-1.3-1.2-2.2-1.4-2.2-1.4s1.7-1.2,2.9-0.2
						c1.1,1,2.2,2.4,2.2,2.4s2.1-2,4.4-0.6C410.1,216.2,407.5,217.8,407.5,217.8z"/>
				</g>
				<g>
					<path fill="#FEFEFE" d="M374.9,231.4l0-5.4c0,0,0,0,0,0c-0.7,1.6-1.4,3.4-1.9,5.3C373.6,231.4,374.3,231.4,374.9,231.4
						L374.9,231.4z"/>
					<path fill="#FEFEFE" d="M413.3,232.2L413.3,232.2c-0.5-1.9-1-3.7-1.6-5.3c-2.9-4.5-6.4-8.1-13.1-8.8c-3.7-0.4-7.5,0-11,1
						l1,12.6C396.8,231.8,405,232,413.3,232.2z"/>
					<path fill="#FEFEFE" d="M374.9,253.5L374.9,253.5l-5.1,0c0,0,0,0,0,0c0,0.3,0,0.6-0.1,0.9c0,0.7-0.1,1.5-0.1,2.3
						c-0.1,1.5-0.1,3.1-0.2,4.7c1.8,0,3.6,0,5.4,0L374.9,253.5z"/>
					<path fill="#FEFEFE" d="M374.9,242.4L374.9,242.4c-1.3-0.1-2.7-0.2-4-0.3c0,0,0,0,0,0c-0.1,0.7-0.2,1.4-0.3,2.1
						c-0.3,2.3-0.5,4.7-0.7,7.2h4.9L374.9,242.4z"/>
					<path fill="#FEFEFE" d="M374.9,233.5c-0.8,0-1.7,0-2.5,0c0,0,0,0,0,0c-0.1,0.4-0.2,0.9-0.3,1.3c-0.4,1.7-0.7,3.4-1,5.3
						c1.3,0.1,2.5,0.2,3.8,0.2L374.9,233.5z"/>
					<path fill="#FEFEFE" d="M389.3,241.2c8.6,0.5,17.3,0.8,26,1.1c0,0,0,0,0,0c-0.4-2.3-0.7-4.5-1.2-6.6c-0.1-0.5-0.2-1-0.3-1.4
						c-8.4-0.2-16.7-0.4-25.1-0.6L389.3,241.2z"/>
					<path fill="#FEFEFE" d="M391.1,263.3l0.8,9.9c8.7-0.1,17.4-0.1,26.2-0.1l0,0c-0.1-2-0.2-4-0.4-6c0-0.8-0.1-1.5-0.1-2.3
						c0-0.6-0.1-1.1-0.1-1.7v0C408.6,263.1,399.8,263.2,391.1,263.3L391.1,263.3z"/>
					<path fill="#FEFEFE" d="M392,275.3l0.5,5.8l0,0c8.7-0.1,17.3-0.2,26-0.2c0,0,0,0,0,0c0-0.2,0-0.5,0-0.7c0-0.8-0.1-1.5-0.1-2.2
						c-0.1-0.9-0.1-1.9-0.1-2.8C409.4,275.1,400.7,275.2,392,275.3L392,275.3z"/>
					<path fill="#FEFEFE" d="M390.3,253.5L390.3,253.5l0.6,7.7l0,0c8.8-0.1,17.6-0.1,26.3-0.2c-0.1-1.5-0.2-3-0.4-4.5
						c-0.1-0.8-0.1-1.5-0.2-2.3c0-0.3-0.1-0.6-0.1-0.9c-6.6,0-13.2,0.1-19.8,0.1H390.3z"/>
					<path fill="#FEFEFE" d="M389.5,243.3l0.6,8.1h6.7c6.5,0,13.1-0.2,19.6-0.1c0,0,0,0,0,0c-0.2-1.6-0.3-3.1-0.5-4.6
						c-0.1-0.8-0.2-1.5-0.3-2.3c0,0,0,0,0-0.1C406.8,244.1,398.1,243.7,389.5,243.3L389.5,243.3z"/>
					<path fill="#FEFEFE" d="M374.7,281.3l0-6v0c-1.9,0-3.8,0-5.7,0c0,0,0,0,0,0c0,0.9,0,1.9,0,2.8c0,0.8,0,1.5,0,2.3
						c0,0.3,0,0.7,0,1C370.9,281.4,372.8,281.4,374.7,281.3L374.7,281.3z"/>
					<path fill="#FEFEFE" d="M418.9,288.6c0-0.8-0.1-1.5-0.1-2.3c-0.1-1.2-0.1-2.3-0.2-3.5c-8.6,0-17.3,0.1-25.9,0.2l0,0.2l11.3,7.3
						l-1.2,4.4h16.4C419.1,292.9,419,290.8,418.9,288.6z"/>
					<path fill="#FEFEFE" d="M374.7,283.4c-1.9,0-3.9,0.1-5.8,0.1c0,0,0,0,0,0c0,1.2,0,2.3-0.1,3.5c0,0.8,0,1.5,0,2.3
						c-0.1,2-0.1,3.9-0.2,5.8h6.2l-0.2,0L374.7,283.4z"/>
					<path fill="#FEFEFE" d="M374.8,263.3L374.8,263.3c-1.8,0-3.6,0-5.5,0c0,0,0,0,0,0c0,0.6,0,1.2,0,1.7c0,0.8,0,1.5-0.1,2.3
						c-0.1,2-0.1,4-0.1,6c1.9,0,3.8,0,5.7,0L374.8,263.3z"/>
					<path fill="#FE6B75" d="M369,281.4C368.9,281.4,368.9,281.4,369,281.4c-0.1,0.7-0.1,1.4-0.1,2.1c0,0,0.1,0,0.1,0
						C369,282.8,369,282.1,369,281.4L369,281.4z"/>
					<path fill="#FE6B75" d="M418.6,282.9c0.1,0,0.2,0,0.3,0c0-0.7-0.1-1.4-0.1-2.1c-0.1,0-0.2,0-0.3,0
						C418.5,281.5,418.5,282.2,418.6,282.9C418.5,282.9,418.5,282.9,418.6,282.9z"/>
					<path fill="#FE6B75" d="M392.6,283.1L392.6,283.1c8.6-0.1,17.3-0.2,25.9-0.2c0,0,0,0,0,0c0-0.7-0.1-1.4-0.1-2.1
						c-8.7,0-17.3,0.1-26,0.2L392.6,283.1z"/>
					<path fill="#FE6B75" d="M374.7,283.4l0-2.1c-1.9,0-3.8,0.1-5.8,0.1v0c0,0.7,0,1.4,0,2.1C370.9,283.5,372.8,283.5,374.7,283.4
						L374.7,283.4z"/>
					<path fill="#FE6B75" d="M369.1,273.3C369.1,273.3,369.1,273.3,369.1,273.3c-0.1,0.7-0.1,1.4-0.1,2.1c0,0,0.1,0,0.1,0
						C369.1,274.7,369.1,274,369.1,273.3L369.1,273.3z"/>
					<path fill="#FE6B75" d="M418.1,275.1c0.1,0,0.2,0,0.3,0c0-0.7-0.1-1.4-0.1-2.1c-0.1,0-0.2,0-0.3,0
						C418.1,273.7,418.1,274.4,418.1,275.1L418.1,275.1z"/>
					<path fill="#FE6B75" d="M391.9,273.2l0.2,2.1c8.7-0.1,17.4-0.1,26.1-0.2v0c0-0.7-0.1-1.4-0.1-2.1
						C409.3,273.1,400.6,273.1,391.9,273.2L391.9,273.2z"/>
					<path fill="#FE6B75" d="M374.8,273.3L374.8,273.3c-1.9,0-3.8,0-5.7,0v0c0,0.7,0,1.4,0,2.1c1.9,0,3.8,0,5.7,0L374.8,273.3z"/>
					<path fill="#FE6B75" d="M417.4,263.1c0.1,0,0.2,0,0.3,0c0-0.7-0.1-1.4-0.1-2.1c-0.1,0-0.2,0-0.3,0v0
						C417.3,261.7,417.3,262.4,417.4,263.1z"/>
					<path fill="#FE6B75" d="M369.4,261.3c0,0-0.1,0-0.1,0c0,0.7,0,1.4-0.1,2.1c0,0,0.1,0,0.1,0C369.4,262.7,369.4,262,369.4,261.3
						C369.4,261.3,369.4,261.3,369.4,261.3z"/>
					<path fill="#FE6B75" d="M391.1,263.3c8.8-0.1,17.6-0.1,26.3-0.2c-0.1-0.7-0.1-1.4-0.2-2.1v0c-8.8,0.1-17.6,0.1-26.3,0.2
						L391.1,263.3z"/>
					<path fill="#FE6B75" d="M374.8,261.3L374.8,261.3c-1.8,0-3.6,0-5.4,0c0,0,0,0,0,0c0,0.7,0,1.4-0.1,2.1c1.8,0,3.6,0,5.5,0
						L374.8,261.3z"/>
					<path fill="#FE6B75" d="M416.6,253.4c0.1,0,0.2,0,0.3,0c-0.1-0.7-0.1-1.4-0.2-2.1c-0.1,0-0.2,0-0.3,0
						C416.5,252,416.5,252.7,416.6,253.4C416.6,253.4,416.6,253.4,416.6,253.4z"/>
					<path fill="#FE6B75" d="M369.9,251.4h-0.2c-0.1,0.7-0.1,1.4-0.1,2.1h0.2C369.8,252.8,369.9,252.1,369.9,251.4
						C369.9,251.4,369.9,251.4,369.9,251.4z"/>
					<path fill="#FE6B75" d="M390.1,251.4L390.1,251.4l0.2,2.1h6.5c6.6,0,13.2-0.2,19.8-0.1c0,0,0,0,0,0c-0.1-0.7-0.1-1.4-0.2-2.1
						c-6.5,0-13.1,0.1-19.6,0.1H390.1z"/>
					<path fill="#FE6B75" d="M374.9,251.4L374.9,251.4l-4.9,0c0,0,0,0,0,0c-0.1,0.7-0.1,1.4-0.1,2.1h5.1V251.4z"/>
					<path fill="#FE6B75" d="M371.1,240.1C371.1,240.1,371.1,240.1,371.1,240.1c-0.1,0-0.2,0-0.3,0c-0.1,0.7-0.2,1.4-0.3,2
						c0.1,0,0.2,0,0.3,0c0,0,0-0.1,0-0.1C371,241.4,371,240.7,371.1,240.1z"/>
					<path fill="#FE6B75" d="M415.5,244.4c0.1,0,0.2,0,0.3,0c-0.1-0.7-0.2-1.4-0.3-2.1c-0.1,0-0.2,0-0.3,0
						C415.3,243,415.4,243.7,415.5,244.4C415.5,244.4,415.5,244.4,415.5,244.4z"/>
					<path fill="#FE6B75" d="M374.9,240.3L374.9,240.3c-1.3-0.1-2.5-0.2-3.8-0.3c0,0,0,0,0,0c-0.1,0.6-0.2,1.3-0.3,1.9
						c0,0,0,0.1,0,0.1c1.3,0.1,2.7,0.2,4,0.3L374.9,240.3z"/>
					<path fill="#FE6B75" d="M389.3,241.2l0.2,2.1c8.7,0.5,17.4,0.8,26.1,1.1c0,0,0,0,0,0c-0.1-0.7-0.2-1.4-0.3-2.1
						C406.6,242,397.9,241.7,389.3,241.2L389.3,241.2z"/>
					<path fill="#FE6B75" d="M413.8,234.3L413.8,234.3c0.1,0,0.2,0,0.3,0c-0.2-0.7-0.3-1.4-0.5-2.1c-0.1,0-0.2,0-0.3,0
						c0.1,0.4,0.2,0.8,0.3,1.3C413.6,233.8,413.7,234,413.8,234.3z"/>
					<path fill="#FE6B75" d="M373,231.4C373,231.4,373,231.4,373,231.4c-0.1,0-0.2,0-0.3,0c-0.2,0.7-0.4,1.4-0.5,2.1
						c0.1,0,0.2,0,0.3,0c0.1-0.3,0.1-0.6,0.2-0.9C372.8,232.1,372.9,231.8,373,231.4z"/>
					<path fill="#FE6B75" d="M374.9,233.5l0-2.1c-0.6,0-1.3,0-1.9,0c0,0,0,0,0,0c-0.1,0.4-0.2,0.8-0.3,1.2c-0.1,0.3-0.2,0.6-0.2,0.9
						C373.3,233.4,374.1,233.5,374.9,233.5L374.9,233.5z"/>
					<path fill="#FE6B75" d="M388.5,231.7l0.2,2.1l0,0c8.4,0.2,16.7,0.3,25.1,0.6v0c-0.1-0.3-0.1-0.6-0.2-0.8
						c-0.1-0.4-0.2-0.8-0.3-1.3C405,232,396.8,231.8,388.5,231.7L388.5,231.7z"/>
					<polygon fill="#EFEFEF" points="401,301.3 402.8,295 374.8,295 					"/>
					<path fill="#EFEFEF" d="M389.5,243.3L389.5,243.3c-4.9-0.3-9.7-0.6-14.6-0.9l0,0l0,9h15.2L389.5,243.3z"/>
					<path fill="#EFEFEF" d="M390.9,261.2l-0.6-7.7l0,0h-15.4v0l0,7.8C380.2,261.2,385.5,261.2,390.9,261.2L390.9,261.2z"/>
					<path fill="#EFEFEF" d="M388.7,233.8c-4.6-0.1-9.2-0.2-13.8-0.3l0,6.8c4.8,0.3,9.6,0.6,14.4,0.9L388.7,233.8z"/>
					<path fill="#EFEFEF" d="M391.1,263.3L391.1,263.3c-5.4,0-10.8,0-16.3,0.1v0l0,9.9c5.7,0,11.4-0.1,17.1-0.1L391.1,263.3z"/>
					<path fill="#EFEFEF" d="M392.7,283.3l0-0.2c-6,0.1-12,0.2-17.9,0.3l0,11.6l0.2,0h27.9l1.2-4.4L392.7,283.3z"/>
					<path fill="#EFEFEF" d="M374.9,231.4c4.5,0.1,9,0.2,13.6,0.3l-1-12.6c-4.6,1.3-8.9,3.7-12.5,6.9L374.9,231.4L374.9,231.4z"/>
					<path fill="#EFEFEF" d="M392.5,281l-0.5-5.8l0,0c-5.8,0-11.5,0.1-17.3,0.1v0l0,6l0,0C380.6,281.2,386.6,281.1,392.5,281
						L392.5,281z"/>
					<path fill="#FE3D4A" d="M392.5,281.1c-5.9,0.1-11.8,0.2-17.8,0.3l0,2.1l0,0c6-0.1,12-0.2,17.9-0.3l0,0L392.5,281.1z"/>
					<path fill="#FE3D4A" d="M391.9,273.2L391.9,273.2c-5.7,0-11.4,0.1-17.1,0.1v0l0,2.1c5.8,0,11.5-0.1,17.3-0.1L391.9,273.2z"/>
					<path fill="#FE3D4A" d="M390.9,261.2c-5.4,0-10.7,0.1-16.1,0.1l0,0l0,2.1c5.4,0,10.8,0,16.3-0.1L390.9,261.2z"/>
					<polygon fill="#FE3D4A" points="390.1,251.4 390.1,251.4 374.9,251.4 374.9,251.4 374.9,253.5 390.3,253.5 					"/>
					<path fill="#FE3D4A" d="M389.3,241.2L389.3,241.2c-4.8-0.3-9.6-0.6-14.4-0.9l0,0l0,2.1c4.9,0.3,9.7,0.6,14.6,0.9L389.3,241.2z"
						/>
					<path fill="#FE3D4A" d="M388.7,233.8l-0.2-2.1l0,0c-4.5-0.1-9-0.2-13.6-0.3l0,2.1v0C379.5,233.6,384.1,233.7,388.7,233.8
						L388.7,233.8z"/>
				</g>
				<g>
					<polygon fill="#784346" points="457.9,362.1 462.7,387.8 471.8,388.9 470,361.9 					"/>
					<path fill="#23204D" d="M460.1,382.9l1.6,15.2c0,0,29.4-5.5,28.4-7.5c-0.9-1.8-15.7-3.4-17.2-3.6l-0.2-4.3L460.1,382.9z"/>
				</g>
				<path fill="#784346" d="M395.4,226.8c-5.9,0-7.4-5-7.7-7.8c3-0.8,6.2-1.1,9.4-1c0.5,0,1,0.1,1.5,0.1c0.7,0.1,1.4,0.2,2.1,0.3
					c0.3,0.1,0.5,0.1,0.8,0.2C401.8,222,401.3,226.8,395.4,226.8z"/>
				<polyline fill="#784346" points="389.9,206 389.4,220.6 397.5,220.6 396,209 				"/>
				<path fill="#1B193B" d="M418,236.3c-2-6.7-7.3-15.5-16.6-17.8c10.8,14.5,11.7,45.2,9.3,81.2c0.1,1.3,0.2,2.1,0.2,2.1
					c0.5,0,18.4-2.8,18.4-2.8S420,243.1,418,236.3z"/>
				<g>
					<path fill="#784346" d="M401.6,213.7c-0.2,0.7-0.6,1.2-1,1.6c-1.3,1.2-3.5,1.1-8.3,0.2c-4.8-0.9-8-5.6-7.1-10.5
						c0.9-4.9,5.6-8,10.5-7.1c4.9,0.9,8,5.6,7.1,10.5C402.4,210.8,402.1,212.5,401.6,213.7z"/>
					<polygon fill="#784346" points="403.5,213.5 399.8,212.8 400.9,208.9 402.8,208.7 					"/>
					<path fill="#784346" d="M392.1,206c-0.1,0-1.9-2.8-3.5-0.3c-1.6,2.5,0.4,5.3,3,4.8"/>
					<path fill="#1B193B" d="M396.7,206.5c-0.1,0-0.3,0-0.4-0.1c-0.2-0.2-0.2-0.5,0-0.7c2-2.1,5.4-0.5,5.5-0.5
						c0.3,0.1,0.4,0.4,0.2,0.7c-0.1,0.2-0.4,0.4-0.7,0.2c0,0-2.8-1.3-4.4,0.3C397,206.5,396.9,206.5,396.7,206.5z"/>
				</g>
				<g>
					<g>
						<path fill="#784346" d="M410.2,286.9c2.8-1.2,5.7-2.3,8.6-3.2c1.7,3.1,3.3,6.3,5,9.4c-2.2-0.1-4.5-0.2-6.7-0.1
							c0-0.7-0.7-1.2-1.3-1.3c-0.6-0.1-1.3,0-1.9,0.1c-1.7,0.2-3.4-0.1-4.9-1"/>
					</g>
					<path fill="#784346" d="M417,286.4c0.4-0.1,5.3-2.4,5.3-2.4l6.3,7.5c0,0-1.8,0.6-2.8-0.6s-3.8-4.3-3.8-4.3l-3.1,2L417,286.4z"
						/>
				</g>
				<g>
					<path fill="#62C7D3" d="M417.6,293.5l18.3-29c0,0,0.1-0.9,2.8-0.9s37.1,0,37.1,0l1.6,1L431,293.5H417.6z"/>
					<path fill="#4150D9" d="M419.3,293c0.7-0.7,17-28.3,18-28.3s40,0,40,0l-17,27.7C460.3,292.3,418.5,293.8,419.3,293z"/>
					<polygon fill="#4150D9" points="399.1,293 399,294.9 419.2,295 419.3,293 					"/>
					<polygon fill="#2D3AAD" points="460.3,292.3 460.1,293.9 419.2,295 419.3,293 					"/>
					
						<ellipse transform="matrix(0.9588 -0.2842 0.2842 0.9588 -61.0316 139.6787)" fill="#2D3AAD" cx="450.8" cy="280.1" rx="3.6" ry="3.2"/>
				</g>
				<path fill="#FC542D" d="M472.9,375.2l-13.3-0.4l-12.5-55.3c0,0-47.8,21.6-69.8,15.4c-13.2-3.7-15.6-18.5-15.5-29.7
					c0.1-7.5,1.4-13.5,1.4-13.5s19.7,2.4,41.3,2.4c0,0,0,0,0,0c10.6,0,21.6-0.6,31-2.4c28.7-5.4,37.4,9.5,37,18.3
					C472.1,318.7,472.9,375.2,472.9,375.2z"/>
				<path fill="#ED4224" d="M404,294.3c-7,0-16.3,3-16.3,3l0.3,11.3l-26.1-3.5c0.1-7.5,1.4-13.5,1.4-13.5s19.7,2.4,41.3,2.4
					c0,0,0,0,0,0C404.8,294.3,404.6,294.3,404,294.3z"/>
				<path fill="#1B193B" d="M370.9,229.3c-7.4,16.9-10.3,71.5-10.3,71.5l24.5,2.4c3-29.6,4-57.8,2.4-84.1
					C381.2,220.7,375.3,224.3,370.9,229.3z"/>
				<path fill="#784346" d="M412.4,291.8c0,0-39-2.4-46-7.2c-7.1-4.8,0-15.2,10.6-11.4c10.6,3.7,33.6,13.3,33.6,13.3L412.4,291.8z"
					/>
				<path fill="#23204D" d="M380.9,274.7l2.5-41.7c-3.7-6.1-7.9-7.2-12.4-3.7c-3.8,8.9-10.8,39.2-10.8,41.9c0,2.7-2.3,11.2,6.2,13.5
					c5.3,3.6,39.8,9.2,39.8,9.2s0.2-6.8,0.5-9C400.7,282.5,389.1,277.8,380.9,274.7z"/>
				<g>
					<path fill="#1B193B" d="M389.7,214.5c0.6-1.1,1.2-2.1,1.8-3.2c-1.2-0.5-2.3-1.3-2.9-2.5c-0.5-1.2-0.3-2.8,0.8-3.5
						c0.7-0.5,1.7-0.6,2.3,0c0.4,0.4,0.5,0.9,0.6,1.4c0.1,0.7,0.2,1.4,0.3,2.1c0.9,0,1.8,0,2.6-0.2c-0.3-1.5-0.6-3-1-4.6
						c0.9-0.2,1.9-0.4,2.8-0.5c0.2-1.1,0.4-2.2,0.7-3.3c0.8,0.1,1.6,0.3,2.4,0.6c0.3,0.1,0.6,0.3,0.9,0.3c0.3,0,0.6-0.1,0.9-0.2
						c1.6-0.6,3.1-1.4,4.5-2.3c-1.1,0.1-2.3,0.2-3.4,0.4c0.9-0.6,1.7-1.2,2.6-1.8c-1.3,0.2-2.5,0.4-3.8,0.6c-0.3,0-0.6,0.1-0.9,0.1
						c-0.4,0-0.8-0.2-1.3-0.3c-2.4-0.8-4.9-1.4-7.4-1.3c-2.5,0.1-5,0.9-6.8,2.7c-0.8,0.8-1.5,1.9-1.4,3c-0.8,0.2-1.3,0.8-1.6,1.6
						c-0.3,0.7-0.2,1.5-0.1,2.3c0.6,3.8,3.5,7,7.1,8.4"/>
				</g>
				<g>
					<path fill="#1B193B" d="M383.6,202.3c-0.7,0.2-1.4,0.5-2.2,0.5c-0.8,0-1.5-0.2-2.1-0.7c-0.4-0.4-0.6-0.8-0.8-1.3
						c-0.4-1-0.8-2-0.4-3c0.2-0.6,0.6-1,1.1-1.4c0.4-0.4,1-0.7,1.5-0.8c1.1-0.2,2.2,0.4,2.9,1.3c0.7,0.9,0.9,2,1,3.1
						c0.1,0.8,0,1.8-0.8,2.3"/>
				</g>
				<g>
					<path fill="#1B193B" d="M401.8,213.3c-0.8-0.5-1.8-0.6-2.6-0.2c-0.3,0.1-0.6,0.3-0.9,0.4c-0.3,0.1-0.6,0.2-0.9,0.1
						c1.4,0.6,3,0.7,4.4,0.1c0.1,0,0.1-0.1,0-0.1"/>
				</g>
				<path fill="#1B193B" d="M399.6,207.9C399.6,207.9,399.6,207.9,399.6,207.9c-1,0-1,1.5-0.1,1.5c0,0,0,0,0.1,0
					C400.6,209.4,400.6,207.9,399.6,207.9L399.6,207.9z"/>
				<g>
					<path fill="#1B193B" d="M393.4,213.2c0.1,1.1,0.5,2.1,1.1,3c0.2,0.3,0.4,0.6,0.7,0.8c0.3,0.2,0.6,0.3,0.9,0.3
						c1,0.2,2,0.1,3,0.1c0.4,0,0.8,0,1.2-0.2c0.7-0.4,0.8-1.4,0.9-2.2c-0.8,0.7-1.8,1-2.8,0.9c-1-0.1-1.9-0.7-2.4-1.6
						c-0.2-0.4-0.3-0.8-0.4-1.2c0-0.1-0.1-0.3-0.2-0.3c-0.1,0-0.2,0-0.3,0.1c-0.5,0.3-1.1,0.4-1.6,0.3"/>
				</g>
				<path fill="#66393B" d="M400.6,218.4l-3.3,4.8l-0.1-5.2c0.5,0,0.9,0.1,1.4,0.1C399.3,218.2,400,218.3,400.6,218.4z"/>
			</g>
			<path fill="#1B193B" d="M379,228c-1.9,7.3-3.7,14.5-5.5,21.8c-0.9,3.6-1.7,7.3-2.6,10.9c-0.8,3.6-1.6,7.3-2.2,10.9
				c-0.1,0.9-0.3,1.9-0.3,2.6c0,0.1,0,0.1,0,0.1l0,0c0,0,0,0,0-0.1c0,0,0-0.1,0-0.1l0,0c0,0,0.1,0.1,0.3,0.2c0.3,0.2,0.7,0.5,1,0.7
				c1.6,0.9,3.3,1.6,5,2.3c3.4,1.4,6.9,2.8,10.5,4c7,2.6,14.2,5,21.3,7.3c0.3,0.1,0.4,0.4,0.3,0.6c-0.1,0.3-0.4,0.4-0.6,0.3
				c-7.2-2.1-14.4-4.2-21.6-6.5c-3.6-1.2-7.1-2.4-10.7-3.7c-1.8-0.7-3.5-1.4-5.3-2.3c-0.4-0.2-0.9-0.5-1.4-0.8
				c-0.2-0.2-0.5-0.3-0.8-0.7c-0.1-0.1-0.4-0.6-0.4-0.7c0-0.2-0.1-0.4-0.1-0.6c0-1.2,0.1-2.1,0.2-3c0.5-3.8,1.2-7.5,1.9-11.2
				c0.7-3.7,1.4-7.4,2.2-11.1c1.5-7.4,3.1-14.7,4.7-22.1c0.2-1.1,1.4-1.8,2.5-1.6S379.3,226.8,379,228C379,227.9,379,228,379,228
				L379,228z"/>
			<path fill="#47222C" d="M391,210.2c-0.1,0-0.1,0-0.2,0c-0.1,0-2.5-1.2-2-3.1c0.2-0.6,0.5-1,1-1.3c0.7-0.3,1.4,0,1.4,0
				c0.2,0.1,0.3,0.3,0.2,0.5c-0.1,0.2-0.3,0.3-0.5,0.2c0,0-0.4-0.2-0.8,0c-0.3,0.1-0.5,0.4-0.6,0.8c-0.2,0.8,0.4,1.5,1,1.8l0-0.2
				c0-0.2,0.1-0.4,0.3-0.4c0.2,0,0.4,0.1,0.4,0.3l0.1,1c0,0.1,0,0.3-0.2,0.3C391.2,210.2,391.1,210.2,391,210.2z"/>
		</g>
	</g>
</g>
<g id="DESIGNED_BY_FREEPIK">
</g>
</svg>
