<?xml version="1.0" encoding="utf-8"?>
<!-- Generator: Adobe Illustrator 17.1.0, SVG Export Plug-In . SVG Version: 6.00 Build 0)  -->
<!DOCTYPE svg PUBLIC "-//W3C//DTD SVG 1.1//EN" "http://www.w3.org/Graphics/SVG/1.1/DTD/svg11.dtd">
<svg version="1.1" xmlns="http://www.w3.org/2000/svg" xmlns:xlink="http://www.w3.org/1999/xlink" x="0px" y="0px"
	 viewBox="0 0 750 500" enable-background="new 0 0 750 500" xml:space="preserve">
<g id="Background_Complete">
	<g>
		<path fill="#EBEBEB" d="M377.5,384.3h109.2c0,0-9.7-17.6-37.8-15c-26.9,2.4-28.2-8.6-41.9-10C393.5,357.9,382.1,368.3,377.5,384.3
			z"/>
	</g>
	<g>
		<path fill="#EBEBEB" d="M520.8,307.2h59.9c0,0-5.3-9.6-20.7-8.2c-14.7,1.3-15.5-4.7-23-5.5C529.6,292.7,523.3,298.4,520.8,307.2z"
			/>
	</g>
	<g>
		<path fill="#E0E0E0" d="M69.7,157.1H160c0,0-8-14.5-31.2-12.4c-22.2,2-23.3-7.1-34.6-8.3C82.9,135.2,73.5,143.9,69.7,157.1z"/>
	</g>
	<g>
		<g>
			<path fill="#EBEBEB" d="M555.5,424.3c-13.5-8.8-16.9-25.7-16.8-41c0-2.6-0.3-5.2,0.8-7.5c1.2-2.3,4-3.9,6.3-2.8
				c1.9,0.8,2.8,3,3.9,4.8c1.5,2.4,3.7,4.3,6.2,5.6c1.7,0.8,3.7,1.3,5.3,0.3c2.2-1.3,2.4-4.3,2.3-6.8c-0.1-4.7-0.3-9.4-0.4-14.2
				c-0.1-2.5-0.1-5.1,0.6-7.5c0.7-2.4,2.4-4.7,4.9-5.4c2.4-0.7,5.5,0.6,6.1,3.1c0.2,1,0.1,2.1,0.1,3.2c0.1,1,0.6,2.2,1.6,2.5
				c1,0.3,2-0.5,2.8-1.2c2.6-2.6,4.3-6,5.9-9.3c1.6-3.3,3.1-6.7,5.5-9.6c2.3-2.8,5.6-5.1,9.3-5.4c3.7-0.3,7.6,1.9,8.7,5.4
				c1,3.5-1,7.2-3.2,10.2c-3.3,4.4-7.2,8.3-11.7,11.5c-0.8,0.6-1.7,1.2-1.9,2.2c-0.5,1.7,1.1,3.3,2.9,3.9c1.9,0.6,4,0.3,6,0.5
				c2,0.2,4.2,1,5,2.9c1.1,2.6-1,5.3-3.1,7.2c-4.2,3.7-9.1,6.6-14.3,8.6c-1.9,0.7-3.8,1.4-5.3,2.7c-1.5,1.3-2.4,3.6-1.4,5.4
				c1,1.8,3.3,2.3,5.3,1.9c2-0.4,3.7-1.5,5.6-2.3c3.5-1.4,8.1-1.3,10.4,1.7c1.5,1.9,1.7,4.7,1,7.1c-0.7,2.4-2.2,4.4-3.7,6.4
				c-5.5,6.7-12.6,12.1-20.7,15.1C571.3,426.1,563.7,427,555.5,424.3"/>
		</g>
		<g>
			<g>
				<path fill="#E0E0E0" d="M604.9,334.9c0,0-0.1,0.1-0.2,0.2c-0.2,0.2-0.4,0.4-0.7,0.7c-0.7,0.6-1.6,1.5-2.9,2.7
					c-2.4,2.3-5.9,5.9-9.6,10.7c-1.9,2.4-3.8,5.1-5.8,8c-2,2.9-4.1,6.1-6.2,9.5c-2.1,3.4-4.2,7.1-6.1,11c-0.9,2-1.8,4-2.6,6.1
					c-0.8,2.1-1.7,4.2-2.6,6.3c-3.4,8.6-6.4,16.9-8.5,24.6c-2.1,7.7-3.3,14.9-3.8,20.9c-0.5,6-0.2,11,0.1,14.3
					c0.2,1.7,0.3,3,0.5,3.9c0.1,0.4,0.1,0.8,0.1,1c0,0.2,0,0.3,0,0.3s-0.4-1.8-0.8-5.2c-0.4-3.4-0.7-8.3-0.2-14.4
					c0.4-6.1,1.6-13.2,3.7-21c2.1-7.8,5.1-16.1,8.5-24.7c0.9-2.1,1.7-4.3,2.6-6.4c0.8-2.1,1.7-4.1,2.6-6.1c1.9-3.9,4-7.6,6.1-11
					c2.1-3.4,4.3-6.6,6.3-9.5c2-2.9,4-5.6,5.8-8c3.7-4.8,7.2-8.3,9.7-10.6c1.2-1.2,2.2-2,2.9-2.6c0.3-0.3,0.6-0.5,0.8-0.7
					C604.8,334.9,604.9,334.9,604.9,334.9z"/>
			</g>
		</g>
		<g>
			<g>
				<path fill="#E0E0E0" d="M573.1,377.5c0,0-0.1-0.4-0.3-1.1c-0.1-0.7-0.3-1.7-0.5-3c-0.4-2.5-0.9-6-1.4-9.9
					c-0.5-3.9-1-7.3-1.5-9.8c-0.2-1.3-0.4-2.3-0.6-3c-0.1-0.7-0.2-1.1-0.2-1.1c0,0,0.1,0.4,0.3,1.1c0.2,0.7,0.4,1.7,0.7,2.9
					c0.5,2.5,1.1,6,1.6,9.8c0.5,3.8,0.9,7.3,1.3,9.9c0.2,1.2,0.3,2.2,0.4,3C573.1,377.1,573.2,377.5,573.1,377.5z"/>
			</g>
		</g>
		<g>
			<g>
				<path fill="#E0E0E0" d="M606,370.6c0,0-0.1,0-0.3,0.1c-0.3,0-0.6,0.1-1,0.1c-0.8,0.1-2.1,0.2-3.6,0.4c-3,0.4-7.2,1.1-11.7,2
					c-4.5,1-8.6,2-11.5,2.9c-1.5,0.4-2.6,0.8-3.5,1c-0.4,0.1-0.7,0.2-0.9,0.3c-0.2,0.1-0.3,0.1-0.3,0.1c0,0,0.1-0.1,0.3-0.1
					c0.3-0.1,0.6-0.2,0.9-0.4c0.8-0.3,2-0.7,3.4-1.2c2.9-0.9,7-2,11.5-3c4.6-1,8.7-1.6,11.8-1.9c1.5-0.2,2.7-0.3,3.6-0.3
					c0.4,0,0.7,0,1,0C605.9,370.6,606,370.6,606,370.6z"/>
			</g>
		</g>
		<g>
			<g>
				<path fill="#E0E0E0" d="M559.6,414c0,0-0.1-0.1-0.2-0.4c-0.2-0.3-0.3-0.7-0.6-1.2c-0.5-1-1.2-2.5-2-4.4
					c-1.7-3.7-3.8-8.9-6.1-14.6c-2.3-5.7-4.4-10.9-6-14.7c-0.8-1.8-1.5-3.3-1.9-4.4c-0.2-0.5-0.4-0.9-0.5-1.2
					c-0.1-0.3-0.2-0.4-0.2-0.4c0,0,0.1,0.1,0.2,0.4c0.2,0.3,0.3,0.7,0.6,1.2c0.5,1,1.2,2.5,2,4.4c1.7,3.7,3.8,8.9,6.1,14.6
					c2.3,5.7,4.4,10.9,6,14.7c0.8,1.8,1.5,3.3,1.9,4.4c0.2,0.5,0.4,0.9,0.5,1.2C559.6,413.9,559.7,414,559.6,414z"/>
			</g>
		</g>
		<g>
			<g>
				<path fill="#E0E0E0" d="M603.2,399c0,0-0.1,0.1-0.4,0.2c-0.3,0.1-0.7,0.3-1.3,0.4c-1.1,0.4-2.7,0.9-4.7,1.6
					c-3.9,1.4-9.4,3.3-15.3,5.5c-6,2.2-11.4,4.1-15.4,5.4c-2,0.6-3.6,1.2-4.7,1.5c-0.5,0.2-1,0.3-1.3,0.4c-0.3,0.1-0.5,0.1-0.5,0.1
					c0,0,0.1-0.1,0.4-0.2c0.3-0.1,0.7-0.3,1.3-0.4c1.1-0.4,2.7-0.9,4.7-1.6c3.9-1.4,9.4-3.3,15.3-5.5c6-2.2,11.4-4.1,15.4-5.4
					c2-0.6,3.6-1.2,4.7-1.5c0.5-0.2,1-0.3,1.3-0.4C603,399,603.2,399,603.2,399z"/>
			</g>
		</g>
	</g>
</g>
<g id="Background_Simple" display="none">
	<path display="inline" fill="#EBEBEB" d="M161.8,183.9c-13.7-36.1-3.4-80,24.9-106.2c28.3-26.2,72.8-33.2,107.8-16.8
		c23,10.8,40.8,29.9,59.2,47.4c18.4,17.5,39.4,34.3,64.5,38.3c38.6,6.2,76.4-19.3,115.4-16.1c29,2.4,55.8,22.1,66.8,49
		c11,26.9,16.3,64.3-2.7,86.3c-20,23.3-41.8,38.7-88.5,52.7c-65.5,19.7-143.6,16-208-7.2c-26.8-9.6-53.6-24.2-78.1-38.9
		c-13.3-8-22.3-25.4-33.3-36.3C178.8,225.3,162.9,199.3,161.8,183.9"/>
</g>
<g id="Floor">
	<g>
		<path fill="#263238" d="M701.3,455.2c0,0.1-146.1,0.3-326.3,0.3c-180.2,0-326.3-0.1-326.3-0.3s146.1-0.3,326.3-0.3
			C555.2,454.9,701.3,455,701.3,455.2z"/>
	</g>
</g>
<g id="Map_1_">
	<g>
		<g>
			<path fill="#455A64" d="M662.6,312.9c-0.3,1.5-1.3,3.2-2.6,4.3c-0.9,0.8-3.9,2.3-4.2,0.1c-0.1-0.6,0.6-3.5,0.8-4.1
				c0.7-1.7,1.5-0.6,2.7-0.4C660.5,313.2,661.6,312.1,662.6,312.9z"/>
			<path fill="#455A64" d="M654.6,134.3c0.4,1.5,0.7,2.9,1,4.3c-1.1,1.7-3.4,1.1-5,2c-0.8,0.4-1,2-1.7,2.2c-0.6,0.2-1.1-0.6-1.6-0.6
				c-1.5,0-2.2,3-4,2.2c-1,0.7,0,3.6-1.2,3.8c-0.9,0.2-1.4-1.2-1.9-2.1c-0.7-1-1.6-1.6-1.6-2.5c0-0.9,1.5-2.3,1.9-2.9
				c0.6-0.7,1.7-2.1,2.5-2.3c1.4-0.4,2.7,0.2,3.8-0.4c0.9-0.5,0.9-2.2,1.4-2.6c0.4-0.4,0.9-0.3,1.2-0.5c0.9-0.6,2-2.7,1.4-4.9
				c-0.3-1.4-2.2-2.9-1-4.5c1.8,0.2,4.2,2.4,4.5,4.5c0.1,0.8-0.3,1.7-0.2,2.6C654,133.1,654.4,133.7,654.6,134.3z"/>
			<path fill="#455A64" d="M655,121c-0.2,0.6-0.7,0.5-1.1,0.9c-0.4,0.4-0.9,1.5-1.4,1.6c-0.8,0.2-1.7-1-2.6-0.7
				c-1,0.3-0.4,1.2-0.7,2.2c-0.8-0.2-2.2-1.3-2.2-2.5c0-0.7,0.7-1.1,0.9-2c0.3-1.4-0.5-2.1-0.9-3.4c0-0.2,0.1-0.2,0.1-0.4
				c1-0.3,3,2,5.2,2.5C653.7,119.4,654.9,119.2,655,121z"/>
			<path fill="#455A64" d="M651.2,245.6c0.1,1-1.4,0.9-1.5,0.2C649.7,245.1,651,244.8,651.2,245.6z"/>
			<path fill="#455A64" d="M644.1,110.6c1,0.6,3.5,2.1,1.7,3.4C644.8,113.6,643.7,112,644.1,110.6z"/>
			<path fill="#455A64" d="M639.4,240.2c1.2-0.8,2.4-2.4,4.5-1.6c-0.4,1.5-2,1.5-3,2.2c-1,0.7-1.8,1.9-3.1,2.1
				c-0.1-0.2-0.2-0.4-0.4-0.5C637.4,241.1,638.6,240.7,639.4,240.2z"/>
			<path fill="#455A64" d="M636.6,217.1c1.2,0,2.3-0.4,3.2,0.1c-0.2,3.1-4.1,0.7-6.7,1.2c-0.6,0.1-0.7,0.6-1.3,0.4
				c0-1,1-2.1,1.9-2.2C634.4,216.5,635.5,217.1,636.6,217.1z"/>
			<path fill="#455A64" d="M637.6,220.9c0.1,1.7-1.8,1.9-2.4,3.2c0.8,1.6,1.2,3.7,2.1,5.2c0,0.9,0.2,2.2-0.3,2.6
				c-2.1,0.5-3.2-4-4-5.5c-1.6,0.4-0.1,6.4-2.2,5.6c-1-0.4,0-2.1-0.2-3.4c-0.2-1.2-1.2-1.4-1.2-2.3c-0.1-0.8,0.7-1.6,0.9-2.3
				c0.3-1.1,0.1-3.3,1.2-3.3c0.5,0,1.3,1.4,1.6,1.5C634.5,222.4,635.9,220.5,637.6,220.9z"/>
			<path fill="#455A64" d="M633.9,239.2c-0.4,0.9-2.5,0.5-2.7-0.4C631.6,237.9,633.7,238.2,633.9,239.2z"/>
			<path fill="#455A64" d="M631.9,242.2c-0.1,0.2-0.3,0.3-0.4,0.5c-0.8-0.3-1.6-0.5-1.8-1.5C630.2,240.2,631.9,241,631.9,242.2z"/>
			<path fill="#455A64" d="M629.1,239.1c-0.5,0.9-2.3-0.1-3,0.9c-1.1,0-2.1,0-2.4-1.1c0.3-0.9,1.3-0.3,2-0.4
				C627.1,238.4,628.8,237.3,629.1,239.1z"/>
			<path fill="#455A64" d="M614.7,286.1c0-1.1-0.6-2-0.7-3.2c-0.1-0.4,0.1-1,0-1.5c-0.1-0.8-0.4-1.4-0.3-1.8
				c0.1-0.8,0.9-0.9,1.1-1.6c0.3-1.1-0.4-1.3-0.4-2.7c0-1,0.6-1.4,1-2.7c0.2-0.6,0.2-1.7,0.4-2.1c0.3-0.5,1.4-1,1.8-1.2
				c1.6-0.9,2.8-2.6,4.4-3c0.4-0.1,0.9,0.1,1.2,0c0.9-0.2,2.1-1.1,3.4-1.5c1.2-0.3,2.3-0.2,3.3-0.9c1-0.7,2.5-2.6,2.9-3.7
				c0.5-1.3,0.3-2.5,1.2-2.9c0.4-0.2,0.9,0,1.3-0.1c0.5-0.1,1.5-0.7,1.8-1.1c0.7-0.8,0.8-2,1.6-2.8c0.6-0.6,1.6-1.4,2.4-1.8
				c0.4-0.3,1.2-0.5,1.6-0.5c1.4,0.1,2.1,2.6,3.7,2.1c0.6-0.2,1.1-1.6,1.6-2.5c0.7-1.3,1.3-2.9,2.6-3.3c1-0.3,2.2,0.5,2.8-0.6
				c0.1-0.8-0.5-1.2,0-1.7c1.2,0.1,3.2,2,5,2.1c1,0,2.8-1.3,3,0.5c0.1,0.8-0.7,1.4-0.9,2.2c-0.1,0.6,0.2,0.9-0.1,1.5
				c-0.8,0.4-1.7,0.6-1.7,1.7c0,1.4,1.6,2.1,2.7,2.8c0.7,0.5,1.3,1.3,1.6,1.6c0.3,0.2,0.8,0.3,1,0.5c0.7,0.5,1.1,1.7,2,1.7
				c1,0,2.1-1.6,2.7-3.1c0.7-1.8,0.7-3.9,1-5.8c0.1-0.6,0.5-1.2,0.6-1.8c0.4-1.7,0.9-3.9,2.1-4.5c1.2,1.6,1.6,4.6,1.4,7.1
				c0.8,0.7,2.3,0.5,2.4,2.2c0.1,0.6-0.2,1.3-0.2,2c0.1,1,0.7,1.9,0.8,2.8c0.2,1.6-0.2,3,0.4,4.2c0.8,1.5,2.4,1.5,3.4,3.1
				c0,1,0.3,1.4,0.5,2.2c0.1,0.4,0,1,0.1,1.2c0.3,0.8,1.2,0.9,1.5,1.6c0.2,0.3,0.1,1,0.3,1.6c0.3,0.9,1,1.6,1.4,2.5
				c0.5,0.9,1.2,1.8,1.3,2.5c0.2,1.2-0.5,2.1-0.7,3.1c-0.2,1.2,0,2.8-0.4,4.1c-0.5,1.5-1.6,2.9-2.6,4.8c-0.7,1.5-1.8,3.3-2.9,4.3
				c-0.6,0.6-1.4,1-2,1.6c-1,1-1.8,2.2-2.7,3.3c-0.9,1.2-2,2.1-2.8,3.1c-1,1.5-1.6,3.8-3.4,4.1c-1.1,0.1-2,0-3,0.5
				c-1.5,0.7-2.5,2.1-3.3,2.1c-0.8,0-1.5-1.1-2.3-1.2c-0.8-0.1-1.5,0.7-2.7,0.7c-0.5,0-0.7-0.3-1.4-0.6c-1.5-0.6-3.1-0.5-3.3-2.5
				c-0.1-1,0.6-1.5,0.5-2.5c0-0.9-0.8-1.2-1.1-2c0.2-0.8,0.2-1.9-0.5-2.5c0-0.8,0.1-1.3,0.4-1.7c-0.6,0.3-1.4,0.5-2,1
				c-0.7,0.5-1.3,1.8-2.1,1.6c-0.8-0.3-0.2-1.3-0.3-2.1c-0.1-0.6-1.2-3.1-1.7-3.6c-0.6-0.5-2.8-1.5-3.5-1.6
				c-3.2-0.6-5.2,1.4-7.7,1.7c-0.6,0.1-1.3-0.1-1.9,0c-2.1,0.4-4.3,2.4-5.6,3.7c-2.1,0.3-4.3-0.5-6.4,0.2c-2.2,0.8-3.4,2.9-6.7,2.3
				c-0.7-0.7-1.8-1-1.8-2.2c0-0.9,1.2-1.5,1.5-2.2c0.4-0.7,1.1-2.4,1.1-3.4c0-0.8-0.5-1.8-0.4-2.8
				C614.4,287.8,614.7,286.9,614.7,286.1z"/>
			<path fill="#455A64" d="M613,234.9c0.6-0.1,1-0.6,1.5-0.6c1.2-0.1,2.4,1.1,3.8,0.9c0.3,0.4,0.1,0.7,0.1,1.4
				c1.2,0.8,3.2,0.6,3.8,2.1c-0.9,1.1-2.2,0.3-3.4,0.1c-1-0.2-2.1-0.1-3.3-0.2c-1.4-0.2-2.7-1.1-4.1-1.3c-0.8-0.1-1.7,0.1-2.5,0
				c-0.9-0.2-4.3-1.7-4.4-2.8c0-1.1,1.5-1.5,3-1.2C609.4,233.4,610.6,235.3,613,234.9z"/>
			<path fill="#455A64" d="M615.8,226.5c-0.8-0.3-1.5-0.1-1.8-0.4c-0.7-0.5-0.6-2-0.8-2.8c-0.2-0.8-1.1-1.3-1.5-2.5
				c-0.7-1.7-1-5.4,0.8-5.8c0.7-0.1,1.4,0.5,1.9,0.4c1-0.3,0.8-1.8,1.6-2.5c0.5-0.4,1.3-0.2,1.9-0.5c0.7-0.3,1.2-1.1,1.6-1.7
				c0.4-0.6,0.8-1.6,1.3-2.1c0.6-0.5,1.2-0.5,1.7-1c1.3-1.2,1.4-2.9,2.5-4.4c0.9-1.3,2.3,1.2,2.5,2.2c0.5,0.8,1.5,1,1.9,1.8
				c-0.6,2.2-2.3,2.3-1.9,5.4c0.1,0.5,0.3,1.4,0.6,2.1c0.3,0.7,1.2,1.5,1.1,2c-0.1,0.9-1.6,0.9-1.9,1.8c-0.3,0.9,0,1-0.1,2.3
				c-0.4,1-1.6,1.2-1.9,2.5c-0.4,1.5,0.1,3.3-0.9,4.4c-0.7,0-1.4,0.7-2.2,0.6c-0.9-0.1-1.8-1.6-3.2-1.6c-0.5,0-1.2,0.4-1.7,0.4
				C616.8,227.2,616.4,226.7,615.8,226.5z"/>
			<path fill="#455A64" d="M609.1,223.7c2.6,0,2.6,4.8,0,4.8C606.5,228.6,606.5,223.7,609.1,223.7z"/>
			<path fill="#455A64" d="M605.3,223.1c0.3,0.1,1.5,1.9,1.4,2.5c0,0.9-1.1,0.8-1.4,2c-0.5,1.8,0.2,3.8-0.6,4.7
				c-0.5,0.3-1.3,0.2-2,0.2c-1.9-1.6-3.3-3.4-4.9-5.5c-0.6-0.8-1.3-1.4-1.6-2.2c-0.5-1.2-0.7-2.5-1.3-3.6c-0.5-1-1.5-1.7-2-2.7
				c-0.4-0.9-0.5-2-0.9-2.8c-0.4-0.8-1.1-1.1-1.6-1.7c-0.3-0.4-0.5-1-0.8-1.5c-1.3-1.8-3.8-2.8-3.9-5.5c0.5-0.7,1.1,0.3,2,0.5
				c0.6,0.1,1.4-0.1,1.8,0.1c0.9,0.4,1.6,2.1,2.6,3.1c0.6,0.5,1.3,0.9,1.8,1.5c0.6,0.6,1.1,1.5,1.5,1.8c0.7,0.5,1.6,0.8,2.5,1.5
				c1.2,0.9,3.3,1.8,3.6,3.7c0.1,0.5-0.2,1.2-0.1,1.6c0.1,0.6,0.8,0.9,1.2,1.5c0.5,0.7,0.6,1.7,1.3,1.8
				C604.5,224.2,604.6,223,605.3,223.1z"/>
			<path fill="#455A64" d="M557.1,197.3c0.9,0.3,3.8,4.6,3,7c-0.2,0.7-1.3,1.5-2.2,1.3c-2-0.4-1.6-5.8-1-8
				C556.8,197.5,556.9,197.4,557.1,197.3z"/>
			<path fill="#455A64" d="M489.1,259.5c0.1-1,0.7-2.6,1.3-3.2c0.9-0.8,2.2-0.8,3.2-1.3c0.8-0.5,1.9-1.3,2.5-2.2
				c0.5-0.8,0.5-1.6,0.9-2.2c0.3-0.4,0.9-0.5,1.2-1c0.3-0.4,0.2-1.2,0.7-1.7c1.4-0.7,1.8,2.4,2,4.5c0.1,0.7,0.4,1.4,0.3,1.7
				c-0.1,1-1,1.2-1.3,1.8c-0.1,2.7-0.9,5-1.7,7.2c-0.7,1.9-1.1,4-1.6,5.7c-0.2,0.6-0.6,1.1-0.8,1.6c-0.7,2.1-1,5.4-2.4,6.3
				c-0.5,0.3-2.3,0.9-2.9,0.9c-1.3,0-2.3-1.2-2.7-2.5c-0.2-0.7,0-1.4-0.1-2.2c-0.1-1-0.6-1.8-0.5-2.9c0.2-2.5,2.3-3.7,2.4-5.8
				C489.7,262.6,489,261.1,489.1,259.5z"/>
			<path fill="#455A64" d="M439.8,84.7c0.1,2.1-2.6,1.8-3,3.6c-0.2,0.8,0.3,1.9,0.2,2.6c-0.2,1.3-1.2,0.9-2.6,1.6
				c-0.7,0.3-1.3,1.6-2,1.7c-0.7,0.1-1.1-0.5-1.5-0.4c-0.7,0.2-0.4,1.1-1.4,1.3c-0.8,0.2-2.2-0.8-2.2,0.4c-0.1,0.8,1.2,1.2,2,1.1
				c0.6-0.1,1.1-0.6,1.7-0.6c1.2,0,2,1.1,2.8,1.1c1.8,0.1,3.5-1.9,5.3-1.7c0.8,0.1,1.3,0.8,1.9,0.7c1-0.1,1.8-1.5,2.6-2
				c-0.3-2.1,0-4.8,1.6-4.9c1.1-0.1,2.8,2.3,3,0c0.1-1-0.9-1.9-1.5-1.8c-0.6,0-1.4,1.4-1.8,0.2c0-1.1,1.1-0.8,1.6-1.1
				c0.4-0.2,0.7-0.8,1.2-1c2.4-1,5.8,1,6.7-1.5c-2.2-2.2-5.8,0.8-8.3,0.6c-1-0.1-2.4-1-2.8-2.2c-0.1-0.4,0-0.9-0.1-1.6
				c-0.1-0.8-0.4-1.6-0.4-2.1c0.1-2.2,4.7-2.6,4.7-5.4c-0.9-1-3.5-0.8-4.3,0.2c-0.3,0.4-0.3,1.2-0.7,2c-0.9,1.7-3.9,1.9-4.8,3.9
				c-0.2,0.5-0.6,1.7-0.4,2.5C437.6,83.2,439.8,83.5,439.8,84.7z M415.5,204.8c-2.9-0.5-6,0.9-8,2c-1.2,0.6-2.3,1.5-3.4,1.6
				c-1,0.1-1.9-0.6-2.9-0.7c-1.2-0.2-2.8,0-4,0.2c-1.2,0.3-2.2,1.3-3.3,1.3c-2,0.2-3.9-2.1-5.1-3.3c-0.8-0.7-1.5-1.3-2.2-2
				c-0.8-0.7-1.8-1.2-2.4-1.8c-0.8-0.9-0.8-2.6-1.2-3.8c-0.5-1.5-2-2.5-3.2-3.9c-0.9-1-2.8-2.6-3.1-3.9c-0.1-0.7,0.2-1.5,0.2-2.2
				c-0.1-1.1-0.7-1.7-0.7-2.5c0-1.1,1.1-1.9,1.3-2.8c0.1-0.5,0.1-1.1,0.2-1.7c0.3-1.2,1-2,0.8-3.8c-0.1-0.7-0.6-1.4-0.6-2.3
				c0-0.6,0.4-1,0.3-1.6c-0.1-1-1.2-1.3-1.3-2.5c-0.1-1.2,1-2.3,1.6-3.7c0.3-0.6,0.5-1.6,0.7-2.1c0.6-1,1.5-1.6,1.9-2.6
				c0.3-0.8,0.4-1.9,0.7-2.5c0.4-0.7,1.1-1.1,1.8-2.1c0.6-0.8,0.8-1.7,1.2-2.1c0.5-0.4,1.3-0.6,1.8-0.9c1.9-1,3.3-2.4,4.2-4.5
				c-0.3-2,0.1-2.8,0.8-4.2c0.6-1.3,1.1-2.5,2.1-3.2c1.3-0.9,2.5-0.9,3.4-2.6c0.4-0.8,1.1-2.2,1.1-3.1c0-1.2-1-2.8-1.9-2.9
				c-0.9-0.2-2.3,0.8-2.9-0.4c-0.2-0.4,0.1-1.3,0-1.7c-0.1-0.8-0.7-1.4-0.7-2c0-1.2,0.9-2.4,1.2-3.7c0.4-1.8,0-3.2-0.1-5.3
				c1.4-2.7,4.6-1.4,7.8-1.1c0.5,0,1-0.1,1.5-0.1c1.9,0.1,3.4,0.7,4-1.2c0.2-0.7,0.4-3.5,0.3-4.2c-0.2-0.8-1.5-3-2.1-3.4
				c-1-0.8-2.5-0.4-3.1-1.8c0.5-2.4,2.7-0.4,4.1-1c0.7-0.3,0.6-1.7,1.2-2c0.4-0.2,1,0.5,1.5,0.5c0.5,0,2.3-1.1,2.8-1.5
				c0.7-0.5,0.9-1.6,1.4-2.1c0.4-0.3,0.9-0.3,1.3-0.5c0.9-0.4,2-1.4,2.6-2.2c0.8-1.2,1.2-2.7,2.2-2.9c1.4-0.3,4.5,0.3,4.7-1.5
				c0.2-1.7-1.3-3.1-0.7-4.9c0.4-1.5,1.5-1.2,3.1-2.1c0.7,0.6,0.5,2.5,0.6,3.6c0.9,0,2.9-0.3,3.1-1.4c0.2-1.3-1.4-2.6-1.7-3.3
				c-0.4-0.8-0.5-2.3-1.2-2.5c-1.6-0.4-3.1,2.6-5,2.6c-1.3,0-2.6-1.2-3-2.3c-0.2-0.7,0-1.3-0.1-2c-0.1-1-0.6-2-0.4-3.4
				c0.8-1.6,2.6-1.9,3.9-2.7c0.5-0.3,0.9-1,1.4-1.2c0.9-0.4,2.3,0,3.2-0.6c0.6-0.4,0.4-1.1,0.8-1.8c0.3-0.5,0.9-0.8,1.2-1.3
				c0.2-0.4,0.3-1,0.5-1.4c0.9-1.3,2.5-1.8,3.2-3.2c0.3-0.6-0.5-0.8-0.3-1.7c0.3-0.9,1.6-0.2,2.3-0.4c1-0.2,2-1.7,3.1-2
				c1.2-0.3,2.4-0.1,3.5-0.6c0.6-0.3,1.2-1,1.8-1.1c0.2,0,0.8,0.1,1.1,0.1c0.4,0,0.8-0.3,1.3-0.4c0.8-0.1,1.7,0.2,2.7,0.2
				c1.6,0,3.2-0.6,4.5,0.1c0.7,0.4,0.6,1.3,1.5,1.7c0.5,0.2,1.1-0.1,1.7,0c1,0.1,2,0.9,3.4,1.1c0.5,0.1,1-0.1,1.4,0
				c1.5,0.2,3.1,1.1,4.5,1.7c1.2,0.5,3.7,1.1,3.8,2.5c0.1,1.6-2.2,2.1-3.2,2.1c-1.6,0-3.7-1.1-5.4-0.5c0,2.8,2.5,4.9,4.8,4.5
				c0.2-1.3-1.3-0.6-1.1-1.8c1-0.9,2.2,0.6,3.7,0.4c0.6-0.2,0.5-1.2,0.6-1.8c1.2-0.9,2.7-2.2,4.6-1.2c0.1-0.2,0.2-0.4,0.4-0.5
				c0.1-1.3-1.2-2.1-0.5-3.3c0.4-0.9,2.3-0.6,2.6,0.1c0.1,0.8-0.5,0.7-0.4,1.5c0.4,1,1.2,1.1,1.6,1.1c1-0.1,1.2-1.1,2.1-1.7
				c0.4-0.2,0.9-0.3,1.4-0.5c0.6-0.3,1.1-0.8,1.5-1c0.3-0.1,0.9,0,1.3-0.1c0.6-0.2,1.2-0.7,1.7-0.7c0.6,0,1.1,0.9,1.8,1
				c0.4,0.1,0.9-0.3,1.5-0.4c0.5-0.1,1,0.1,1.4,0c1-0.2,1.6-0.8,2.5-0.7c0.6,0,1.5,1,1.9,0.5c0.7-0.8-0.9-1.4-0.4-2.1
				c1.6,0.1,3.2,0.1,4.8,0.4c2.3,0.4,4.5,1.8,6.6,1.8c-0.2-1.7-1.8-1.2-2.6-2c-0.2-0.2-1.1-2-1.1-2.6c0-0.3,1.2-2.6,1.4-2.9
				c0.9-1,3.9-1,4.7,0.4c0.6,0.9,0.4,2.4,1.2,2.3c0.7,0,1.1-2.2,1.9-2.2c0.7,0,1,1.4,1.7,1.4c0.8,0,1.4-1.9,2.6-2
				c0.6,0,0.8,0.4,1.7,0.5c0.6-0.5-0.2-1.1,0.1-1.8c1.1-1,3.8-0.2,5.2-0.9c0.4-0.6-0.5-1-0.1-1.6c1.3-1.1,3.4-1.2,5.5-1.6
				c1.3-0.3,2.5-1.4,3.6-1.5c1.1-0.1,2.1,0.8,3.1,0.7c0.6,0,1.3-0.2,1.8-0.5c0.6-0.3,1-0.9,1.5-1.1c0.9-0.3,2,0.1,3.1,0
				c1.1-0.1,2.1-0.6,2.9-0.5c0.7,0.1,1.3,1.1,2,1.2c2.2,0.4,4.4-0.4,6.3,0.2c0.4,0.1,0.7,0.6,1.1,0.7c1.3,0.6,2.2,0.4,2.5,2.3
				c1,0.4,1.6,1.6,2.9,2c0.8,0.3,1.6-0.1,2.6-0.1c1.2,0,2.8,0.1,3.8,0.2c0.6,0.1,1.1,0.6,1.6,0.7c0.4,0.1,1-0.1,1.4,0
				c0.6,0.1,1.2,0.4,1.7,0.4c1.1,0,1.9-1.2,2.8-1.4c0.5-0.1,1.1,0.2,1.5,0.2c1.7,0.2,3.7-0.3,5.1,0.1c0.8,0.2,2,1.2,2.9,2
				c0.6,0.6,1,1.4,1.5,1.8c0.5,0.4,1.9,1.1,2.5,1c0.7-0.1,0.7-1,1.3-1.3c2-0.5,5.6,0.8,7.3-0.1c0.6-0.4,0.5-1.2,1-1.6
				c3.1-0.2,6.1,0.2,9,0.2c1,0,2.1-0.3,3-0.1c1,0.2,1.7,1.4,2.8,1.8c0.7,0.3,1.9,0.1,2.9,0.4c0.7,0.2,1.2,0.6,1.7,0.7
				c1.1,0.2,2.1-0.1,3.2-0.2c2.3-0.2,5.4-0.4,7.7,0.7c1.2,0.6,1.7,1.8,3.1,2c1.9,0.3,4.8-0.2,6.7,0c0.5,0,0.9,0.3,1.2,0.2
				c0.6-0.1,1-0.7,1.8-0.7c1,0,2.6,1.9,4.1,1.6c0.6-0.5-0.5-1.2,0.1-1.7c0.6-0.6,1.4,0,2.3,0c0.5,0,1.1-0.3,1.5-0.2
				c1.1,0.1,2.2,1.3,3.6,1.7c1.1,0.3,2.6,0.4,4,0.2c1-0.1,1.8-0.5,2.8-0.4c0.5,0.1,0.9,0.5,1.3,0.6c0.4,0.1,0.9,0,1.2,0.1
				c0.3,0.1,0.7,0.5,1,0.6c1.9,0.7,4.4,1,6.4,1.7c1.2,0.4,2.4,1.3,3.4,1.3c0.5,0,0.9-0.3,1.5-0.2c3.1,0,6.7,1.6,6.4,5
				c-3.6,1-6.6-3-10.4-1.8c-0.6,0.2-1.3,1-1.2,1.7c0.1,2.1,4.6,2,5,4.1c-0.7,0.7-1.5,0-2.1,0.1c-0.9,0.1-2.5,1.3-3.1,2
				c-0.7,0.8-1.3,2.8-2,2.9c-0.9,0.2-2.3-1.1-3.7-0.7c-0.5,0.1-1,0.9-1.4,1c-1.1,0.3-2.6-0.7-3.3,0.9c0.4,1.1,0.1,2.7,0.9,3.3
				c0.5,0.4,1.1,0.1,1.7,0.4c0.7,0.3,1.1,1.4,1.7,2c0.5,0.5,1.1,0.5,1.3,1.1c0.1,0.9-0.3,1-0.2,1.6c0.2,1,1.5,1.3,1.5,2
				c0,0.9-0.8,0.7-1,1.6c-0.1,0.6,0.5,0.7,0.6,1.5c0,0.5-0.3,1-0.3,1.6c0,0.8,0.6,1.4,0.5,2.1c-0.1,0.6-0.5,1.1-0.9,1.4
				c-2-1.5-3.7-3.6-5.8-5.5c-2.2-2-5.6-4.4-5.9-8.6c0-0.6,1.1-1.1,1.3-2.1c0.1-0.4-0.1-0.9-0.1-1.5c0.1-1.4,1.1-2.8,1-3.7
				c0-0.9-1.5-2.7-2.3-2.9c-0.6,0.4,0,1.1-0.1,1.7c-0.1,0.7-0.9,1.6-1.5,1.7c-1.9,0.2-2.2-3-5.2-2.1c-0.8,0.2-1.9,1.7-1.6,3.4
				c0.1,0.5,1.3,1.1,1.2,1.8c-0.1,0.7-2.8,0.9-3.4,0.9c-1.6-0.2-2.5-1.6-4-1.6c-0.7,0-1.4,0.7-1.9,0.9c-3.2,0.7-8-1.9-9.1,1.5
				c-0.2,0.5-0.1,1.1-0.2,1.6c-0.2,0.7-0.7,1.3-0.8,1.7c-0.1,0.4-0.1,1.1-0.3,1.7c-0.2,0.5-2.1,2.6-0.4,3.2c0.4,0.1,0.6-0.2,1.1-0.1
				c0.9,0.1,2.3,1.8,3.4,1.8c0.6,0,1.5-0.8,1.9-0.9c0.9-0.1,1.6,0.7,2.4,1.1c0.7,0.4,1.7,1.3,2.3,1.2c1-0.1,0.5-0.9,1.4-1.2
				c1.8,0.6,2.6,2.9,4.3,4.7c0.6,0.6,1.5,1.2,2.4,2.1c0.5,0.5,1.9,1.8,1.9,2.5c0.1,0.6-0.4,0.8-0.5,1.4c-0.2,0.7,0.2,1.3-0.2,1.8
				c-1.6-0.7-2-2.7-3.2-4.3c-0.4-0.6-0.9-1.3-1.5-2.2c-0.3-0.4-1.4-1.8-2-1.5c-1.3,0.6,0.7,2.9,1,3.4c0.7,1.1,1.6,2.5,1.6,3.7
				c0,0.7-0.4,2.1-0.4,3.3c0,0.8,0.2,1.6,0.1,2.3c-0.1,0.7-0.5,1.5-0.7,2.3c-0.2,0.9-0.3,2-0.5,2.6c-0.4,1.1-1.7,2.4-2.7,2.5
				c-0.8,0-1.2-0.8-2-0.7c-1.3,0.1-1.5,1.5-2.2,2.6c0.1,1.2,0.4,1.6,0.2,2.5c-0.3,1.3-1.8,1.5-1.7,2.8c0,1.2,1.4,1.4,2,2
				c0.9,0.7,2.5,2.4,3.4,3.7c0.6,0.9,1.4,2.5,1.3,3.4c-0.1,1.2-3,2.9-4.2,2.5c-1.1-0.4-0.8-1.7-1-2.9c-0.2-0.9-0.8-1.3-1.1-2.1
				c-0.2-0.4-0.1-1-0.3-1.5c-0.6-1.2-1.7-0.6-3-1.4c-0.8-0.5-0.6-1.6-0.9-2.6c-0.4-1.3-2.3-1.9-3.8-1.6c-1.1,0.3-1.4,1.4-2.5,1.6
				c-1.5-1.1,0.3-3.7-1.5-3.9c-1.4-0.2-2.3,2.4-3.2,3.2c-0.6,0.5-1.6,0.6-1.6,1.3c-0.1,1.4,1.2,1.1,2.2,1.6c1,0.5,1.1,1.8,1.9,1.8
				c0.7,0.1,1.2-0.9,1.9-1c1.3-0.1,2.3,0.5,3.1,1.1c-0.5,1.5-3.3,2.6-3.3,4.5c0,1.1,1.1,1.3,1.9,2.1c0.7,0.6,1.7,2.4,2.7,3.7
				c0.4,0.5,1.1,0.9,1.3,1.2c0.5,0.8,0.4,1.8,0.9,2.3c0.1,0.7-0.3,0.8-0.2,1.5c0.3,0.9,1.4,0.7,1.6,1.6c-0.2,2.1,0.5,4.1-0.9,4.9
				c-0.7,3.8-1.4,6.8-3.6,8.8c-1.9,1.9-4.5,2.4-6.9,3.3c-0.6,0.2-1.1,1-1.6,1.2c-1.4,0.6-3.8,0.2-3.9,2.2c-0.1,1,1,1.6,1.1,2.6
				c0.1,1.5-1,3.1-1.8,3.2c-0.6,0.1-1.9-0.4-1.9-1.7c-0.1-1.5,1.5-2.1,1.6-2.9c0.2-1.6-1.1-3.1-2.7-2.9c-1.4,0.1-4.4,3.4-4.5,5.2
				c-0.1,1.3,2.2,4.1,3,4.9c2.9,3,5.9,4.9,5.4,12.3c-0.7,1.9-2.5,2.3-4,3.3c-1.1,0.8-1.6,3.2-3.5,3.4c-0.7-0.3-0.3-1.7-0.5-2.3
				c-0.3-0.9-1.7-1.3-2.7-2.2c-0.7-0.7-1.1-1.9-1.6-2.6c-0.7-0.8-1.8-1-2.7-1.6c-0.5-0.4-1-1.6-1.5-1.6c-0.9,0-0.6,1.1-0.8,2.8
				c-0.2,1.7-1.3,3-0.9,5c0.1,0.8,1,1.5,1.4,2.3c0.7,1.4,0.8,3,1.5,3.8c0.5,0.5,1.3,0.6,1.8,1.1c1.1,0.9,3,2.9,3.4,4.1
				c0.4,1.3,0,2.8,0.3,4.2c0.3,1.6,2.1,2.7,1,4.3c-1-0.2-1.8-1-2.7-1.6c-1.4-1-2-1.9-3-3.7c-0.3-0.5-0.7-1-0.8-1.5
				c-0.4-1.1-0.3-2.3-0.6-3.7c-0.3-1.2-1.4-3-2.3-3.9c-0.7-0.8-2-1.3-2-2.5c-0.1-1.6,0.5-3.6,0.4-5.5c0-0.4-0.3-0.8-0.3-1.3
				c-0.1-0.9,0.1-2.1-0.1-2.9c-0.2-0.8-0.6-1.5-0.9-2.2c-0.3-0.7-0.6-1.4-0.8-2.3c-0.4-1.4-0.9-4.2-1.8-4.3c-1-0.1-2,2.3-3.4,2.3
				c-0.7,0-1.6-0.6-1.7-1.5c-0.1-0.8,0.3-1.5,0.3-2.3c0-1.6-1-2.3-1.7-3.4c-0.3-0.5-0.4-1.1-0.6-1.5c-0.5-0.7-1.4-1-1.9-1.7
				c-0.6-0.7-1.2-1.6-1.4-2.2c-0.4-1-0.5-2.2-1.1-2.3c-0.6-0.1-1.2,0.9-1.8,1.1c-0.6,0.2-2.2,0.6-2.8,0.6c-2.1,0.2-3.7-0.5-3.5,2.5
				c-0.3,1.3-1.5,1.3-2.3,2c-1,0.8-1.7,2.4-2.8,3.7c-0.5,0.6-1.3,1-1.7,1.6c-0.4,0.5-0.5,1.3-0.9,1.7c-1.1,1.2-2.7,1.3-3.5,3.1
				c0,2,0.8,3.6,0.6,5.5c-0.1,0.9-0.6,1.7-0.7,2.6c-0.1,0.8,0.3,1.6,0.1,2.5c-0.1,0.4-0.5,0.7-0.8,1.2c-0.3,0.5-0.4,1.1-0.6,1.5
				c-0.3,0.5-0.9,0.9-1.2,1.4c-0.5,0.7-0.6,1.3-1.1,1.4c-2.2,0.4-2.8-4.7-3.8-6.9c-0.5-1-1.4-1.9-1.8-3.1c-0.5-1.4-0.7-3.1-1.4-4.7
				c-0.6-1.3-1.5-2.7-1.9-4.1c-0.4-1.2-0.7-2.6-1-3.9c-0.4-1.4-0.8-3.1-0.8-4.2c-0.1-1.6,0.3-2.6-0.8-3.2c-1,0.3-1.4,1.5-2.6,1.5
				c-1.1,0-4-2.3-3.2-4.3c-0.7-1.2-2.5-1.9-3.9-3.3c-0.8-0.8-1.5-2.8-2.9-2.9c-0.4,0-0.9,0.2-1.2,0.2c-0.9,0.1-2.4-0.1-3.4,0
				c-1.2,0.1-2.7,0.4-4.3,0.2c-1-0.1-2.2-0.4-3.3-0.5c-1.3-0.2-3-0.5-3.8-1.4c-0.5-0.5-0.6-2.1-1.4-2.3c-0.9-0.3-1.5,0.6-2.3,0.9
				c-1.9,0.5-3.4-0.5-4.7-1.5c-0.9-0.7-1.7-1.1-2.4-1.6c-1.6-1.2-1.8-5-4.2-5c-0.8,0-2.1,0.6-2.2,1.7c-0.1,0.8,0.8,2.2,1.1,2.8
				c1.1,1.9,3.3,2.7,3.9,5.3c0.4,0.2,1.3-0.4,1.7,0.1c0.4,1.1,0,3.2,0.9,3.7c4.2,0.8,5.5-2,7.4-3.9c1.1,0.9,0.7,1.6,1.1,2.6
				c0.4,1,1,1.7,1.7,2.1c0.5,0.2,1.2,0,1.9,0.4c0.5,0.2,2.5,2.5,2.6,3.3c0.1,0.7-1.3,3.2-1.7,3.8c-0.4,0.6-1,0.9-1.2,1.5
				c-0.1,0.4-0.1,1.3-0.2,1.6c-0.2,0.5-1.1,1.1-1.6,1.7c-0.6,0.6-1.2,1.1-1.7,1.6c-0.6,0.6-1,1.4-1.7,1.7c-1.4,0.6-2.7,0.3-3.8,1.2
				c-0.7,0.6-0.7,1.9-1.6,2.6c-0.9,0.7-2.5,0.7-3.9,1.5c-0.9,0.5-1.4,1.4-2.1,1.7c-0.3,0.1-0.7,0-1,0.1c-0.7,0.2-1.3,0.8-1.9,1
				c-0.5,0.2-1,0.1-1.5,0.2c-1.6,0.5-3,2.5-4.6,1.3c-0.7-2.1-0.9-4.7-1.7-6.5c-0.4-0.9-1.3-1.2-1.6-2.2c0-0.8,0.7-0.6,0.8-1.2
				c-0.3-1.3-1.3-1.9-1.9-3.1c-0.3-0.5-0.5-1.3-0.8-2c-1.2-2.1-3.6-3.2-4.1-5.9c-0.1-0.7,0-1.3-0.1-1.8c-0.2-0.9-0.7-1.9-1.2-2.6
				c-0.4-0.5-1.2-0.9-1.6-1.7c-0.3-0.5-0.4-1.3-0.6-1.8c-1-2.3-2.5-4.3-4.1-5.9c-0.8,0.1-1.7,0.2-2.1,0.9c0.4,1.6,1.1,3,1.7,4.3
				c0.6,1.2,1.5,2.5,1.9,3.9c0.2,0.5,0.1,1.2,0.3,1.7c0.6,1.9,2.7,2.5,3.1,4.8c0.3,1.5-0.1,2.5,0.3,4.1c0.4,1.4,2.1,2.3,2.9,3.7
				c0.6,1.1,0.6,2.7,1,3.8c0.6,1.6,2.3,2.3,3.6,3.3c1.1,1,1.9,2.4,2.9,3.4c0.5,0.6,1.3,0.7,1.4,1.4c0.2,0.8-0.3,1.1-0.4,1.8
				c0.8,1,1.5,2.8,2.9,2.9c0.5,0.1,1.2-0.6,2-0.7c0.4-0.1,0.9,0.1,1.2,0c0.5-0.1,1-0.7,1.6-0.9c1-0.3,2.3-0.2,3.6-0.4
				c1.2-0.2,2.1-1.5,3.1-1.1c1.1,1.4,0.3,3,0,4.3c-0.1,0.5-0.1,1-0.2,1.4c-0.6,2.2-2,3.8-2.7,5.8c-0.2,0.6-0.2,1.3-0.4,2
				c-0.8,2-2.3,3.9-3.6,5.5c-0.7,0.9-1.3,1.7-2,2.5c-0.7,0.7-1.6,1.1-2.5,1.8c-1.6,1.4-3.3,3.5-4.5,5.4c-0.4,0.7-0.7,1.6-1.1,2.2
				c-0.7,0.9-1.7,1.3-2.2,2.2c-0.4,0.7-0.7,1.9-1.2,3.2c-0.6,1.4-1.7,2.4-1.5,4.3c0.1,0.7,0.6,1.2,0.8,2c0.3,1.3,0.1,2.4-0.1,3.8
				c0.6,1.7,1,3.6,2,4.7c0.1,2.5-0.2,4.9,0,7c0.1,1.3,0.5,2.3,0.1,3.6c-0.4,1.1-1.9,3-2.8,3.7c-1,0.7-2.4,0.9-3.5,1.8
				c-0.7,0.6-1.3,1.7-2,2.5c-1.2,1.2-2.9,2.3-3,3.6c-0.1,0.7,0.5,1.8,0.6,2.5c0.4,1.8,0.8,4.4,0.1,6.4c-0.7,2.1-4.5,1.7-4.9,3.9
				c-0.1,0.7,0.3,1.2,0.2,2c0,0.6-0.7,2.9-1,3.6c-0.5,1-1.5,1.5-2.1,2.3c-0.8,1.1-1.3,2.7-2.1,3.8c-1.2,1.6-2.8,3.2-4.4,4.5
				c-1.4,1.2-3.8,2.4-5.9,2.6c-1.2,0.1-2.6-0.4-3.9-0.1c-0.5,0.1-1,0.6-1.6,0.7c-0.4,0.1-0.7-0.1-1.1,0c-0.6,0.1-1.2,0.7-1.8,0.7
				c-1.3,0-3-1.9-3.1-3.8c0-0.7,0.5-1.4,0.5-2.1c0-0.8-0.8-1.8-1.4-3.2c-0.6-1.4-0.8-2.9-1.4-4c-0.6-1.2-1.5-1.8-1.9-2.7
				c-0.9-1.9-1-4.1-1.3-6.4c-0.1-0.7-0.5-1.5-0.6-2.5c-0.1-1.1,0.1-2.4-0.1-3.3c-0.2-0.7-0.8-1.5-1.2-2.3c-0.7-1.6-1.2-3.7-1.8-4.9
				c-0.6-1.2-1.7-2.4-1.8-3.7c-0.1-0.9,0.1-2.6,0.2-3.4c0.1-0.9,0.6-1.5,0.8-2.5c0.1-0.6,0-1.3,0.1-2c0.5-2.8,3.1-3.8,2.8-7.2
				c-0.1-1.4-1-2.2-1.1-3.8c-0.1-0.8,0.3-1.4,0.3-2.2c0-1-0.7-2.6-1.1-3.6c-1-2.7-1.7-5.2-3.2-7.2c-0.8-1.1-1.9-1.9-2.6-2.9
				c-0.5-0.8-1.2-2.4-1.2-3.1c0-0.7,0.4-1.1,0.6-1.8c0.2-0.9,0.2-2.6,0.5-4.1c0.1-0.7,0.7-2.2,0.6-3.3c-0.1-1-1.4-3-2.5-3.3
				c-1.4-0.4-2.9,0.5-4.7,0.4C417.6,208.3,417.8,205.2,415.5,204.8z M472,248.8c0.5-0.9,1.1-3.4,0-4.1c-0.1,0-0.1,0-0.2,0
				C471.4,245.8,470.9,248.2,472,248.8z M470.6,223.1c0.3-0.8,1.2-1.7,1-2.8c-0.3-2.4-4-1.2-4.4,0.5c-0.3,1.1,0.2,2-0.2,3.2
				c0.4,0.9,1.4,1.1,2.7,1C470.4,224.6,470.3,223.9,470.6,223.1z M464.4,235.8c0.4-0.9-0.6-1.5-0.8-2.5c-0.2-1.1,0.2-2.5-0.6-3.1
				c-0.1,0-0.2,0-0.3,0C461.9,232.3,462.9,235.6,464.4,235.8z M534.1,113.8c-0.4-0.9-1.5,0.3-1,1.1C533.8,115,534,114.5,534.1,113.8
				z M510.3,118.9c1.7-0.4,0-3.6-1.2-3.2C507.4,116.2,509.1,119.1,510.3,118.9z M502.7,134.7c0.5-4.3-2.3-4.6-2.8-7.6
				c0.2,0,0.1-0.4,0.3-0.4c0.7-0.4,1.7,0.6,2-0.4c0-1.5-1.5-2.5-3.1-1.8c-0.4-0.4-0.5-1.2-0.6-2c-1.2-0.8-4-2.6-4-4.3
				c0-1.4,1.5-2.1,3.2-2.1c0.7-0.6,0.3-2.6-0.4-3.1c-2.6-0.7-4.1-0.2-5.7,1.2c-0.8,0.7-1.7,1.2-2.1,1.6c-0.4,0.4-1,1.4-0.9,2
				c0.1,0.8,1,1.2,1.3,2.2c0.2,0.5,0.1,1.2,0.3,1.6c0.4,1.2,1.6,2,2.5,2.9c0.6,0.7,2.3,2.2,2.4,3.1c0,0.7-0.5,0.9-0.7,1.6
				c-0.2,0.7-0.4,2.4-0.3,3.1c0.2,1.3,1.4,1.4,2.4,2c1.1,0.6,2.1,1.6,3.2,1.6C500.8,136,502.1,135.5,502.7,134.7z M478.7,125.9
				c2.8-0.6,1.5-3.4,0.1-4.4c-1.1-0.8-2.3-1.4-3.6-2.3c-0.7-0.5-3.5-1.5-3.5-2.6c0-1.2,2-1.5,1.2-3.6c-1.4-0.4-4.7,0.2-4.5,2.1
				c0.1,1.1,1.2,0.5,1.4,1.6c-1,0.4-2.2,1.6-3.3,1.4c-1.3-0.2-1.6-2.1-2.2-3.2c-1,0-1.6-1.1-2.8-1c-1.2,0.2-1.8,2.3-2.5,3.3
				c-0.3,0.6-0.8,0.8-1,1.3c-0.1,0.3,0,0.8-0.1,1.2c-0.4,1.4-1.3,1.9-1.2,3.1c0.1,1.1,1.1,1.5,1.1,2.5c-0.1,0.9-1.3,0.5-1.2,1.6
				c1.8,1.8,1.9-0.9,2.9-1.2c0.7-0.3,2.2,0.2,3.2,0c0.8-0.2,1.4-1.1,2.2-1.5c0.5-0.2,1.2-0.5,1.9-0.5c3.3-0.2,5.4,2.4,8.2,2.5
				C476,126.1,477.7,126.1,478.7,125.9z M472.1,140.4c0.1-1.3-0.4-2.3-0.5-4.2c-1.9-1.4-3.3,1.3-5.2,1c-1.2-0.2-2-1.8-3.3-1.6
				c-0.7,0.1-1,1.2-1.7,1.3c-1.5,0.3-2.1-1.4-3.7-0.7c-2.2-2-3.2-5.3-3.7-9c-1.2-1.9-3-0.4-3.9,0.9c-0.5,0-1.2-0.4-1.3,0.4
				c-0.4,2.3,2.7,2.5,2.7,4.1c0,1-1.2,0.9-1.7,1.6c-0.6,0.7-0.2,1.4-0.9,1.8c-2,0.3-2.7-1-2.7-3.2c-0.9-1.6-2-2.7-2.8-4.1
				c-0.3-0.5-0.7-1.2-0.8-2c-0.1-0.6,0.2-1.3,0.1-2c-0.2-1.2-2-2.1-3.2-2.7c-1.2-0.7-2.7-1.3-3.6-2.2c-0.6-0.6-0.9-1.7-1.4-2.1
				c-0.5-0.3-1-0.3-1.4-0.6c-0.6-0.5-0.5-1.3-1.2-1.5c-0.4-0.2-1,0.5-1.2,0.9c-0.5,2.7,1.3,2.9,2.1,4.1c0.6,0.8,0.9,2,1.4,2.6
				c0.6,0.6,1.5,0.5,2.2,0.9c0.5,0.3,0.9,1.1,1.4,1.5c1,0.7,2.5,0.8,2.7,2.2c-0.6,0.5-2-0.7-2.5,0.5c-0.1,0.8,0.5,1.2,0.5,2
				c0,1.2-1.1,2.5-2.1,2.3c-0.1-0.7,0.5-1.3,0.5-2.1c0-1.6-2.7-3.9-4-4.7c-0.6-0.3-1.4-0.4-1.9-0.7c-1-0.7-2.8-2.3-3.4-3.3
				c-0.7-1.2-1.4-3.3-3-3.2c-0.7,0-1.2,0.8-1.7,1.1c-0.5,0.3-1,0.6-1.5,1c-0.6,0.5-1.1,1-1.6,1c-1.3,0.1-2.4-1.1-3.5-0.9
				c-0.4,0.1-0.7,0.5-1.1,1c0,0.7,0.2,1.2,0.1,2c-0.3,0.7-1.3,0.6-2,1.1c-1.1,0.7-2,2-2.9,3.1c-0.6,0.7-1.1,1.2-1.1,1.7
				c-0.1,0.4,0.3,1.2,0.2,1.7c-0.1,0.6-1,1.8-1.6,2.3c-0.4,0.3-0.8,0.3-1.2,0.6c-0.8,0.6-1.2,1.3-1.8,1.5c-1.8,0.4-5-0.4-5,1.8
				c0,1.5,1.7,1.5,2.8,1.5c1.4-0.1,2.7,0.4,3.5,0.1c0.6-0.2,1.2-0.9,1.7-1.2c0.4-0.2,0.7-0.2,1-0.4c0.6-0.4,1-1,1.4-1.2
				c0.9-0.5,2.7-0.9,3.7-1c1.4-0.1,2.8,0.2,4.6,0c0.6-0.1,1.3-0.5,1.9-0.6c1.1-0.1,2.6,0.5,3.5,0.5c0.6,0,1.3-0.8,2-0.7
				c0.8,0,1.7,0.7,1.8,1.4c0.1,0.4-0.2,0.9-0.1,1.5c0.1,0.9,0.8,1.3,0.7,1.8c-0.1,0.8-1.6,1.8-1.4,2.7c0.1,0.6,1.3,1.2,1.8,1.6
				c0.6,0.4,1.6,1,2.2,1.1c0.6,0.1,1.1-0.2,1.6-0.1c0.9,0.1,2.3,0.8,2.9,1.2c1,0.8,0.8,2.1,1.9,2.6c0.5,0.2,1.3,0.1,1.9,0.2
				c1.5,0.4,2.6,1.9,3.7,1.7c1.7-0.2,0.9-2.2,1.1-3.6c0.4-3.1,5.5-3,6.5-0.9c0.7,0.2,1.4,0,2.2,0.4c0.5,0.2,0.9,0.8,1.3,1
				c0.4,0.1,0.9-0.1,1.3,0c2,0.3,3.7,2,5.4,1.7c1.1-0.2,1.8-1.4,2.9-1.5c2-0.1,3.2,1.7,5.3,0.9c1.6-0.7,1.2-2.6,1.7-4.5
				C471.4,142.3,472.1,141.4,472.1,140.4z M582.3,98.5c0.4-1.6-0.2-3.1-1-4.2c-1.2,0.2-0.3,1.7-0.4,2.6c-0.1,1.2-1.2,2.1-1.1,3.3
				c-0.4,0.6-1.1,0.8-1.1,1.7c0.6,0.5,0.9-0.4,1.4-1C580.9,100.1,582.1,99.5,582.3,98.5z M555.6,55.9c-1.1,0-1.5,0.5-2.2,1
				c-0.4,0.2-1.2,0.4-0.9,1.1C553.4,57.8,555.3,57.3,555.6,55.9z M512.4,71c2.4,0.7,3.5-2.6,1.9-4.4c-0.4-0.4-1.6-0.6-2.1-1.6
				c-0.6-1.2-0.5-2.8-2-2.5c0,0.1,0,0.3-0.1,0.4c-0.1,2.7,3.1,3.4,3.1,5.5C513.1,69.5,512.1,69.6,512.4,71z"/>
			<path fill="#455A64" d="M478.8,66.3c-0.3-1.3,1.8-1.1,1.4,0.1C479.9,66.8,479,66.8,478.8,66.3z"/>
			<path fill="#455A64" d="M466.2,139.7c0-1,2-1.4,2.3-0.5C468.4,140.2,466.6,140.9,466.2,139.7z"/>
			<path fill="#455A64" d="M431.2,133.1c1.1-1,3.4-0.3,4.9-0.4c-0.3,0.9-0.3,2.2-0.9,2.7C433.5,135.1,431.9,134.6,431.2,133.1z"/>
			<path fill="#455A64" d="M423.7,126.6c1.4-1.8,2.9-0.8,2.4,2.6c-0.3,1-1.8,2.4-2.5,0.9C423.8,128.9,423.7,128,423.7,126.6z"/>
			<path fill="#455A64" d="M425.7,122.7c0.1,1-0.2,1.5-0.7,1.8C423.7,124.2,424.7,121.3,425.7,122.7z"/>
			<path fill="#455A64" d="M405.9,97.7c0.1-0.7-0.3-1.6-0.9-2c-0.3-0.2-0.8-0.1-1.2-0.4c-1-0.7-1.4-2-1.9-2.3c0.1-1.3-0.3-2.3,0-3.2
				c0.2-0.5,1.5-2,2.2-2.3c0.9-0.4,1.8,0,2.4-0.9c0.2,0,0.4,0,0.5,0.1c0,0.8-0.5,0.9-0.6,1.6c0.1,1.1,1.8,0.4,1.9,1.5
				c-0.2,1.1-1,1.4-1,2.2c0,0.7,1.2,2.1,1.8,3.1c0.4,0.7,1.2,1.2,1.6,2c0.4,0.6,0.4,1.4,0.7,1.7c0.5,0.6,1.8,0.7,1.8,1.6
				c0.1,1.2-1.2,1.6-1,2.9c-1.4,1.3-3.7,0.6-6,1c-1,0.2-2.2,1.4-3.3,0.4c-0.3-0.8,0.9-0.9,1-1.7c-0.1-0.7-0.8-0.6-1-1.2
				c0.3-1,1.2-1.2,1.1-2.6C404.6,98.5,405.7,98.8,405.9,97.7z"/>
			<path fill="#455A64" d="M398.2,94.8c1.4-1,3.8-0.2,3.9,1c0.1,0.9-0.7,1.1-1,2.1c-0.3,0.9,0.1,2.1-0.3,2.7
				c-0.3,0.6-1.2,0.5-1.7,0.7c-1.3,0.5-3.8,2.3-4.8,0.2c0.1-1.1,1-1.3,1.3-2.2c0-0.7-0.6-1.1-0.5-1.8c0.1-0.9,0.7-0.6,1.5-1
				C397.2,96.2,397.5,95.4,398.2,94.8z"/>
			<path fill="#455A64" d="M328.4,68.1c0.2,1.1-2.7,2.5-3,1.1C325.2,68.1,327.7,66.7,328.4,68.1z"/>
			<path fill="#455A64" d="M325,345c-0.5,0-1,0-1.5,0C323.8,344.8,324.8,344.8,325,345z"/>
			<path fill="#455A64" d="M320.4,59.4c0.1-0.2,0.5-0.2,0.6,0c-0.1,0.3-0.2,0.6-0.6,0.5C320.4,59.7,320.4,59.6,320.4,59.4z"/>
			<path fill="#455A64" d="M311.4,79c0,0.7-2,1.8-2.3,0.5c0-0.2,0-0.7,0.4-1C310.1,78.1,311.3,78.3,311.4,79z"/>
			<path fill="#455A64" d="M268.8,193c-0.1,0.2-0.2,0.3-0.2,0.5C267.5,193.5,268.5,191.8,268.8,193z"/>
			<path fill="#455A64" d="M227.3,107.2c0.7-0.5,1.4,0.8,0.9,1.4C227.5,108.7,227.3,107.6,227.3,107.2z"/>
			<path fill="#455A64" d="M338.7,111.7c-0.5-0.1-1.1-0.1-1.7-0.2c-0.5-0.1-1.1-0.3-1.6-0.4c-1.3-0.2-2.6,0.3-3.4-0.6
				c1.2-1.9,2.8-3.9,4.4-5.5c0.5-0.5,1.5-0.8,1.2-1.8c-0.9-0.9-1.9,0.1-2.8,0.6c-0.9,0.6-1.9,1.4-2.9,1.6c-1.7,0.3-3.9-0.6-5.3,0.5
				c-0.2,0.9,1.6,0.6,1.3,2c-0.7,0.1-1.3,0.2-1.8-0.4c-0.5-0.5-0.2-1.3-0.5-1.6c-0.5-0.5-2.5-0.7-3.4-0.5c-1.1,0.2-2,1-2.1,2.1
				c1.3,0.7,3.4-0.7,3.9,1.1c-0.7,1.5-2.4,2.4-2.1,4.4c0.1,0.8,0.9,1.8,1.4,2c0.6,0.1,0.9-0.6,1.4-0.5c0.6,0.1,0.4,0.9,1.1,0.7
				c1-0.5,1.5-2.2,2.7-2.1c1.4,2-1.2,2.9-2.7,3.6c-1.6,0.7-3.8,1.1-5,1.7c-0.7,0.3-3.1,3.2-3.5,1c-0.3-1.6,1.2-1.1,1.5-2.5
				c-1.6-0.4-3.1,0.8-4.5,1.5c-2.1,0.9-5.5,1.5-6,4.3c-0.1,0.6,0.2,1.6-0.1,2c-0.2,0.3-1.7,0.4-2.4,0.6c-1,0.4-1.8,1.3-2.5,1.5
				c-0.5,0.2-1.1,0.1-1.4,0.2c-0.8,0.4-1.1,1.7-2,2.6c-0.4,0.4-1.2,0.6-1.5,1c-0.5,0.6-0.6,2.2-1.5,2.5c-0.6,0.1-1.1-0.5-1.6-0.1
				c-0.1,1.6,0.5,3.7-0.1,5.3c-1.2,1.2-2.5,2-4.1,3.1c-0.9,0.6-1.6,0.7-2.7,1.4c-0.7,0.4-1.4,1.5-2.2,2.1c-2,1.4-4.3,3-4.3,6.5
				c0,0.8,0.3,1.6,0.4,2.5c0,0.5-0.1,1,0,1.6c0.1,1.3,0.9,2.9,0,3.8c-1.4-0.7-3.1-0.9-4.1-2.1c-0.3-1.2,0.5-2.2,0.4-3.3
				c-0.1-0.9-1.1-2.5-1.7-2.6c-0.6-0.1-1.2,0.7-1.8,0.6c-0.8-0.1-1.5-1.3-2.5-1.5c-1.4-0.2-2.5,0.4-4.1,0.1c-1.5,1-2,2.8-3.9,2.6
				c-0.7-0.1-1.3-0.7-2-0.9c-0.8-0.2-2.1-0.6-3-0.5c-1.7,0.1-3,1.6-4.5,2.6c-1.3,0.8-3.2,1.9-3.6,3.6c-0.2,0.9,0,2.2-0.3,3.1
				c-0.2,0.6-0.6,1.1-0.8,1.6c-1.1,2.5-2.1,5.8-1.2,9.5c0.1,0.5,1.3,3.6,1.7,4.2c0.5,0.7,2.1,1.7,3,1.7c0.7,0,1.6-0.5,2.4-0.6
				c0.8-0.2,1.9-0.2,2.7-0.5c2.2-0.8,1.8-4.4,4-5.7c1-0.5,2.1-0.6,3.8-0.7c0.5,0.5,0.8,1.5,0.7,2.3c-0.1,0.6-0.6,1.2-0.8,2.1
				c-0.2,0.8-0.3,1.7-0.5,2.3c-0.3,0.8-1,1.4-1.2,2.2c-0.2,0.5-0.1,1.1-0.2,1.6c-0.2,0.8-1.1,1.4-0.7,2.2c2.2,1,4.8-0.3,6.7,0.1
				c0.8,0.2,2.5,1.3,2.5,2.8c0,1.1-0.7,1.8-0.8,3.1c-0.1,1.5-0.7,3.4-0.7,4.7c-0.1,2,2.5,5.6,4.3,5.5c1.9,0,3.1-2.3,5.4-1.1
				c0.8,0.4,1.6,1.9,2.5,1.8c0.7-0.1,1.8-1.6,2.2-2.6c0.6-1.3,0.6-2.3,1.6-2.9c1.1-0.7,2-0.4,3.4-1c0.6-0.3,1.2-0.8,1.7-1.2
				c0.5-0.4,1-1.5,1.6-0.7c0.8,1-1,1.5-0.3,2.6c1.4,0.9,2.1-1.7,3.2-1.7c0.3,0,1.5,0.8,2,1.2c0.8,0.6,1.1,1.5,1.9,1.7
				c0.6,0.1,1.5-0.3,2.2-0.1c1,0.2,1.7,1.3,2.5,1.2c1,0,1.4-1.3,2.2-1.5c1.8-0.4,2.5,0.2,3.3,1.6c0.9,0.2,0.9-1.2,1.7-0.7
				c-0.4,1.1,0.2,1.6,0.5,2.5c0.2,0.6,0.2,1,0.4,1.2c0.5,0.6,1.4,0.6,2.1,1.1c0.8,0.6,1.2,1.6,2,2.8c0.9,1.2,2.4,2.5,3.6,2.6
				c1.1,0.1,2-0.4,3-0.2c2.1,0.3,3.4,1.6,4.9,2.9c0.8,0.8,1.6,1.3,1.8,2.2c0.2,0.6,0.1,1.5,0.3,2.2c0.5,1.5,2.3,2.3,1.6,4.9
				c0.3,0.8,1,1.1,1.7,1.6c0.6,0.4,1.1,1.3,1.7,1.5c0.4,0.1,0.9-0.1,1.2-0.1c1.2,0.1,2,0.6,3,1.1c0.6,0.3,1.4,0.4,1.8,0.7
				c0.5,0.4,0.6,1.8,1.2,2.2c0.4,0.2,1.3-0.1,2,0c1.1,0.2,2.6,1,3.6,1c0.6,0,1.1-0.3,1.6-0.2c2.5,0.2,3.9,3.8,6.3,4.9
				c0.7,0.3,1.9,0.1,2.5,0.4c0.9,0.5,1.7,3.8,1.7,5.3c0.2,4.5-2.6,5.9-4.3,8.8c-0.3,0.6-0.5,1.6-1,2.5c-1,1.7-2.1,2.1-1.9,5.3
				c0,0.9,0.4,1.7,0.4,2.7c0,1.2-0.1,2.7-0.3,3.8c-0.2,0.8-0.7,1.5-0.8,2.2c-0.1,0.7,0.2,1.3,0.1,2c-0.1,0.7-0.7,1.7-1.1,2.7
				c-0.9,2.1-1.2,4.6-3.1,5.4c-1.1,0.5-2.7,0.2-3.9,0.7c-0.5,0.2-1.1,0.8-1.7,1.1c-1.8,1-4.3,2.3-4.8,4.5c-0.4,2,0.6,3.5,0.3,5.8
				c-0.3,0.7-0.7,1.3-1.2,2.1c-0.4,0.7-0.7,1.5-1.1,2.2c-0.6,0.9-1.6,1.3-1.9,2.6c-0.1,0.4,0,0.9-0.2,1.6c-0.1,0.2-0.4,0.6-0.6,1.1
				c-0.2,0.4-0.2,1-0.3,1.4c-0.5,1.1-1.9,3.7-2.9,4.1c-2.1,0.7-4.4-1.1-5.8-0.7c0.2,1.2,1,1.1,1.4,2c0.3,0.5,0.4,1.2,0.8,1.7
				c0.5,0.6,0.9,0.9,0.9,1.6c0.1,1.5-0.9,3-1.5,3.6c-0.6,0.5-1.9,0.8-3,1c-0.8,0.2-2.7,0.2-3.1,0.7c-0.5,0.9,0.3,3-0.1,3.8
				c-0.8,1.8-2.8,0-3.9,0.5c-0.1,0.9,0.2,1.9,0.8,2.3c0.6,0.5,1.6-0.1,2,0.7c-0.2,1.2-1.3,1.4-1.5,2.6c0,1.2,0.3,1.5,0.2,2.2
				c-0.3,1.6-2.3,1.5-2.2,3.2c0.1,2.5,4,1.5,4.1,3.9c0,1.5-1.1,1.5-1.5,2.9c-0.2,0.8,0.1,1,0,1.6c-0.2,0.9-1,1.1-1,2.1
				c0,1.2,1.4,2.5,2.1,3.4c0.7,1,1.6,2.3,2.6,2.9c1.4,1,3.6,0.7,4.2,2.5c-0.2,1-1,1.3-1.8,1.6c-0.1,0-0.1,0-0.2,0
				c-0.3-0.2-1.3-0.2-1.5,0c-0.5,0-1,0-1.4,0c-1.4-0.8-3-1.2-4.7-2c-0.6-0.3-1.3-0.9-1.9-1.2c-0.5-0.3-1-0.4-1.4-0.6
				c-0.9-0.6-1.9-2.4-2.8-3.1c-0.5-0.4-1.4-0.7-1.7-1.1c-0.3-0.4-0.5-1.3-0.8-1.8c-0.3-0.6-0.9-1-1.3-1.6c-0.8-1.4-1.9-3.2-1.9-4.2
				c0-1,0.8-1.6,0.5-2.6c-0.3-0.9-1.8-0.7-2-1.7c-0.1-0.6,0.5-1.7,0.4-2.6c0-0.5-0.8-1.2-0.5-2c0.4-0.9,1.1,0.1,1.6-0.4
				c-0.4-1.8,0-4.6-1.4-5.2c-0.8,0.8,0.8,2.5-0.5,3c-1.2-0.7-0.9-2.6-1.2-4.1c-0.2-0.9-0.6-1.8-0.6-2.8c0-0.5,0.2-1.2,0.1-1.7
				c-0.2-1.7-1.7-3-1.8-4.7c0-0.8,0.4-1.5,0.5-2.3c0.1-0.6-0.1-1.2,0-1.8c0.1-0.8,0.4-1.5,0.5-2.2c0.1-1.3,0-3.7-0.2-4.8
				c-0.3-1.4-1.2-2.6-1.3-4.2c0-0.6,0.2-1.5,0.1-2.2c0-0.7-0.4-1.3-0.4-2.1c-0.1-0.7,0.1-1.4,0.2-2.2c0.1-1.5-0.3-3.3-0.2-4.8
				c0-0.5,0.2-0.8,0.2-1.2c0-1.3-0.4-2.5-0.4-3.8c-0.1-2.3,0.2-4-0.1-6.1c-0.2-1.6-0.5-4.1-1-5.2c-0.5-1.1-2.7-3.1-3.8-3.8
				c-0.7-0.5-1.6-0.6-2.4-1.1c-1.7-1-4.9-3.1-5.6-5c-0.2-0.6-0.2-1.3-0.4-2c-0.4-1.3-1.4-2.3-2-3.6c-1.3-2.3-2.3-5.2-3.6-7.6
				c-0.7-1.2-1.2-2.6-1.9-3.6c-0.4-0.6-1.8-1.1-1.9-2c-0.2-1.1-0.9-2.7-0.8-3.6c0.1-1.2,2-2.1,2-3.2c0-0.9-1-1.4-1.2-2.2
				c-0.5-1.9,0.3-3,0.9-4.5c0.2-0.5,0.4-1.3,0.6-1.7c0.4-0.7,1.1-0.9,1.6-1.6c0.3-0.4,0.5-1.3,0.8-1.8c0.8-1.2,2-1.7,2.4-2.8
				c0.3-0.9,0.4-5.5,0.1-7c-0.2-0.9-0.9-1.6-1.1-2.5c-0.5-1.5-0.6-3.1-1.8-3.1c-0.8,0-1.3,1.1-1.8,1.7c-0.1,0.9-0.1,1.8-0.8,2.1
				c-1.2,0.4-1.6-1.5-3-2c-0.5-0.2-1.4-0.2-1.7-0.4c-1-0.5-1.3-2.3-2.4-2.9c-0.9-0.6-1.6-0.4-2.1-1.2c-0.2-0.6,0-1.7-0.1-2.5
				c-1.1-0.8-2.1-3.7-3.4-4.4c-0.9-0.5-2.2-0.4-3.3-0.9c-0.5-0.2-0.9-0.5-1.4-0.6c-0.7-0.2-1.3-0.2-1.8-0.5c-2-1.2-3.1-5.1-5.6-5
				c-1.1,0-2.1,1.2-3.1,1.2c-1,0-2.6-0.9-3.8-1.6c-1.3-0.7-2.6-1.1-3.7-1.7c-0.8-0.5-1.4-1.5-2.1-1.8c-0.6-0.3-1.4-0.4-1.8-0.6
				c-0.7-0.4-1.3-1.2-2.1-1.8c-0.8-0.6-1.6-1.6-1.6-2.5c0-1,0.7-1.8,0.8-2.7c0.3-2.9-1.5-5-2.7-6.8c-0.8-1.3-1.8-2.4-2.7-3.6
				c0-0.8,0-0.9,0-1.7c-0.6-0.7-1.2-1.8-1.8-2.9c-0.6-1-1.8-2.1-1.9-3.2c-0.2-1.4,0.4-2.6,0-3.9c-0.7-2.2-3.3-1.2-3,1.7
				c0.1,0.8,1,1.9,1.3,2.7c0.3,0.8,0.2,1.8,0.5,2.8c0.3,0.9,1.1,1.8,1.3,2.8c0.4,1.7,0.4,3.5,0.8,4.5c0.4,0.9,1.6,1.8,0.9,2.9
				c-1,0.2-1.3-0.9-1.9-1.6c-0.3-0.4-1.6-1.1-1.7-2c-0.2-0.7,0.4-1.7,0.2-2.6c-0.4-1.7-3.3-1.8-3.3-3.6c0-1.1,1.2-1.3,1.2-2.3
				c0-1.2-1.3-2.2-1.6-3.2c-0.3-0.9-0.3-2.4-0.4-3.7c-0.1-1.2,0-2.6-0.2-3.6c-0.2-0.8-1.3-2-1.9-2.5c-0.9-0.6-1.6-0.4-2-1.2
				c-0.4-0.8-0.6-2.4-0.7-3.2c-0.1-1.5,0-3.1-0.1-4.7c-0.1-1.6-0.2-3.1,0-4.8c0.5-1.2,1.4-1.8,1.9-2.9c0.4-0.8,0.4-1.8,0.8-2.7
				c0.7-1.6,2.4-3.1,3.5-4.7c1.2-1.7,2.3-3.3,3-5.3c0.2-0.7,0.9-2.2,0.8-3.1c-0.1-1.2-2-2.2-1.8-3.6c0.1-0.9,1.1-0.9,1.4-1.7
				c0.2-0.4,0.3-1.7,0.3-2.2c0-1.2-0.5-2.4-0.3-3.7c0.2-1.1,1.5-1.5,0.8-2.7c-0.7-1.2-1.9,0.6-2.7-0.1c-0.7-0.7,0.1-1.5,0.2-2.8
				c0-0.5-0.2-1.1-0.2-1.5c0.1-0.5,1-1.5,0.7-1.8c-0.6-0.8-1.2-3-2.4-3.7c-1.5-0.9-3.1-0.3-5.2-0.7c-1.3-0.3-1.9-1.7-3.1-1.6
				c-0.7,0.1-1.1,1.1-2.1,1.6c-1,0.5-2.3,0.3-3.3,0.6c-1,0.3-1.4,1.1-2.5,1c-0.8-0.1-0.8-1-1.8-1.1c-0.4,0-1.1,0.3-1.7,0.4
				c-1.6,0.2-4.4,0.3-6-0.1c-1.5-0.4-2.4-0.9-4-1.8c-1.2-0.7-3.5-1.5-3.4-2.6c0.1-0.7,2.1-1.4,3-1.7c1.3-0.5,2.2-1.3,3.2-1.4
				c0.4,0,0.9,0.3,1.4,0.2c0.5,0,1.2-0.6,1.8-0.7c1.4-0.2,3.4,0.1,3.3-1.6c-1.1-1-5.5,0.8-5.6-1.5c-0.1-1.4,1.7-1.8,3-2.1
				c1.2-0.3,3-0.8,4-0.7c1.2,0.1,2.7,1.6,3.4-0.1c0.3-1.3-0.4-2.3-0.6-3.3c0.9-1.4,2.5-1.3,3.7-1.5c1.4-0.2,2.5-0.5,3.9-1.2
				c1.2-0.6,2.5-1,3.9-1.2c1.4-0.2,2.7-0.8,4-1c1-0.1,2,0,3-0.2c0.9-0.2,1.8-0.8,2.8-0.7c0.6,0,1.2,0.6,1.8,0.7
				c0.6,0.1,1.3,0,1.9,0.1c0.5,0.1,0.9,0.5,1.4,0.6c0.8,0.1,1.6-0.1,2.4,0c0.7,0.1,1.3,0.6,1.9,0.7c1.6,0.2,3.4-0.1,4.9,0.2
				c0.6,0.1,1.1,0.5,1.7,0.6c0.6,0.1,1.3,0,1.8,0.1c0.8,0.2,1.5,1.1,2.4,1.2c1.6,0.2,3.4-0.8,5-1c1.2-0.1,2.4,0.1,3.7-0.2
				c1.1-0.3,2.2-0.8,3.3-0.9c0.6,0,1,0.2,1.5,0.1c0.5-0.1,1.2-0.8,1.7-0.7c0.8,0.1,0.6,1.3,1.4,1.6c0.9-0.6,1.8,0,2.8,0
				c1,0,1.8-0.6,2.9-0.4c1.9,0.4,4.5,2.5,5.9,1.4c0.4-0.3,0.3-0.8,0.6-1.6c0.5-1.1,1.3-2.3,1.1-3.8c-2,0-4,1.2-6.3,1.4
				c-2.4-1.8,0.6-2.9,2.4-3.7c1.4-0.7,2.5-2.2,4.3-2.5c1.4-0.2,3,0.4,4.7,0.6c1,0.1,2-0.1,2.6,0.1c1,0.4,1.5,1.6,2.4,1.8
				c0.4,0.1,0.9,0.1,1.4,0.2c0.9,0.3,1.7,0.8,2.7,0c0.7,0.2,0.8,1.1,1.5,1.2c0.7-0.4,1.2-1.6,2.2-1.8c0.5-0.1,0.9,0.1,1.4,0
				c0.8-0.2,1.9-1.5,2.5-0.2c-0.2,0.9-1.3,1-1.9,1.7c-0.5,0.6-1.4,2.1-1.3,2.7c0.1,1.2,1.6,0.7,1.6,2.2c-0.2,0.9-1,0.5-1.7,0.9
				c-0.6,0.4-0.9,1.1-1.5,1.2c-1.9,0.4-3.4-0.6-5-0.5c-0.1,0.8,0.8,1.3,1.2,1.6c1.5,0.9,2.6,0.8,4.7,0.7c1.1,0,2.3,0.4,3.2-0.4
				c0.6-0.5,0.5-1.5,1-2.1c0.6-0.7,1.9-1.4,2.8-1.2c0.5,0.1,1.1,0.8,1.1,1.2c0,1.1-1.3,0.8-1.3,2c0.9,0.6,3.1-0.7,3.3-1.7
				c0.1-0.8-0.7-1.2-0.7-2c0-1.3,1.5-1.3,1.3-2.6c-0.7-0.7-1.4,0.1-2.1,0c-1-0.2-1.9-1.6-2.4-2.6c0.4-0.7,1.4-0.2,2-0.1
				c0.8-1.2,2.2-1.7,4.1-2c0.7-0.1,1.6-0.4,1.9,0.4c0.2,1.2-1.4,1.9-1.1,3.2c1.4,0.4,1.8-1.8,3-2.7c0.5-0.4,1.2-0.7,1.9-1
				c0.6-0.3,1.3-1,1.8-1c0.6,0,0.7,0.6,1.2,0.9c0.5,0.3,1.2-0.2,1.3,0.6c-1.2,2.5-5.6,1-6.7,3.6c0.3,1.7-0.7,3.3,0.1,4.4
				c0.6,0.8,1.8,0.3,2.1,1.1c0.4,1.1-1.2,1.1-0.8,2.5c1.1,0.8,2.4-0.7,3.4-1.3c1.1-0.7,2.4-1.4,2.6-2.9c-0.5-1.2-2.6-0.3-2.9-1.6
				c-0.2-0.7,0.6-2.3,0.8-2.6c1.1-1.4,4.8-3.5,7.5-3.2c0.5,0.1,1,0.4,1.5,0.5c1.8,0.2,3.8-0.9,5.2,0c1.1-0.8,2.4,0.1,4-0.1
				c1.2,0.8,0.9,2.6,2.7,3.4c0.5,0.2,1.1,0.1,1.7,0.2c0.5,0.1,1,0.8,1.5,1.1c0.8,0.4,1.4,0.3,1.5,1c0.2,0.6-0.6,1.1-0.5,1.7
				c0.4,0.4,0.1,1.1,0.3,1.7c0.4,1.1,1.6,1.1,2.7,1.6c0.8,0.4,2.4,1.6,2.4,2.5c0,0.6-1.6,1.7-2,2c-0.3,0.2-2.1,1.2-2.7,1.1
				c-1-0.2-1.3-2.5-2.7-2.5c-0.6,0-1.1,0.4-1.1,1.4c0,1.6,1.5,1.7,1.5,3.1c0,1.7-0.8,1.8-1.9,2.8c-0.8-0.4-1.6-1-2.7-1.1
				c-0.7,0.9,1.1,1.3,0.5,2.5c-1.6,0.4-2.9-0.6-4.4-1.1c-0.5-0.2-1.1-0.1-1.5-0.4c-0.6-0.4-0.8-1.6-1.2-2.2
				c-0.6-0.7-1.7-1.7-2.6-1.7c-1.3,0-3.1,1.9-4.1,0.1c0.7-2.8,4-0.7,6.1-1.7c0.8-0.4,1.1-1.4,1.7-1.8c1.3-0.9,3.5-1,3.3-2.8
				c-0.1-0.9-1.2-0.9-1.7-1.4c-0.8-0.6-1.4-2.8-2.6-2.9c-0.6-0.1-1,0.5-1.6,0.6c-1.3,0.1-2.8-0.6-4,0c-0.6,0.4-0.2,1-0.6,1.7
				c-0.4,0.6-1.2,0.8-1.5,1.4c-0.4,0.7-0.3,1.6-0.8,2.1c-0.8,0.9-2.6,1-3.7,1.5c-0.5,0.2-1.1,0.9-1.5,0.9c-0.8,0-1.2-1.4-2.1-0.9
				c-0.1,1.3,1.2,1.8,1.9,2.5c0.8,0.7,1.7,1.3,2,2.5c-0.8,2.1-2.2-0.1-3.5-0.1c-1.5,0-3.6,3.3-4.8,0.6c0.3-1.4,1.6-1.7,1.9-3.1
				c-1.4,0.3-2.7,1.8-4.4,2.2c-0.7,0.2-1.4,0.1-2,0.4c-1.2,0.4-2.1,1.5-3.4,2.1c-0.5,0.2-1.1,0.2-1.6,0.4c-1.2,0.5-2.7,1.4-4,2.2
				c-1.3,0.8-2.8,1.7-3.6,2.6c-0.4,0.5-1.6,2.1-1.5,2.6c0.1,0.7,1.2,1,1.2,1.7c0,0.5-0.7,1.4-0.2,2.1c0.4,0.6,1.3,0.1,2.1,0.2
				c1.6,0.2,2.6,1.8,3.8,2.6c0.9,0.6,2.3,1.3,3.3,1.5c1.4,0.2,3-0.5,3.2,0.9c0.2,1.3-1.3,1.8-1.4,2.6c0.8,1.2-0.5,1.8-0.5,2.8
				c0,0.9,0.9,2.1,1.6,2.2c1,0.1,2.5-1.2,3-2.5c0.5-1.5,0.3-3.5,1.2-4.5c4.8,0.2,8.8-2.6,8.5-8.5c0-0.6-0.3-1.3-0.2-2
				c0.1-0.9,1.5-1.7,1.3-2.9c1.3-0.5,1.3-3.1,2.7-3.4c1.2-0.3,2.5,1,4,0.9c0.5,0,1.1-0.6,1.6-0.5c1,0.2,1.6,1.6,2.4,2.3
				c0.7,0.6,1.4,0.4,1.5,1.2c-0.2,1.4-1,1.4-0.9,2.7c0.1,1.1,1,2,1.5,2.1c0.7,0.2,1.8-0.3,2.6-0.7c1.4-0.8,2.5-3.1,3.7-2.8
				c0.9,0.2,1.6,3.7,1.7,4.9c0.1,1.3-0.1,2.3-0.1,3.6c0.1,2.1,2.3,1.9,3.4,2.9c0.3,0.3,0.4,1.2,0.7,1.6c0.5,0.8,1.1,0.8,1.2,1.7
				c0.2,2.1-1.6,2.3-1.4,4.7c-0.4,0.9-1.3,0.9-1.2,2.1c0.1,1.9,2.4,0.5,3.1,2c0.3,0.8-0.1,1.4-0.3,2.6c0.8,1.1,0.8,2.9-0.6,2.9
				C339.8,113.1,339.6,112,338.7,111.7z M228.2,108.6c0.5-0.6-0.2-1.9-0.9-1.4C227.3,107.6,227.5,108.7,228.2,108.6z M299.6,119.7
				c-0.4-0.5-1.8-0.4-2.8-0.2c-0.7,0.1-1.5,0.3-1.5,0.9C296.4,120.9,299.3,121.3,299.6,119.7z M294.3,117.6c0.8-0.8,0.4-2.3-0.4-2.6
				c-0.3-0.1-0.8,0.3-1.3,0.2c-0.6-0.1-1.2-0.7-1.6-0.7c-0.8-0.1-1.6,0.4-1.9,0.9c0,0.7,0.4,0.9,0.4,1.6c-1,0.9-0.5,3.7,0.5,3.8
				c1,0.1,1.6-3.2,3-3.4C293.4,117.3,293.6,117.7,294.3,117.6z M292.8,122.6c-1.5-0.6-2.8,0.4-4,0.6c-0.7,0.1-2-0.2-1.8,1.1
				c0.1,1,1.5,0.7,2.2,0.4C290.9,124,291.9,123.5,292.8,122.6z M288.4,113.2c2-1-0.4-4.3-1.3-4.5c-1.7-0.5-4,1.5-5.9,2.1
				c-1.1,0.4-2.1,0.4-2.4,1.5c1,1.9,2.9-0.4,4.3-0.1c0.7,0.2,1.1,1.3,1.8,1.5C285.4,113.7,288.2,113.3,288.4,113.2z M286.9,115.2
				c-0.4-0.6-2.7,0.1-3.4,0.6c-0.5,0.4-0.8,1.3-1.2,2c-0.5,0.7-1,1.2-1.4,1.8c-0.4,0.5-2.4,4.1-0.8,4.5c0.7,0.2,2.1-1.6,2.2-2.2
				c0.5-2.3,1.3-3.9,2.8-4.9C285.9,116.4,286.8,116.5,286.9,115.2z M274.1,101.4c1.1,0,1.9-4.1,0-3.6
				C272.9,98.2,272.6,101.5,274.1,101.4z M268.6,193.5c0.1-0.2,0.1-0.3,0.2-0.5C268.5,191.8,267.5,193.5,268.6,193.5z M225.4,90.7
				c0-0.2-0.1-0.3-0.1-0.5c-0.3,0-0.7-0.1-0.6,0.4C224.8,91,225.2,91,225.4,90.7z M332.8,71.5c0.5,0.1,0.8-0.1,0.7-0.7
				C333.1,70.3,332.4,70.8,332.8,71.5z M321.1,59.4c-0.1-0.2-0.5-0.2-0.6,0c0,0.2,0,0.3,0,0.5C320.9,60,321,59.7,321.1,59.4z
				 M282.2,68.9c0.3-0.3,0.9-0.6,0.6-1.2c-1.1-0.6-3-0.2-4.7-0.4c-0.9-1.6-2.5-1.9-2.7,0.7C277.4,69.9,280.3,67.2,282.2,68.9z
				 M263.9,81.5c0.6-0.2,1.4-0.1,1.5-0.9c-0.5-0.5-1-1.1-1.5-1.1c-0.7,0-1.1,0.8-1.8,1.2c-0.9,0.5-2.1,0.7-2.1,1.6
				C261.5,82.8,262.9,81.9,263.9,81.5z M263.4,72.7c0.7-0.1,1.3,0.2,1.7-0.5c-0.5-2.7-3.6-1.1-5.4-0.9c-0.4,0.8-0.9,1.4-1,2.5
				C260.1,74.2,261.8,73,263.4,72.7z M294.1,198.2c0.8-0.2,0.6-2.4-0.4-1.8C292.9,196.8,293.3,198.4,294.1,198.2z"/>
			<path fill="#455A64" d="M225.3,90.2c0,0.2,0.1,0.3,0.1,0.5c-0.2,0.3-0.6,0.2-0.7-0.1C224.6,90.2,225,90.2,225.3,90.2z"/>
			<path fill="#455A64" d="M222.2,97.5c-0.2,0.8-0.8,1.2-1.4,1.5c-0.2-0.2-0.4-0.4-0.5-0.6C220.3,97.2,221.7,96.3,222.2,97.5z"/>
		</g>
	</g>
</g>
<g id="Locators">
	<path fill="#E8505B" d="M256.7,125.2c0-6.3-6.6-10.3-13.4-7.1c-1.5,0.7-2.8,1.9-3.5,3.4c-1.7,3.3-0.9,7,0.6,10.2l5.2,13.3
		c0.8,1.9,3.5,1.9,4.2,0l5.1-13.4C256.8,127.4,256.7,125.2,256.7,125.2z M250.4,130.6c-4.5,2.6-9.1-2.2-6.6-7
		c0.3-0.6,0.8-1.2,1.4-1.5c4.5-2.6,9.1,2.2,6.6,7C251.5,129.8,251,130.3,250.4,130.6z"/>
	<path fill="#E8505B" d="M453.9,183.6c0-6.3-6.6-10.3-13.4-7.1c-1.5,0.7-2.8,1.9-3.5,3.4c-1.7,3.3-0.9,7,0.6,10.2l5.2,13.3
		c0.8,1.9,3.5,1.9,4.2,0l5.1-13.4C454,185.9,453.9,183.6,453.9,183.6z M447.6,189.1c-4.5,2.6-9.1-2.2-6.6-7c0.3-0.6,0.8-1.2,1.4-1.5
		c4.5-2.6,9.1,2.2,6.6,7C448.7,188.2,448.2,188.7,447.6,189.1z"/>
	<path fill="#E8505B" d="M579.9,117.2c0-6.3-6.6-10.3-13.4-7.1c-1.5,0.7-2.8,1.9-3.5,3.4c-1.7,3.3-0.9,7,0.6,10.2l5.2,13.3
		c0.8,1.9,3.5,1.9,4.2,0l5.1-13.4C579.9,119.5,579.9,117.2,579.9,117.2z M573.5,122.7c-4.5,2.6-9.1-2.2-6.6-7
		c0.3-0.6,0.8-1.2,1.4-1.5c4.5-2.6,9.1,2.2,6.6,7C574.6,121.8,574.1,122.3,573.5,122.7z"/>
</g>
<g id="Character">
	<g>
		<g>
			<g>
				<g>
					<g>
						<g>
							<path fill="#E8505B" d="M269.4,442.9l-4.6-8.9l-16.7,8.5l6.6,13l1.1-0.5c4.7-2.1,23.9-10.9,26.5-13.4
								C285.2,438.9,269.4,442.9,269.4,442.9z"/>
						</g>
					</g>
					<g opacity="0.5">
						<g>
							<path fill="#FFFFFF" d="M260.7,452.4c-0.9-1.3-2.4-2.2-3.9-2.5c-1.6-0.3-3.2-0.1-4.5,0.8l2.4,4.7L260.7,452.4z"/>
						</g>
					</g>
				</g>
				<g opacity="0.4">
					<g>
						<path fill="#FFFFFF" d="M277.2,441.2c0,0,5.7-1.1,5.5,0c-0.2,1.1-19.2,10.8-28,14.3l-0.2-0.4l22.3-11.1
							C276.9,444.1,276.3,441.7,277.2,441.2z"/>
					</g>
				</g>
				<g>
					<g>
						<g>
							<path fill="#263238" d="M254.3,455.3c0,0,0.1,0,0.3-0.1c0.3-0.1,0.5-0.2,0.8-0.4c0.8-0.4,1.9-0.9,3.1-1.4
								c2.6-1.2,6.2-2.9,10.1-4.9c3.9-2,7.4-3.9,9.9-5.2c1.2-0.7,2.2-1.2,3-1.7c0.3-0.2,0.6-0.3,0.8-0.5c0.2-0.1,0.3-0.2,0.3-0.2
								c0,0-0.1,0-0.3,0.1c-0.2,0.1-0.5,0.3-0.8,0.4c-0.8,0.4-1.8,1-3,1.6c-2.5,1.4-6,3.2-9.9,5.2c-3.9,2-7.5,3.7-10.1,5
								c-1.2,0.6-2.2,1.1-3.1,1.5c-0.3,0.2-0.6,0.3-0.8,0.4C254.4,455.3,254.3,455.3,254.3,455.3z"/>
						</g>
					</g>
				</g>
				<g>
					<g>
						<g>
							<path fill="#263238" d="M277,444.4c0.1,0-0.3-0.8-0.2-1.7c0.1-1,0.5-1.7,0.4-1.7c0,0-0.6,0.6-0.7,1.7
								C276.5,443.6,276.9,444.4,277,444.4z"/>
						</g>
					</g>
				</g>
				<g>
					<g>
						<g>
							
								<ellipse transform="matrix(-9.524707e-002 0.9955 -0.9955 -9.524707e-002 738.1319 216.0218)" fill="#263238" cx="270.9" cy="443.4" rx="0.9" ry="0.1"/>
						</g>
					</g>
				</g>
				<g>
					<g>
						<g>
							
								<ellipse transform="matrix(-0.3604 0.9328 -0.9328 -0.3604 780.2565 352.1894)" fill="#263238" cx="269.4" cy="443.6" rx="0.8" ry="0.1"/>
						</g>
					</g>
				</g>
				<g>
					<g>
						<g>
							
								<ellipse transform="matrix(-0.8965 0.443 -0.443 -0.8965 705.0109 720.8657)" fill="#263238" cx="268.3" cy="442.8" rx="1" ry="0.1"/>
						</g>
					</g>
				</g>
				<g>
					<g>
						<g>
							<path fill="#263238" d="M266.6,442.2c0,0.1,0.5,0,1.1-0.2c0.6-0.2,1-0.6,0.9-0.6c0-0.1-0.5,0.2-1,0.4
								C267.1,442.1,266.6,442.2,266.6,442.2z"/>
						</g>
					</g>
				</g>
				<g>
					<g>
						<g>
							<path fill="#263238" d="M270.6,442.6c0,0,0.4-0.1,1.1-0.6c0.3-0.2,0.7-0.5,1-0.8c0.2-0.2,0.4-0.3,0.5-0.6
								c0.1-0.1,0.1-0.3,0.1-0.5c0-0.2-0.2-0.3-0.4-0.3c-1.3,0-2,1.1-2.1,1.8c-0.1,0.4,0,0.7,0,0.9c0.1,0.2,0.1,0.3,0.1,0.3
								c0,0-0.1-0.5,0-1.2c0.1-0.3,0.3-0.7,0.6-1.1c0.3-0.3,0.8-0.6,1.3-0.6c0.2,0,0.3,0.3,0.1,0.5c-0.1,0.2-0.3,0.4-0.5,0.6
								c-0.3,0.3-0.7,0.6-1,0.8C271,442.4,270.6,442.6,270.6,442.6z"/>
						</g>
					</g>
				</g>
				<g>
					<g>
						<g>
							<path fill="#263238" d="M270.9,442.5c0,0,0-0.3-0.3-0.8c-0.1-0.2-0.4-0.5-0.7-0.6c-0.3-0.1-0.7-0.3-1.2-0.1
								c-0.2,0.2-0.2,0.5-0.1,0.7c0.1,0.2,0.3,0.3,0.4,0.4c0.3,0.2,0.6,0.3,0.8,0.4C270.5,442.6,270.8,442.6,270.9,442.5
								c-0.1,0-0.4-0.1-0.9-0.2c-0.2-0.1-0.5-0.2-0.8-0.4c-0.3-0.2-0.6-0.5-0.3-0.7c0.3-0.2,0.7,0,0.9,0.1c0.3,0.1,0.5,0.3,0.7,0.5
								C270.9,442.2,270.9,442.5,270.9,442.5z"/>
						</g>
					</g>
				</g>
				<g>
					<g>
						<g>
							<path fill="#263238" d="M252.3,450.6c0,0,0.5-0.3,1.3-0.6c0.8-0.3,2-0.5,3.2-0.3c1.3,0.3,2.3,0.9,2.9,1.5
								c0.6,0.6,0.9,1.1,0.9,1c0,0,0-0.1-0.2-0.3c-0.1-0.2-0.3-0.5-0.6-0.8c-0.6-0.6-1.6-1.4-3-1.6c-1.3-0.3-2.6,0-3.4,0.3
								c-0.4,0.2-0.7,0.3-0.9,0.5C252.4,450.5,252.3,450.6,252.3,450.6z"/>
						</g>
					</g>
				</g>
				<g>
					<g>
						<g>
							
								<ellipse transform="matrix(-0.4417 -0.8972 0.8972 -0.4417 -36.6836 869.5995)" fill="#263238" cx="252.2" cy="446.2" rx="3.8" ry="0.1"/>
						</g>
					</g>
				</g>
				<g>
					<g>
						<g>
							<path fill="#263238" d="M262,449.7c0,0.1,1.2-0.3,2.6-1c1.4-0.7,2.4-1.4,2.3-1.4c0-0.1-1.1,0.6-2.4,1.2
								C263.1,449.2,262,449.6,262,449.7z"/>
						</g>
					</g>
				</g>
				<g>
					<g>
						<g>
							<path fill="#263238" d="M258.7,451.3c0,0.1,0.2,0.2,0.4,0.4c0.2,0.2,0.4,0.4,0.5,0.4c0.1,0,0-0.3-0.3-0.5
								C259,451.3,258.7,451.3,258.7,451.3z"/>
						</g>
					</g>
				</g>
				<g>
					<g>
						<g>
							
								<ellipse transform="matrix(-0.9486 -0.3166 0.3166 -0.9486 358.4816 959.4166)" fill="#263238" cx="257.2" cy="450.6" rx="0.5" ry="0.1"/>
						</g>
					</g>
				</g>
				<g>
					<g>
						<g>
							<path fill="#263238" d="M254.6,450.6c0,0.1,0.3-0.1,0.5-0.1c0.3,0,0.5,0,0.6-0.1c0-0.1-0.2-0.2-0.6-0.2
								C254.8,450.3,254.5,450.6,254.6,450.6z"/>
						</g>
					</g>
				</g>
				<g>
					<g>
						<g>
							
								<ellipse transform="matrix(-0.995 0.1001 -0.1001 -0.995 550.7892 874.171)" fill="#263238" cx="253.5" cy="450.9" rx="0.3" ry="0.1"/>
						</g>
					</g>
				</g>
			</g>
		</g>
		<g>
			<g>
				<g>
					<g>
						<g>
							<path fill="#E8505B" d="M160.4,449.9l4-9.2l-17.1-7.5l-6,13.3l1,0.5c4.6,2.3,23.6,11.6,27.1,12
								C173.5,459.6,160.4,449.9,160.4,449.9z"/>
						</g>
					</g>
					<g opacity="0.5">
						<g>
							<path fill="#FFFFFF" d="M147.5,449.2c0.4-1.5,0.2-3.2-0.6-4.6c-0.8-1.4-2-2.5-3.4-3l-2.1,4.8L147.5,449.2z"/>
						</g>
					</g>
				</g>
				<g opacity="0.4">
					<g>
						<path fill="#FFFFFF" d="M166.7,454.9c0,0,4.4,3.7,3.4,4.3c-1,0.6-20.5-8.1-28.8-12.6l0.2-0.4l22.7,10.3
							C164.2,456.4,165.6,454.5,166.7,454.9z"/>
					</g>
				</g>
				<g>
					<g>
						<g>
							<path fill="#263238" d="M141.2,446.1c0,0,0.1,0.1,0.3,0.2c0.2,0.1,0.5,0.3,0.8,0.4c0.8,0.4,1.8,0.9,3,1.5
								c2.6,1.3,6.2,2.9,10.2,4.7c4,1.8,7.7,3.3,10.3,4.4c1.2,0.5,2.3,0.9,3.2,1.2c0.3,0.1,0.6,0.2,0.9,0.3c0.2,0.1,0.3,0.1,0.3,0.1
								c0,0-0.1-0.1-0.3-0.1c-0.3-0.1-0.5-0.2-0.9-0.4c-0.9-0.4-1.9-0.8-3.1-1.3c-2.6-1.1-6.3-2.7-10.3-4.4c-4-1.8-7.6-3.4-10.2-4.7
								c-1.2-0.6-2.2-1.1-3.1-1.4c-0.3-0.1-0.6-0.3-0.8-0.4C141.3,446.1,141.2,446,141.2,446.1z"/>
						</g>
					</g>
				</g>
				<g>
					<g>
						<g>
							<path fill="#263238" d="M164,456.7c0.1,0,0.4-0.7,1.2-1.2c0.8-0.6,1.6-0.7,1.6-0.7c0-0.1-0.9-0.1-1.7,0.5
								C164.3,455.9,164,456.7,164,456.7z"/>
						</g>
					</g>
				</g>
				<g>
					<g>
						<g>
							
								<ellipse transform="matrix(-0.8315 0.5555 -0.5555 -0.8315 545.452 737.3616)" fill="#263238" cx="160.9" cy="451.4" rx="0.9" ry="0.1"/>
						</g>
					</g>
				</g>
				<g>
					<g>
						<g>
							
								<ellipse transform="matrix(-0.9506 0.3105 -0.3105 -0.9506 451.5541 828.7803)" fill="#263238" cx="159.8" cy="450.3" rx="0.8" ry="0.1"/>
						</g>
					</g>
				</g>
				<g>
					<g>
						<g>
							
								<ellipse transform="matrix(-0.91 -0.4146 0.4146 -0.91 119.09 923.7996)" fill="#263238" cx="159.8" cy="449" rx="1" ry="0.1"/>
						</g>
					</g>
				</g>
				<g>
					<g>
						<g>
							<path fill="#263238" d="M159.1,447.3c0,0,0.3,0.4,0.9,0.7c0.6,0.3,1.1,0.4,1.1,0.3c0-0.1-0.5-0.2-1-0.5
								C159.6,447.5,159.2,447.3,159.1,447.3z"/>
						</g>
					</g>
				</g>
				<g>
					<g>
						<g>
							<path fill="#263238" d="M161.4,450.7c0,0,0.4,0.3,1.1,0.5c0.4,0.1,0.8,0.2,1.3,0.3c0.2,0,0.5,0.1,0.8,0
								c0.1,0,0.3-0.1,0.4-0.2c0.1-0.1,0.1-0.4,0-0.5c-0.8-1-2.1-0.9-2.8-0.5c-0.3,0.2-0.6,0.4-0.7,0.6c-0.1,0.2-0.2,0.3-0.2,0.3
								c0,0,0.3-0.4,0.9-0.7c0.3-0.2,0.7-0.3,1.2-0.2c0.4,0.1,1,0.3,1.3,0.7c0.1,0.2,0,0.4-0.3,0.4c-0.2,0-0.5,0-0.7,0
								c-0.5,0-0.9-0.1-1.3-0.2C161.8,450.8,161.4,450.6,161.4,450.7z"/>
						</g>
					</g>
				</g>
				<g>
					<g>
						<g>
							<path fill="#263238" d="M161.6,450.9c0,0,0.3-0.2,0.5-0.7c0.1-0.3,0.1-0.6,0.1-0.9c-0.1-0.3-0.2-0.8-0.7-1
								c-0.3-0.1-0.5,0.2-0.6,0.4c-0.1,0.2-0.1,0.4,0,0.6c0,0.3,0.1,0.7,0.2,0.9C161.3,450.6,161.5,450.8,161.6,450.9
								c-0.1-0.1-0.2-0.4-0.4-0.8c-0.1-0.2-0.1-0.5-0.2-0.9c0-0.3,0-0.8,0.3-0.7c0.3,0.1,0.4,0.5,0.5,0.8c0.1,0.3,0.1,0.6,0,0.9
								C161.8,450.6,161.6,450.8,161.6,450.9z"/>
						</g>
					</g>
				</g>
				<g>
					<g>
						<g>
							<path fill="#263238" d="M143.6,441.5c0,0,0.5,0.2,1.2,0.6c0.7,0.4,1.7,1.2,2.3,2.4c0.6,1.1,0.7,2.4,0.6,3.2
								c-0.1,0.8-0.3,1.4-0.2,1.4c0,0,0.1-0.1,0.2-0.3c0.1-0.2,0.2-0.6,0.2-1c0.1-0.9,0-2.1-0.6-3.3c-0.6-1.2-1.6-2-2.4-2.4
								c-0.4-0.2-0.7-0.3-1-0.4C143.8,441.5,143.6,441.5,143.6,441.5z"/>
						</g>
					</g>
				</g>
				<g>
					<g>
						<g>
							
								<ellipse transform="matrix(0.4159 -0.9094 0.9094 0.4159 -313.1132 389.8938)" fill="#263238" cx="147" cy="438.7" rx="3.8" ry="0.1"/>
						</g>
					</g>
				</g>
				<g>
					<g>
						<g>
							<path fill="#263238" d="M150.4,448.4c0,0.1,1,0.7,2.4,1.4c1.4,0.6,2.6,1,2.6,0.9c0-0.1-1.1-0.5-2.5-1.1
								C151.5,449,150.5,448.4,150.4,448.4z"/>
						</g>
					</g>
				</g>
				<g>
					<g>
						<g>
							<path fill="#263238" d="M147.1,447c-0.1,0,0,0.3,0,0.6c0,0.3,0,0.6,0,0.6c0.1,0,0.2-0.2,0.2-0.6
								C147.3,447.2,147.1,446.9,147.1,447z"/>
						</g>
					</g>
				</g>
				<g>
					<g>
						<g>
							
								<ellipse transform="matrix(-0.3544 -0.9351 0.9351 -0.3544 -217.6943 740.2809)" fill="#263238" cx="146.7" cy="445.3" rx="0.5" ry="0.1"/>
						</g>
					</g>
				</g>
				<g>
					<g>
						<g>
							<path fill="#263238" d="M145,443.3c0,0.1,0.2,0.2,0.4,0.4c0.2,0.2,0.3,0.4,0.4,0.4c0.1,0,0-0.3-0.2-0.6
								C145.3,443.3,145,443.2,145,443.3z"/>
						</g>
					</g>
				</g>
				<g>
					<g>
						<g>
							
								<ellipse transform="matrix(-0.7067 -0.7075 0.7075 -0.7067 -67.2105 857.3592)" fill="#263238" cx="144.1" cy="442.6" rx="0.3" ry="0.1"/>
						</g>
					</g>
				</g>
			</g>
		</g>
		<g>
			<g>
				<path fill="#D88876" d="M242.1,278.6c0.7,0.2,1.6,0.4,2.6,0.6c0.9,0.2,1.8,0.2,2.7,0.1c1.1-0.2,2.5-0.4,3.3-0.8
					c0.9-0.5,1.9,0.4,1.5,1.3c-0.4,0.8-2.9,2.2-6.3,2.4c-3.3,0.2,0.9,3.3,2.4,4.4c1.5,1.2,6.1,5,6.1,5.7c0,1.1-1.2,1.3-2.6,0.1
					c-1.5-1.2-6.2-4.5-6.8-3.6c-0.6,0.8,7.3,6.6,7.3,6.6s1.9,1,1.2,2c-1.1,1.8-9-5-9.7-5.7c-0.5-0.5-1.2,0.4-0.6,0.9
					c0.6,0.5,7.9,5.6,6.8,7.4c-0.9,1.4-6.5-5.5-8.6-5.7c-2.1-0.2,4.8,4.8,3.9,6.1c-0.3,0.5-0.6,0.8-4.2-2.7
					c-1.7-1.7-4.5-5.1-6.9-8.2l0,0c0,0-14.7-12.7-22.5-27.1c0,0-8-23.6-9.3-35.7l17.2-3.6c0,0,3.8,23.5,6.9,31.1
					C229.5,261.9,242.1,278.6,242.1,278.6z"/>
			</g>
		</g>
		<g>
			<g>
				<path fill="#455A64" d="M179.6,203.2h-19.4c-5.1,0-9.2-4.1-9.2-9.2v-3.4c0-5.1,4.1-9.2,9.2-9.2h19.4c5.1,0,9.2,4.1,9.2,9.2v3.4
					C188.8,199.1,184.7,203.2,179.6,203.2z"/>
				<g>
					<path fill="#263238" d="M167.5,201.3c-0.1-0.1,1.6-0.4,3.5-2.2c1-0.8,1.9-2,2.6-3.6c0.7-1.5,1.1-3.4,0.9-5.3
						c-0.2-1.9-1.1-3.6-2.1-4.9c-1-1.3-2.3-2.3-3.4-2.9c-2.3-1.2-4-1.1-3.9-1.3c0,0,0.4-0.1,1.1,0c0.7,0.1,1.8,0.3,3,0.9
						c1.2,0.6,2.5,1.5,3.6,2.9c1.1,1.4,2,3.2,2.3,5.2c0.2,2-0.2,4-1,5.6c-0.8,1.6-1.8,2.8-2.8,3.6c-1,0.8-2,1.3-2.7,1.6
						C167.9,201.3,167.5,201.3,167.5,201.3z"/>
				</g>
				<g>
					<path fill="#263238" d="M178.7,190.4c0,0.1-1,0.1-2.2,0.2c-1.2,0.1-2.2,0.3-2.2,0.1c0-0.1,0.9-0.5,2.2-0.6
						C177.7,190,178.7,190.2,178.7,190.4z"/>
				</g>
				<g>
					<path fill="#263238" d="M179,192c0,0.1-0.9,0.2-1.9,0.3c-1,0.2-1.9,0.5-1.9,0.3c-0.1-0.1,0.7-0.7,1.9-0.9
						C178.1,191.6,179,191.8,179,192z"/>
				</g>
			</g>
			<g>
				<path fill="#263238" d="M177.1,203.2c-4.2-1.1-8.5-2.2-12.9-2.3c-4.4-0.2-8.9,0.7-12.5,3.1c-5.6,3.8-8,10.8-9.3,17.4
					c-2.4,12.1-2.1,24.5-1.8,36.9c0.1,5.2,0.3,10.7,3.3,14.9c4.1,5.8,12.2,7.4,19.3,6.6c7.1-0.8,13.9-3.4,21-3.8"/>
				<g>
					<path fill="#455A64" d="M166.4,225.5c0,0-0.2,0.3-0.7,0.9c-0.5,0.5-1.3,1.3-2.4,2c-2.1,1.6-5.3,3.5-9,5.2
						c-1.8,0.9-3.6,1.6-5.3,2.2c-1.7,0.6-3.2,1-4.6,1c-0.3,0-0.7,0-1-0.1c-0.3-0.1-0.6-0.2-0.8-0.4c-0.4-0.3-0.7-0.7-0.9-1
						c-0.4-0.6-0.6-1-0.6-1c0,0,0.3,0.3,0.8,0.9c0.2,0.3,0.5,0.6,0.9,0.9c0.4,0.3,1,0.4,1.6,0.3c1.3-0.1,2.8-0.5,4.5-1.1
						c1.6-0.6,3.4-1.3,5.3-2.2c3.7-1.7,6.9-3.5,9-5C165.2,226.7,166.3,225.5,166.4,225.5z"/>
				</g>
				<path fill="#263238" d="M141.2,239.6c-5.2,4.7-7,12.7-4.4,19.2c0.4,1,1,2,1.9,2.7c0.9,0.6,2.2,0.7,3.1,0
					c0.7-0.6,0.8-1.7,0.9-2.6c0.4-4.1,0.8-8.1,1.1-12.2c0.2-2.4,0.2-5.1-1.5-6.7"/>
			</g>
		</g>
		<g>
			<g>
				<path fill="#263238" d="M140.2,440.1l21.4,9.9l38.4-68.5c5-18.1,9.8-81.7,9.8-81.7l-27.8,2.1c0,0-4.3,45.7-11,69.2L140.2,440.1z
					"/>
				<g>
					<path fill="#455A64" d="M165.1,443.4c0,0.1-1.3-0.4-3.3-1.3c-2-0.9-4.7-2.1-7.7-3.5c-3-1.4-5.7-2.7-7.7-3.6
						c-1.9-1-3.1-1.6-3.1-1.6c0-0.1,1.3,0.4,3.3,1.3c2,0.9,4.7,2.1,7.7,3.5c3,1.4,5.7,2.7,7.7,3.6
						C163.9,442.7,165.1,443.3,165.1,443.4z"/>
				</g>
			</g>
			<g>
				<path fill="#263238" d="M169.5,274.2c-0.5,0-6.2,16.9-0.7,28c0.6,1.1,4.8,7.3,4.8,7.3c15.1,17.9,30.5,52.5,34.8,61.7
					c8.8,18.7,41.2,80.1,41.2,80.1l20.8-11.9l-30.4-78.2l-27.6-70.6L169.5,274.2z"/>
				<g>
					<path fill="#455A64" d="M182.7,320c0,0,0.3,0.5,0.8,1.6c0.5,1.1,1.2,2.6,2.1,4.3c1.8,3.7,4.3,8.7,7,14.3
						c2.8,5.6,5.2,10.7,6.9,14.4c0.8,1.9,1.5,3.4,1.9,4.4c0.4,1.1,0.7,1.6,0.6,1.7c0,0-0.3-0.5-0.8-1.6c-0.5-1.1-1.2-2.6-2.1-4.3
						c-1.8-3.7-4.3-8.7-7-14.3c-2.8-5.6-5.2-10.7-6.9-14.4c-0.8-1.9-1.5-3.4-1.9-4.4C182.9,320.6,182.7,320,182.7,320z"/>
				</g>
				<g>
					
						<ellipse transform="matrix(0.8938 -0.4485 0.4485 0.8938 -170.4968 162.568)" fill="#455A64" cx="258" cy="441.2" rx="12.1" ry="0.3"/>
				</g>
			</g>
		</g>
		<g>
			<circle fill="#263238" cx="81.3" cy="448.9" r="6"/>
			<polygon fill="#455A64" points="82.6,448.9 86.5,441.6 84.7,440.3 80.8,448 			"/>
			<polygon fill="#455A64" points="123.1,350.4 148.2,292.3 152.4,294.6 128,352.2 			"/>
			<path fill="#E8505B" d="M97.2,448l-27.1-12.1c-1.4-0.6-2-2.3-1.4-3.6l35.8-80.3c3.3-7.4,11.9-10.7,19.3-7.4l5.4,2.4
				c7.4,3.3,10.7,11.9,7.4,19.3l-35.8,80.3C100.2,448,98.6,448.6,97.2,448z"/>
			<polygon fill="#263238" points="141.7,307.2 146.2,309.2 152.9,294.6 148.2,292.3 			"/>
			<g>
				<path fill="#263238" d="M100.8,447.3c0,0,0.1-0.2,0.2-0.5c0.1-0.3,0.4-0.8,0.6-1.5c0.6-1.3,1.4-3.2,2.4-5.6
					c2.1-4.9,5.2-11.9,9-20.5c3.8-8.7,8.3-19,13.3-30.4c2.5-5.7,5.2-11.7,7.9-18c0.7-1.6,1.4-3.1,2.1-4.7c0.7-1.5,1-3.3,0.9-5
					c-0.3-3.4-2.5-6.7-5.8-8.1c-3.2-1.4-7.1-0.9-9.8,1.2c-1.3,1.1-2.4,2.4-3.1,4c-0.7,1.6-1.4,3.2-2.1,4.7c-2.7,6.2-5.4,12.2-7.9,18
					c-5.1,11.4-9.6,21.7-13.4,30.4c-3.8,8.6-6.9,15.6-9.1,20.5c-1.1,2.4-1.9,4.3-2.5,5.6c-0.3,0.6-0.5,1.1-0.7,1.4
					c-0.2,0.3-0.2,0.5-0.2,0.5s0.1-0.2,0.2-0.5c0.1-0.3,0.4-0.8,0.6-1.5c0.6-1.3,1.4-3.2,2.4-5.6c2.1-4.9,5.2-11.9,9-20.5
					c3.8-8.7,8.3-19,13.3-30.4c2.5-5.7,5.2-11.7,7.9-18c0.7-1.6,1.4-3.1,2.1-4.7c0.7-1.6,1.8-3.1,3.2-4.2c2.8-2.2,7-2.8,10.4-1.3
					c3.4,1.5,5.8,4.9,6.1,8.5c0.1,1.8-0.2,3.6-1,5.2c-0.7,1.6-1.4,3.2-2.1,4.7c-2.7,6.2-5.4,12.2-7.9,18
					c-5.1,11.4-9.6,21.7-13.4,30.4c-3.8,8.6-6.9,15.6-9.1,20.5c-1.1,2.4-1.9,4.3-2.5,5.6c-0.3,0.6-0.5,1.1-0.7,1.4
					C100.8,447.1,100.8,447.3,100.8,447.3z"/>
			</g>
			<g>
				
					<ellipse transform="matrix(0.9216 0.3881 -0.3881 0.9216 157.0435 -7.6998)" fill="#263238" cx="97.6" cy="385" rx="7.2" ry="0.3"/>
			</g>
		</g>
		<g>
			<path fill="#E8505B" d="M208.3,198.7c0,0,12.7,0.4,15.3,24.5l0.7,14.6l-5.9,2.5l-11.1-41.1"/>
			<path fill="#E8505B" d="M184.1,198.4c0,0-5.6,0.2-11.1,10.9c-4.4,8.5-7.3,81.2-7.3,81.2l52.7,1.6c0,0-0.4-16.7,0-37.4
				c0.7-34.2,1-49.5-8.4-56C204.2,194.8,194.9,194.7,184.1,198.4z"/>
			<g>
				
					<ellipse transform="matrix(2.344604e-002 0.9997 -0.9997 2.344604e-002 449.475 12.2102)" fill="#263238" cx="218.5" cy="236.2" rx="16.5" ry="0.3"/>
			</g>
			<path fill="#263238" d="M218.3,227.5c0,0,1.9-17.1-2.8-25c0,0,3.1,3.4,4.3,6.1c1.2,2.7,2.7,15.6-1.3,23l0.3-3.5"/>
			<g>
				<path fill="#FAFAFA" d="M217.7,217.7c0,0-0.1,0.3-0.6,0.8c-0.4,0.5-1.2,1-2.3,1.4c-1.1,0.3-2.5,0.5-4,0.2
					c-1.5-0.2-3.1-0.9-4.6-1.6c-1.6-0.7-3-1.4-4.5-1.8c-1.4-0.4-2.7-0.6-3.8-0.5c-2.2,0.1-3.3,1.2-3.4,1.1c0,0,0.2-0.3,0.8-0.6
					c0.5-0.3,1.4-0.7,2.6-0.8c1.1-0.1,2.5,0,4,0.4c1.5,0.4,3,1.1,4.5,1.8c1.6,0.7,3.1,1.3,4.5,1.6c1.4,0.3,2.8,0.2,3.8-0.1
					C216.9,218.9,217.7,217.6,217.7,217.7z"/>
			</g>
			<g>
				<path fill="#FAFAFA" d="M175.5,253.5c0,0.2-1.9-0.5-4.2-0.1c-2.3,0.4-3.9,1.5-4,1.4c-0.1-0.1,1.4-1.5,3.9-1.9
					C173.7,252.5,175.6,253.4,175.5,253.5z"/>
			</g>
			<g>
				<path fill="#FAFAFA" d="M217.5,256.9c0,0.1-0.5-0.2-1.5-0.3c-1-0.1-2.4-0.1-4.1,0.4c-1.7,0.4-3.6,1.3-5.9,2
					c-2.3,0.7-4.8,1.2-7.6,1.3c-5.5,0.2-10.4-1.2-13.6-2.8c-0.8-0.4-1.5-0.8-2.1-1.1c-0.6-0.4-1.1-0.7-1.5-1c-0.8-0.6-1.2-0.9-1.2-1
					c0.1-0.1,1.8,1.3,5,2.7c3.2,1.5,8,2.8,13.4,2.6c2.7-0.1,5.2-0.5,7.4-1.2c2.2-0.7,4.2-1.5,5.9-1.9c1.7-0.4,3.2-0.4,4.2-0.2
					c0.5,0.1,0.9,0.2,1.1,0.3C217.4,256.8,217.6,256.9,217.5,256.9z"/>
			</g>
			<g>
				<path fill="#FAFAFA" d="M217.9,283.1c0,0.1-0.7-0.3-2.1-0.3c-1.4,0-3.3,0.4-5.5,1.4c-1.1,0.5-2.3,1.1-3.7,1.6
					c-1.4,0.5-2.9,0.9-4.5,1c-3.3,0.2-6.9-0.5-10.4-1.7c-3.6-1.2-6.9-2.5-10-3.2c-3.1-0.8-6-0.9-8.4-0.4c-2.4,0.4-4.2,1.3-5.3,2.1
					c-1.1,0.8-1.6,1.4-1.7,1.3c0,0,0.1-0.2,0.4-0.4c0.2-0.3,0.6-0.6,1.2-1.1c1.1-0.8,2.9-1.8,5.3-2.3c1.2-0.2,2.6-0.3,4-0.3
					c1.5,0.1,3,0.3,4.6,0.6c3.2,0.7,6.5,2,10.1,3.2c3.5,1.1,7,1.9,10.2,1.7c1.6-0.1,3.1-0.4,4.4-0.9c1.3-0.5,2.5-1.1,3.7-1.5
					c2.2-1,4.3-1.4,5.7-1.3c0.7,0,1.2,0.2,1.6,0.3C217.8,283,217.9,283.1,217.9,283.1z"/>
			</g>
		</g>
		<g>
			<g>
				<g>
					<g>
						<path fill="#D88876" d="M146.3,296.7c0.6-2.7,2.2-6,4.5-3.6c2.3,2.4,5,3.4,5.9,3.2c0.9-0.2,0.9-1.6,0-2
							c-0.8-0.3-1.9-1.2-2.7-2c-0.7-0.6-1.3-1.3-1.7-2.1c-0.5-0.9-0.9-1.7-1.2-2.4c0,0,4.5-20.4,8.1-27.8c3.7-7.4,19-25.5,19-25.5
							l-14-10.7c-8.3,8.9-20.9,30.4-20.9,30.4c-5.8,15.3-5.8,34.8-5.8,34.8l0.1,0c-0.2,1.1-0.4,2.1-0.6,2.9c-1,4.6,1.9,10.7,6.4,12
							L146.3,296.7"/>
						<g>
							<path fill="#A85547" d="M144.1,302.2c0,0.1-0.6-0.2-1.3-1c-0.6-0.8-1.1-2.2-1.2-3.7c-0.1-1.5,0.1-2.9,0.1-3.8
								c0-1,0-1.6,0-1.6c0.1,0,0.3,0.6,0.3,1.6c0.1,1,0,2.3,0.1,3.8c0.1,1.5,0.5,2.7,1,3.5C143.6,301.8,144.2,302.1,144.1,302.2z"/>
						</g>
						<g>
							<path fill="#A85547" d="M143.3,303.7c0,0.1-0.6,0.1-1.4-0.4c-0.8-0.5-1.5-1.6-2-2.8c-1.1-2.5-1.3-4.7-1.2-4.7
								c0.2,0,0.6,2.1,1.7,4.5c0.5,1.2,1.1,2.3,1.8,2.8C142.8,303.6,143.3,303.6,143.3,303.7z"/>
						</g>
					</g>
				</g>
				<path fill="#E8505B" d="M183.4,198.7c-1.1,0.5-15.5,4-23.1,17.3l-8.8,13.4l25.2,15.6l13.2-33.4L183.4,198.7z"/>
				<path fill="#263238" d="M166.9,205c0,0,25.4-3.4,23.9,16.7c-1.6,20.1-30.5,49.3-30.5,49.3l-0.6,7.7c0,0,25.6-24.9,31-40.7
					c5.4-15.8,8.8-35.4-16-35.5L166.9,205z"/>
			</g>
			<g>
				<path fill="#263238" d="M152.4,229.9c0,0,0.2,0.1,0.5,0.2c0.4,0.2,0.8,0.5,1.4,0.8c1.3,0.7,3,1.7,5.1,3
					c4.3,2.6,10.1,6.1,16.6,9.9l0,0l0.1,0.1c0-0.1-0.1-0.1-0.2-0.1c0,0,0,0,0,0c0,0,0.1,0,0.1-0.1c0.1-0.1,0.1-0.2,0.2-0.2
					c0.1-0.2,0.3-0.4,0.4-0.6c0.2-0.4,0.5-0.8,0.7-1.2c0.4-0.8,0.8-1.6,1.2-2.4c0.8-1.6,1.5-3.1,2.2-4.6c1.4-3,2.6-5.6,3.6-7.9
					c1-2.2,1.8-4,2.3-5.4c0.3-0.6,0.5-1.1,0.6-1.5c0.1-0.3,0.2-0.5,0.2-0.5c0,0,0,0.2-0.1,0.5c-0.1,0.3-0.3,0.9-0.5,1.5
					c-0.5,1.3-1.2,3.1-2.2,5.4c-1,2.3-2.1,5-3.5,7.9c-0.7,1.5-1.4,3-2.2,4.6c-0.4,0.8-0.8,1.6-1.2,2.4c-0.2,0.4-0.4,0.8-0.7,1.2
					c-0.1,0.2-0.3,0.4-0.4,0.6c-0.1,0.1-0.2,0.2-0.2,0.3c0,0-0.1,0.1-0.2,0.2c0,0-0.1,0.1-0.2,0.1c-0.1,0-0.2,0-0.3-0.1l0.1,0.1l0,0
					c-6.4-3.9-12.2-7.4-16.5-10c-2.1-1.3-3.7-2.3-5-3.1c-0.5-0.3-1-0.6-1.3-0.9C152.5,230.1,152.4,229.9,152.4,229.9z"/>
			</g>
			<g>
				<path fill="#FAFAFA" d="M191,217.7c0,0-0.4,0.3-1.1,0.8c-0.7,0.5-1.6,1.4-2.9,2.2c-1.3,0.9-3.3,1.4-5.4,0.9
					c-1-0.2-2.1-0.7-2.9-1.5c-0.9-0.7-1.6-1.7-2.3-2.6c-0.7-0.9-1.4-1.9-2.1-2.7c-0.8-0.8-1.6-1.4-2.5-1.8c-1.8-0.9-3.6-1.1-5.1-1.1
					c-3.1,0.2-4.7,1.5-4.7,1.3c0,0,0.1-0.1,0.3-0.2c0.2-0.1,0.5-0.3,0.9-0.5c0.8-0.4,2-0.8,3.6-1c1.6-0.1,3.5,0.1,5.4,1
					c0.9,0.4,1.9,1.1,2.7,1.9c0.8,0.8,1.5,1.8,2.2,2.7c0.7,0.9,1.4,1.8,2.2,2.5c0.8,0.7,1.8,1.2,2.7,1.4c1.9,0.5,3.8,0,5.1-0.8
					c1.3-0.8,2.2-1.6,3-2.1C190.6,217.9,191,217.7,191,217.7z"/>
			</g>
		</g>
		<g>
			<g>
				<g>
					<g>
						<g>
							<g>
								<path fill="#D88876" d="M198.7,207L198.7,207c5.3,0,9.5-4.6,8.9-9.9c-0.3-2.9-0.6-5.2-0.6-5.2s7.1-1.1,7.2-8.2
									c0.1-7.1-1.1-23.4-1.1-23.4l0,0c-8.2-3.5-17.7-2.3-24.8,3.1l-1.1,0.8l2.5,34.5C190.1,203.4,194,207,198.7,207z"/>
							</g>
							<g>
								<g>
									<circle fill="#263238" cx="211.9" cy="171" r="1"/>
								</g>
								<g>
									<g>
										<path fill="#263238" d="M213.1,170.3c-0.1,0.2-0.9-0.1-1.8,0.2c-0.9,0.3-1.4,1-1.6,0.9c-0.1,0,0-0.3,0.2-0.6
											c0.2-0.3,0.6-0.7,1.2-0.9c0.6-0.2,1.1-0.1,1.5,0C212.9,170.1,213.1,170.2,213.1,170.3z"/>
									</g>
								</g>
							</g>
							<g>
								<g>
									<circle fill="#263238" cx="202.1" cy="172.2" r="1"/>
								</g>
								<g>
									<g>
										<path fill="#263238" d="M202.9,171.5c-0.1,0.2-0.9,0-1.8,0.4c-0.9,0.4-1.3,1.1-1.5,1.1c-0.1,0-0.1-0.3,0.1-0.6
											c0.2-0.3,0.6-0.8,1.1-1c0.6-0.2,1.1-0.2,1.5-0.1C202.7,171.3,202.9,171.5,202.9,171.5z"/>
									</g>
								</g>
							</g>
							<g>
								<g>
									<path fill="#263238" d="M206.5,179.8c0-0.1,0.6-0.2,1.6-0.3c0.3,0,0.5-0.1,0.5-0.2c0-0.2-0.1-0.4-0.2-0.7
										c-0.3-0.6-0.5-1.3-0.8-2c-1.1-2.8-1.8-5.2-1.7-5.2c0.1-0.1,1.1,2.2,2.2,5c0.3,0.7,0.5,1.3,0.7,2c0.1,0.3,0.3,0.6,0.1,1.1
										c-0.1,0.2-0.3,0.4-0.4,0.4c-0.2,0.1-0.3,0.1-0.4,0.1C207.1,179.9,206.5,179.9,206.5,179.8z"/>
								</g>
							</g>
							<g>
								<path fill="#FFFFFF" d="M203.3,180.9c-1-0.6,2.8,1.5,4.8,1.4c0,0-1.1,1.8-3.2,1.1C202.8,182.6,203.3,180.9,203.3,180.9z"/>
							</g>
							<g>
								<path fill="#A85547" d="M207.1,191.8c0,0-4.5,0.4-9.2-2.6c0,0,2.2,5.1,9.3,4.5L207.1,191.8z"/>
							</g>
						</g>
					</g>
					<g>
						<g>
							<path fill="#D88876" d="M187.3,171.1c-0.2,0-5.3-0.4-4.4,5.6c0.9,6,6.6,3.1,6.6,3C189.4,179.5,187.3,171.1,187.3,171.1z"/>
						</g>
						<g>
							<g>
								<path fill="#A85547" d="M187.3,177.8c0,0-0.1,0.1-0.3,0.2c-0.2,0.1-0.4,0.2-0.8,0.1c-0.7-0.1-1.3-1.1-1.5-2.1
									c-0.1-0.5-0.1-1.1,0.1-1.5c0.1-0.5,0.4-0.8,0.7-0.9c0.3-0.1,0.6,0,0.7,0.2c0.1,0.2,0.1,0.3,0.1,0.3c0,0,0.1-0.1,0-0.4
									c0-0.1-0.1-0.2-0.3-0.3c-0.2-0.1-0.4-0.1-0.6-0.1c-0.5,0.1-0.8,0.6-1,1.1c-0.2,0.5-0.2,1.1-0.1,1.7c0.2,1.2,1,2.2,1.9,2.4
									c0.4,0,0.8-0.1,0.9-0.3C187.3,177.9,187.3,177.8,187.3,177.8z"/>
							</g>
						</g>
					</g>
				</g>
				<path fill="#263238" d="M184.2,164.4c0.1,2,1.7,4,2.4,5.8l0,0l0.2,1.2l2,7l2.9-1.3l-1.4-11.4c0,0-0.6-4.4,3.3-4.3
					c3.8,0.2,9.3,4.1,16.7,2.6c1.2-0.3,2.4-0.5,3.4-1.2c1-0.7,1.6-2,1.4-3.2c-0.2-1.2-1.5-2.2-2.7-1.9c1.6-0.1,2.8-2,2.3-3.6
					c-0.6-1.5-2.7-2.2-4-1.3c0.7-0.8,1.5-1.6,1.9-2.7c0.4-1,0.2-2.3-0.7-3c-0.9-0.6-2.1-0.5-3.1,0c-1.5,0.7-2.6,2.1-4.1,2.7
					c-1.5,0.6-3.2,0.5-4.9,0.6c-1.8,0.2-3.6,0.8-5,2.1c-1.4,1.2-2.2,3.1-2,4.9c-2.2-0.1-4.7,0-6.4,1.4
					C186.3,158.9,184.1,160.9,184.2,164.4z"/>
			</g>
			<g>
				<path fill="#263238" d="M202.2,168c-0.1,0.3-1.1,0.2-2.2,0.6c-1.1,0.4-1.8,1.2-2,1.1c-0.1-0.1-0.1-0.4,0.2-0.8
					c0.3-0.4,0.8-0.9,1.5-1.2c0.7-0.3,1.5-0.3,1.9-0.1C202,167.6,202.2,167.8,202.2,168z"/>
			</g>
			<g>
				<path fill="#263238" d="M212.2,166.6c-0.1,0.3-0.8,0.3-1.6,0.6c-0.8,0.2-1.4,0.7-1.6,0.5c-0.1-0.1-0.1-0.3,0.1-0.7
					c0.2-0.3,0.6-0.6,1.2-0.8c0.5-0.2,1.1-0.1,1.4,0C212,166.3,212.2,166.5,212.2,166.6z"/>
			</g>
			<path fill="#263238" d="M190.4,173.9c0.5-1.2,1.8-2,2.3-3.2c0.3-0.7,0.2-1.5,0.1-2.2c-0.2-2.4-0.4-4.8-0.7-7.2
				c0-0.2-0.1-0.4-0.2-0.6c-0.2-0.2-0.7-0.1-1,0c-1.4,0.7-2.4,2.2-2.8,3.7c-0.4,1.5-0.2,3.2,0.2,4.7c0.4,1.5,1.1,3,1.7,4.4"/>
		</g>
		<g opacity="0.3">
			<path d="M167.5,253.3c-0.1-1.9,2.1-3.1,4-3.1c1.9-0.1,4.1,1,5.6-0.1c2.5-1.8,3.9-5.9,4.8-8.5c2.3-6.6,3.4-11.3,4.5-18.3
				c-3.6,7.3-6.9,14-10.5,21.4l-4-2.5c-0.9,0.6-3.3,3.7-3.7,5.4c-0.4,1.7-0.4,3.5-0.6,5.3"/>
		</g>
	</g>
</g>
</svg>
