<svg data-name="Layer 1" xmlns="http://www.w3.org/2000/svg" viewBox="0 0 4491.7 1693.92"><path d="M0 .02c180.7-1.54 356.51 117.07 422.74 285.2 6.86 17.41 12.61 35.2 17.83 53.17 24.18 83.21 41.09 140.83 44.21 152 33.44 119.5 254.3 119.64 404.68 286.8 115 127.87 59.68 209.92 194.38 333.21 52.46 48 134.24 102.74 210 142.42 36.36 19 58.24 28.33 79.65 34.48 88 25.26 170.1 17.09 184.43 15.54 130.72-14.13 146-66.05 256.16-80.21 86.8-11.14 171.41 25.82 255 51.74s167.81 24.12 252.5-12.64c102.82-44.62 157.94-137.59 178.43-172.15 66.35-111.91 38.25-169.6 100.66-208.26 49.48-30.65 84.35-5.06 179.44-47 53.22-23.47 56.4-35.42 86.74-49.62 121.31-56.75 271.1 24.09 337.09 140.63s70 256.83 72.31 390.73c65.26-82.69 200.55-97.56 282.2-31 10.7-102 94-192 194.87-210.64s210.79 35.85 257.15 127.32c85.64-116.94 280.85-107.32 382.13-3.62s118.51 267.65 80.56 407.54H0z" fill="#ffdcc9"/><path fill="#f2c0a5" d="M1829.52 1347.12v47.31H1607.2v26.46h29.64v104.55h-73.09v-229.8H1412.1v67.58l-141.39-.74-112.08 67.55v95.41h-83.11v-79.65H941.37v156.86l622.38 2.46v-2.93h73.09v.47l513.12 2.44v-257.97h-320.44zM3661.06 1605.33c1.34-15.59-29.82-93.32-124.32-70 7.76-25.69-27.13-30-33.31-21.24 0-13.76-.43-28.3-8.61-40-9.45-13.55-27.84-20.7-45.81-21.78s-35.8 3.07-53 7.72c3.36-13-1.63-27.43-12.63-36.55s-27.6-12.61-42.06-8.83c2.93-28.78 5.71-68.54-5.59-95.65s-41-50.55-73.54-47.36c-25.23 2.48-40.53 17.6-48 38.66-3 8.5-4.71 19.12-4.88 31.73-15.22 1.18-23.36 10.4-31.22 22s-10.82 25.27-11.78 38.75c-.3 4.24-1.29 9.54-5.93 10.69a13.37 13.37 0 01-5.88-.38c-27.84-5.9-60.48-4-80.57 14-25.82 23.19-20.09 60.58-23.1 93-.28 3.06-.8 6.37-3.28 8.52-2.33 2-5.79 2.48-9 3.15-21.42 4.55-37.31 24.21-35.22 43.6-16.76-24.28-52.74-36.75-83.7-29 2.3-18.5-3.19-38.17-17.31-52s-37.34-20.64-57.3-14.73c-23.78 7.05-37.47 29.07-44.57 50.33a168.81 168.81 0 00-7.17 76.52z"/><path fill="#f2c0a5" d="M2355.96 1603.39l506.7.35v-114.95h-134.95v58.37h-112.2v-69.92l-73.18-49.51-75.23.54v-49.52h-111.14v224.64z"/><path d="M3103.88 1343.17c-17.41 15.63-34.77 31.31-44.3 40.29-8.48 8-17.89 15.6-21.37 27.19s-3.71 23.94-3.91 36.09c-.82 50.45 4.41 94.08 7.73 159.77l-105.21-1.64c-7.86-83.77-23.61-170.18-35-264.76z" fill="#354675"/><path d="M2888.33 1020.59c.63-7 1.85-21.11 2.6-23.16a6.54 6.54 0 00.58-3.62 7.91 7.91 0 00-2.06-3.14c-6.74-7.87-6.44-19.93-1.28-28.86s14.29-15.1 23.9-19.26c6-2.59 12.3-4.56 17.77-8.07 9.45-6.05 10.83-17.43 11.07-18.62 2.74-13.27-5.35-18.2-3.66-32 1.34-11 7.39-19.59 13.86-23.43s14-3.88 25.93-8.14c9.62-3.42 9.42-4.9 17-7.8 7.29-2.81 24.59-9.45 42.82-3.1 3.53 1.23 16.55 6 24.69 19.45 1.2 2 10.85 18.43 4.77 33.19-2.2 5.34-4.08 4.69-6.26 10.09-4.63 11.53 2.68 17.65 2 30.22-1.07 18.33-17.72 24-14.15 35.81 1.81 6 6.64 6.36 12.35 12.75 5.87 6.58 11.43 18.2 9.36 40.28z" fill="#433b7a"/><path d="M3114.87 1606.48l-72.84-1.12c-3.32-65.42-8.55-108.86-7.73-159.1.2-12.1.43-24.41 3.91-35.95s12.89-19.13 21.37-27.07c9.53-8.94 26.89-24.56 44.3-40.12l28.91.44c6.63 91.47.58 173.16-17.92 262.92z" fill="#354675"/><path d="M3205.5 1222.68c-8.24 13.78-28.21 12.46-36.71 11.17-33.16-47.94-64.16-92.73-64.94-93.86.34 2 22.56 132 31 202l-133.67-.51-102.32-.37c-19.85-127.2-43.85-212-51.84-262.74a179.43 179.43 0 01-2-18c-1.68-31.86 10.63-44.56 49.68-44.35 48.22.25 112.42 1.78 161.06 2.74 23.44.47 48.87 16 62.59 38.39 21.2 34.64 57.71 95 90.49 149.27.34 4.57-.03 10.74-3.34 16.26z" fill="#b5303c"/><path d="M3025.18 1017.9c1.27 1.79 16.42 23.48 7.92 36.83-1.91 3-4.66 5-8.68 6.91-17.73 8.26-49.31 8.23-71.54-11.6a68.5 68.5 0 01-20.34-33.6z" fill="#f2f2f2"/><path d="M2965.84 927.54c-2.17-5.86-11.2-7.3-15.42-2.69s-2.47 13 3 16c1.21.66 2.61 1.14 3.45 2.23 1.07 1.38.95 3.29.78 5-2.18 22.21-4.82 50.51-8.06 72.59 23.72 12.54 35.59 10.35 47.47 9.16 6.95-.7 11.39-3.33 12.32-5.57.37-.88.86-11 .91-11.92l.75-15.6z" fill="#f2f2f2"/><path d="M3042.38 927.42a5 5 0 015.62.19 6.86 6.86 0 012 3 14 14 0 011.14 6.89c-.15 1.58-.4 4.42-2.35 6.49-3 3.16-7.37 1.84-7.74 1.73z" fill="#cccae0"/><path d="M3011.06 996.76l-.5 10.45s-31 22.84-57.46-11.68l5.17-53.53z" fill="#bfbcd6"/><path d="M2959.8 912.4a37.59 37.59 0 0110.46-13.8 38.61 38.61 0 0113.37-6.76c16.36-5 23.52 1.76 35.46-2.76 3.92-1.48 9.61-4.65 15.2-12.41 6.72 4.67 10.89 16.71 10.54 24.24-.6 13.08-1.4 27.27-4.07 57.12a44.52 44.52 0 01-12.16 26.74c-2.73 2.82-13.74 13.36-29.78 12.56-18.29-.91-28.77-15.87-31.41-19.62a51.28 51.28 0 01-9.27-29c.04-2.37.2-10.13 1.66-36.31z" fill="#f2f2f2"/><path d="M3015.24 964.86c-4.64 2.31-11.89 2.32-16.5-.05-2.86-1.47-5.39 2.84-2.52 4.32a25.47 25.47 0 0021.54 0c2.88-1.44.35-5.75-2.52-4.32z" fill="#bfbcd6"/><path fill="#f5cc82" d="M3012.95 1167.62h126.93v192.69h-126.93z"/><path fill="#dea666" d="M3139.88 1167.62h156.26v192.69h-156.26z"/><path fill="#ecb475" d="M3212.7 1190.84h45.24v25.97h-45.24z"/><path fill="#cf9553" d="M3062.78 1167.62h32.72v52.71h-32.72z"/><path d="M3114.06 1360.8s-6 24-16.6 26.17c-8.81 1.78-21.49 3.24-29.94 4.1-18.77 1.91-38.38-6.24-49-22.55-21.72-33.41-41.93-66.11-61.13-98.8a30 30 0 015-10.4 39.9 39.9 0 0115.37-12.14c7.27-3.4 16-4.83 23.44-2.37 18.12 38.61 37.83 76.82 60.5 116l19.45-9.42s5.94 3.69 2.3 9.42z" fill="#f2f2f2"/><path d="M2921.12 1058.76c23.8 62 48.36 123.8 76.56 184 1.37 2.91 5.68.37 4.32-2.52-28-59.81-52.41-121.17-76.06-182.81-1.14-3-6-1.68-4.82 1.33zM3023.18 1429.35c3.42 58.59 7.42 117.16 14.31 175.46.37 3.15 5.37 3.19 5 0-6.89-58.3-10.89-116.87-14.31-175.46-.18-3.2-5.18-3.22-5 0zM3106.56 1138.36a64.33 64.33 0 00-10.21-38.05c-7.12-10.86-18.72-19.36-21.22-32.72-.59-3.16-5.41-1.82-4.82 1.33 2.26 12.1 11.46 20.4 18.7 29.71a60 60 0 0112.55 39.73c-.14 3.22 4.86 3.21 5 0z" fill="#1a2b58"/><path fill="#fff" d="M3156.52 1184.69h125.55v155.61l14.23 29.3h-101.6l-38.18-36.88v-148.03z"/><path fill="#9398c4" d="M3194.7 1369.6l-.25-37.36-37.93.48 38.18 36.88z"/><path d="M2754.32 1558.72s-7.37 26.31 17.16 41.51a38.21 38.21 0 0019.63 5.45h143.86a64 64 0 00-.87-12.59c-1.62-9.59-4.34-25.62-17.3-32.81-13.38-7.42-29.9-1.11-32.7 0 2.45-9-.21-18.45-7.08-24.09-9.27-7.63-25-7.41-35.88 1.85 8.76-16.91 6.44-34.66-4.49-43.5-2.23-1.8-7.62-5.5-17.15-6.17 10.48-12.12 9.28-28.54-.64-37.1-7.09-6.11-18-7.71-28.2-4.55 7.18-13-4.14-32.25-6-46.74-.82-6.44-1.59-13.34 1.24-19.17-6.7 5.78-12.27 11.81-18.27 17.9-7 7.13-12.61 26.12-12.61 26.12-8.82 8.79-18.06 21.15-16.4 34.78 1.82 15 7.26 23.84 15.87 31.5-15.35 7.66-24.36 20.53-23.06 37.18 1.59 19.94 22.89 30.43 22.89 30.43z" fill="#4a61a1"/><path d="M2773.5 1449.01c-6.05 31 .3 64.47 17.77 90.81 20.16 30.38 52.19 52 86.88 62.43 8.62 2.58 18.29 5.37 27.4 5.3 2.41 0 2.42-3.77 0-3.75-7 0-14.35-1.9-21.07-3.67a164.7 164.7 0 01-39.66-16.15c-35.29-20.06-62.92-53.72-68.6-94.66a120.36 120.36 0 01.9-39.31c.46-2.36-3.15-3.37-3.62-1z" fill="#fff"/><path d="M2848.86 1588.41c7.67-10.29 10.94-23.5 14-35.75.58-2.34-3-3.34-3.62-1-3 12-6.13 24.8-13.61 34.86-1.45 1.94 1.81 3.81 3.23 1.89zM2807.82 1556.48a114.47 114.47 0 0017.75-45.91c.35-2.36-3.26-3.38-3.61-1a111.87 111.87 0 01-17.38 45c-1.33 2 1.91 3.9 3.24 1.89zM2776.51 1500.59c8.94-2 19.3-7.66 23.43-16.18 1-2.17-2.18-4.07-3.23-1.9-3.73 7.69-13.15 12.71-21.2 14.47-2.35.51-1.36 4.13 1 3.61zM2826.66 1572.42c-16.1 2.11-34.09 0-48.52-7.82-2.12-1.14-4 2.09-1.89 3.24 15 8.09 33.67 10.52 50.41 8.33 2.36-.31 2.39-4.06 0-3.75zM2788.71 1530.19a31 31 0 01-21.23-7c-1.83-1.56-4.49 1.08-2.65 2.65a34.84 34.84 0 0023.88 8.11c2.4-.09 2.41-3.84 0-3.75zM2774.18 1473.57a88.57 88.57 0 01-13.82-12.35c-1.6-1.81-4.25.85-2.65 2.65a92.93 92.93 0 0014.58 12.94c1.94 1.43 3.82-1.82 1.89-3.24z" fill="#fff"/><path d="M2592.26 1602.29c6.25-11.29 1.91-27.87-7.27-35.72s-21.56-8.29-32.44-4.84c-2.84-21.82-15.42-42.08-32.8-49s-38.74 1.45-47.67 20.73c-1.87-10.55-12-17.13-20.76-15s-15.64 11.21-18.32 21.51-1.7 21.53.81 31.88c-9-13.39-38-3.59-33.51 30.74z" fill="#d69776"/><path fill="#ffe099" d="M1867.63 1331.61h519.22v271.4h-519.22z"/><path fill="#d69776" d="M2385.47 1463.07h28.74v139.94h-28.74z"/><path fill="#f0ca76" d="M1775.95 1331.61h96.5v271.4h-96.5z"/><path d="M1567.74 1602.29c-3.28-17.94 5.62-35.18 20.42-41.58 17.06-7.38 33.41 3.34 34.54 4.1-.45-6-1.31-26.95 12.67-41.47 3.28-3.41 8.35-8.53 16.42-9.54 10.88-1.35 19.13 5.8 20.78 7.28 1.52-15.14 3.82-30.66 12.21-44 3.51-5.58 19.41-26 41.55-23.52 17.8 2 33.44 18.2 37.53 40.1 11.88 5.81 16.25 12.4 18 17.57 2.09 6.34 1.38 10.79 3.23 27.31.46 4.15 1.61 8.65 5.41 11.16a16.78 16.78 0 008.09 2.27c11.34.83 22.4-3 33.73-4s24.88 2.2 28.76 11.57c1.07 2.59 1.28 5.45 2.68 7.92 5.75 10.2 22.9 5.85 35.89 5.39 24.09-.87 43 12.42 42 30.15z" fill="#d69776"/><path d="M2271.78 1572.84c.53-72.43-.35-147.63-1.93-220.05-34 .59-69.35.77-103.36 1.35 1.48 71.35 2.34 146.59 3.81 217.94z" fill="#ffd77d"/><path d="M2291.26 1602.33c.3-7.77.27-15.56-.1-23.32l-20.18-6.28-100.59-1v30.41z" fill="#ecb475"/><path d="M2170.3 1571.99c2.87 5 7.34 5.69 12.24 7.09s11.67 1.47 16.7 1.41l92.19-1c-6.8-2-13.62-4.22-19.65-6.65z" fill="#fff"/><path fill="#ecb475" d="M1962.63 1507.25l-1-113.23h98.43l1.78 112.75-99.21.48zM2271.51 1401.05l-22.1 171.48 23.1.31-1-171.79z"/><path fill="#fff" d="M1961.62 1506.49h100.21v4.53h-100.21z"/><path fill="#ffd77d" d="M1973.65 1403.17h76.97v94.37h-76.97z"/><path fill="#ecb475" d="M2328.89 1371.1h6.45v232.04h-6.45zM2149.96 1372.54h6.45v230.59h-6.45z"/><path d="M2328.41 1343.79h-215.94s23.57 42.26 46.72 45.08h212.16s-33.93-17.47-42.94-45.08z" fill="#f7c285"/><path fill="#ecb475" d="M2406.85 1331.61l-63.15-96.25h-522.96l-44.79 96.25h630.9z"/><path d="M2959.57 1268.48c-34.18-50.79-64.81-103.64-95.14-156.78-1.59-2.79-5.91-.28-4.31 2.52 30.33 53.14 60.95 106 95.14 156.79 1.78 2.65 6.12.15 4.31-2.53z" fill="#1a2b58"/><circle cx="2185.38" cy="1464.11" r="5.6" fill="#ecb475"/><path fill="#433b7a" d="M3183.5 1247.38h83.46v6.27h-83.46zM3240.13 1217.32h26.84v6.27h-26.84zM3232.86 1201.65h34.1v6.27h-34.1zM3183.5 1270.35h83.46v6.27h-83.46zM3183.5 1293.31h83.46v6.27h-83.46zM3183.5 1316.27h83.46v6.27h-83.46z"/><path d="M2207.93 1693.92c3.22 0 3.22-5 0-5s-3.22 5 0 5z" fill="#ecb475"/></svg>